<svg xmlns="http://www.w3.org/2000/svg" viewBox="0 0 32 32"><title>business-products-deal-handshake</title><g><rect x="30.48" y="7.62" width="1.52" height="1.52" fill="#5b4594"></rect><polygon points="27.43 15.24 27.43 16.76 24.39 16.76 24.39 18.29 27.43 18.29 27.43 27.43 21.34 27.43 21.34 28.95 27.43 28.95 27.43 30.48 32 30.48 32 15.24 27.43 15.24" fill="#5b4594"></polygon><rect x="28.96" y="9.14" width="1.52" height="1.53" fill="#5b4594"></rect><rect x="27.43" y="7.62" width="1.53" height="1.52" fill="#5b4594"></rect><rect x="25.91" y="9.14" width="1.52" height="1.53" fill="#5b4594"></rect><rect x="25.91" y="1.53" width="1.52" height="1.52" fill="#5b4594"></rect><rect x="24.39" y="7.62" width="1.52" height="1.52" fill="#5b4594"></rect><rect x="22.86" y="15.24" width="1.53" height="1.52" fill="#5b4594"></rect><rect x="21.34" y="13.72" width="1.52" height="1.52" fill="#5b4594"></rect><polygon points="21.34 22.86 19.81 22.86 19.81 25.91 16.77 25.91 16.77 28.95 18.29 28.95 18.29 27.43 21.34 27.43 21.34 22.86" fill="#5b4594"></polygon><rect x="18.29" y="21.34" width="1.52" height="1.52" fill="#5b4594"></rect><rect x="18.29" y="3.05" width="1.52" height="1.52" fill="#5b4594"></rect><rect x="16.77" y="19.81" width="1.52" height="1.53" fill="#5b4594"></rect><rect x="16.77" y="16.76" width="1.52" height="1.53" fill="#5b4594"></rect><rect x="15.24" y="12.19" width="6.1" height="1.53" fill="#5b4594"></rect><rect x="16.77" y="4.57" width="1.52" height="1.53" fill="#5b4594"></rect><rect x="16.77" y="1.53" width="1.52" height="1.52" fill="#5b4594"></rect><rect x="15.24" y="24.38" width="1.53" height="1.53" fill="#5b4594"></rect><rect x="15.24" y="18.29" width="1.53" height="1.52" fill="#5b4594"></rect><rect x="15.24" y="3.05" width="1.53" height="1.52" fill="#5b4594"></rect><polygon points="13.72 30.48 9.15 30.48 9.15 32 15.24 32 15.24 30.48 16.77 30.48 16.77 28.95 13.72 28.95 13.72 30.48" fill="#5b4594"></polygon><rect x="13.72" y="13.72" width="1.52" height="1.52" fill="#5b4594"></rect><rect x="12.19" y="27.43" width="1.53" height="1.52" fill="#5b4594"></rect><rect x="12.19" y="19.81" width="3.05" height="1.53" fill="#5b4594"></rect><rect x="12.19" y="15.24" width="1.53" height="1.52" fill="#5b4594"></rect><rect x="10.67" y="12.19" width="3.05" height="1.53" fill="#5b4594"></rect><rect x="10.67" y="25.91" width="1.52" height="1.52" fill="#5b4594"></rect><rect x="10.67" y="16.76" width="1.52" height="3.05" fill="#5b4594"></rect><rect x="10.67" y="6.1" width="1.52" height="1.52" fill="#5b4594"></rect><rect x="9.15" y="13.72" width="1.52" height="1.52" fill="#5b4594"></rect><rect x="7.62" y="28.95" width="1.53" height="1.53" fill="#5b4594"></rect><rect x="7.62" y="15.24" width="1.53" height="1.52" fill="#5b4594"></rect><polygon points="4.58 27.43 4.58 18.29 7.62 18.29 7.62 16.76 4.58 16.76 4.58 15.24 0 15.24 0 30.48 4.58 30.48 4.58 28.95 7.62 28.95 7.62 27.43 4.58 27.43" fill="#5b4594"></polygon><rect x="6.1" width="1.52" height="1.53" fill="#5b4594"></rect><polygon points="4.58 12.19 4.58 10.67 6.1 10.67 6.1 9.14 4.58 9.14 4.58 7.62 3.05 7.62 3.05 9.14 1.53 9.14 1.53 10.67 3.05 10.67 3.05 12.19 4.58 12.19" fill="#5b4594"></polygon></g></svg>