<svg xmlns="http://www.w3.org/2000/svg" viewBox="0 0 32 32"><title>content-files-open-book</title><g><rect x="28.95" y="8.38" width="1.53" height="18.29" fill="#5B4594"></rect><rect x="25.91" y="26.67" width="3.04" height="1.52" fill="#5B4594"></rect><rect x="22.86" y="25.14" width="3.05" height="1.53" fill="#5B4594"></rect><rect x="18.29" y="23.62" width="4.57" height="1.52" fill="#5B4594"></rect><rect x="19.81" y="16" width="4.57" height="1.52" fill="#5B4594"></rect><rect x="19.81" y="11.43" width="4.57" height="1.52" fill="#5B4594"></rect><rect x="19.81" y="6.86" width="4.57" height="1.52" fill="#5B4594"></rect><rect x="18.29" y="3.81" width="7.62" height="1.52" fill="#5B4594"></rect><rect x="18.29" y="12.95" width="1.52" height="1.53" fill="#5B4594"></rect><rect x="18.29" y="8.38" width="1.52" height="1.53" fill="#5B4594"></rect><rect x="16.76" y="5.33" width="1.53" height="1.53" fill="#5B4594"></rect><rect x="13.72" y="25.14" width="4.57" height="1.53" fill="#5B4594"></rect><rect x="13.72" y="5.33" width="1.52" height="1.53" fill="#5B4594"></rect><rect x="9.14" y="23.62" width="4.58" height="1.52" fill="#5B4594"></rect><rect x="12.19" y="12.95" width="1.53" height="1.53" fill="#5B4594"></rect><rect x="12.19" y="8.38" width="1.53" height="1.53" fill="#5B4594"></rect><rect x="7.62" y="16" width="4.57" height="1.52" fill="#5B4594"></rect><rect x="7.62" y="11.43" width="4.57" height="1.52" fill="#5B4594"></rect><rect x="7.62" y="6.86" width="4.57" height="1.52" fill="#5B4594"></rect><rect x="6.1" y="3.81" width="7.62" height="1.52" fill="#5B4594"></rect><rect x="6.1" y="25.14" width="3.04" height="1.53" fill="#5B4594"></rect><polygon points="13.72 20.57 13.72 19.05 9.14 19.05 9.14 20.57 6.1 20.57 6.1 5.33 4.57 5.33 4.57 6.86 3.05 6.86 3.05 8.38 4.57 8.38 4.57 23.62 9.14 23.62 9.14 22.1 13.72 22.1 13.72 23.62 18.29 23.62 18.29 22.1 22.86 22.1 22.86 23.62 27.43 23.62 27.43 8.38 28.95 8.38 28.95 6.86 27.43 6.86 27.43 5.33 25.91 5.33 25.91 20.57 22.86 20.57 22.86 19.05 18.29 19.05 18.29 20.57 16.76 20.57 16.76 6.86 15.24 6.86 15.24 20.57 13.72 20.57" fill="#5B4594"></polygon><rect x="3.05" y="26.67" width="3.05" height="1.52" fill="#5B4594"></rect><rect x="1.52" y="8.38" width="1.53" height="18.29" fill="#5B4594"></rect></g></svg>