<svg xmlns="http://www.w3.org/2000/svg" viewBox="0 0 32 32"><g fill="#5B4594"><path d="M28.95 8.38h1.53v18.29h-1.53zM25.91 26.67h3.04v1.52h-3.04zM22.86 25.14h3.05v1.53h-3.05zM18.29 23.62h4.57v1.52h-4.57zM19.81 16h4.57v1.52h-4.57zM19.81 11.43h4.57v1.52h-4.57zM19.81 6.86h4.57v1.52h-4.57zM18.29 3.81h7.62v1.52h-7.62zM18.29 12.95h1.52v1.53h-1.52zM18.29 8.38h1.52v1.53h-1.52zM16.76 5.33h1.53v1.53h-1.53zM13.72 25.14h4.57v1.53h-4.57zM13.72 5.33h1.52v1.53h-1.52zM9.14 23.62h4.58v1.52H9.14zM12.19 12.95h1.53v1.53h-1.53zM12.19 8.38h1.53v1.53h-1.53zM7.62 16h4.57v1.52H7.62zM7.62 11.43h4.57v1.52H7.62zM7.62 6.86h4.57v1.52H7.62zM6.1 3.81h7.62v1.52H6.1zM6.1 25.14h3.04v1.53H6.1z"/><path d="M13.72 20.57v-1.52H9.14v1.52H6.1V5.33H4.57v1.53H3.05v1.52h1.52v15.24h4.57V22.1h4.58v1.52h4.57V22.1h4.57v1.52h4.57V8.38h1.52V6.86h-1.52V5.33h-1.52v15.24h-3.05v-1.52h-4.57v1.52h-1.53V6.86h-1.52v13.71h-1.52zM3.05 26.67H6.1v1.52H3.05zM1.52 8.38h1.53v18.29H1.52z"/></g></svg>