<svg xmlns="http://www.w3.org/2000/svg" viewBox="0 0 32 32"><g fill="#5b4594"><path d="M30.48 28.96h-6.1v-3.05h3.05v-1.53h-3.05v-1.52h1.53v-1.52h-1.53v-3.05h3.05v-1.52h-3.05v-1.53h-1.52v1.53h-3.05v1.52h3.05v3.05h-1.53v1.52h1.53v1.52h-3.05v1.53h3.05v3.05H9.14v-3.05h3.05v-1.53H9.14v-1.52h1.53v-1.52H9.14v-3.05h3.05v-1.52H9.14v-1.53h1.53v-1.52H9.14v-3.05H7.62v3.05H6.1v1.52h1.52v1.53H4.57v1.52h3.05v3.05H6.1v1.52h1.52v1.52H4.57v1.53h3.05v3.05h-6.1v1.52H0V32h32v-1.52h-1.52v-1.52z"/><path d="M27.43 24.38h1.52v-4.57h-3.04v1.53h1.52v3.04zM27.43 16.77h1.52v-4.58h-3.04v1.53h1.52v3.05zM27.43 4.57h1.52V6.1h-1.52zM25.91 7.62h1.52v1.53h-1.52zM25.91 1.53h1.52v1.52h-1.52zM24.38 13.72h1.53v1.52h-1.53zM22.86 9.15h1.52v1.52h-1.52zM22.86 0h1.52v1.53h-1.52zM21.33 13.72h1.53v1.52h-1.53zM21.33 3.05h4.58v4.57h-4.58zM19.81 7.62h1.52v1.53h-1.52zM19.81 1.53h1.52v1.52h-1.52zM21.33 21.34v-1.53h-3.04v4.57h1.52v-3.04h1.52zM21.33 13.72v-1.53h-3.04v4.58h1.52v-3.05h1.52zM18.29 4.57h1.52V6.1h-1.52zM12.19 24.38h1.53v-4.57h-3.05v1.53h1.52v3.04zM12.19 16.77h1.53v-4.58h-3.05v1.53h1.52v3.05zM10.67 7.62h1.52v1.53h-1.52zM9.14 9.15h1.53v1.52H9.14zM6.1 9.15h1.52v1.52H6.1zM4.57 7.62H6.1v1.53H4.57zM6.1 21.34v-1.53H3.05v4.57h1.52v-3.04H6.1zM6.1 13.72v-1.53H3.05v4.58h1.52v-3.05H6.1z"/></g></svg>