<svg xmlns="http://www.w3.org/2000/svg" viewBox="0 0 32 32"><title>email-envelope-close</title><g><rect x="30.47" y="6.1" width="1.53" height="19.8" fill="#5B4594"></rect><rect x="28.95" y="25.9" width="1.52" height="1.53" fill="#5B4594"></rect><rect x="28.95" y="4.57" width="1.52" height="1.53" fill="#5B4594"></rect><rect x="27.43" y="7.62" width="1.52" height="3.05" fill="#5B4594"></rect><rect x="3.05" y="27.43" width="25.9" height="1.52" fill="#5B4594"></rect><rect x="25.9" y="22.86" width="1.53" height="1.52" fill="#5B4594"></rect><rect x="25.9" y="10.67" width="1.53" height="1.52" fill="#5B4594"></rect><rect x="24.38" y="21.33" width="1.52" height="1.53" fill="#5B4594"></rect><rect x="24.38" y="12.19" width="1.52" height="1.52" fill="#5B4594"></rect><rect x="22.85" y="19.81" width="1.53" height="1.52" fill="#5B4594"></rect><rect x="22.85" y="13.71" width="1.53" height="1.53" fill="#5B4594"></rect><rect x="21.33" y="18.29" width="1.52" height="1.52" fill="#5B4594"></rect><rect x="21.33" y="15.24" width="1.52" height="1.52" fill="#5B4594"></rect><rect x="18.28" y="16.76" width="3.05" height="1.53" fill="#5B4594"></rect><rect x="13.71" y="18.29" width="4.57" height="1.52" fill="#5B4594"></rect><rect x="10.66" y="16.76" width="3.05" height="1.53" fill="#5B4594"></rect><rect x="9.14" y="18.29" width="1.52" height="1.52" fill="#5B4594"></rect><rect x="9.14" y="15.24" width="1.52" height="1.52" fill="#5B4594"></rect><rect x="7.62" y="19.81" width="1.52" height="1.52" fill="#5B4594"></rect><rect x="7.62" y="13.71" width="1.52" height="1.53" fill="#5B4594"></rect><rect x="6.09" y="21.33" width="1.53" height="1.53" fill="#5B4594"></rect><rect x="6.09" y="12.19" width="1.53" height="1.52" fill="#5B4594"></rect><rect x="4.57" y="22.86" width="1.52" height="1.52" fill="#5B4594"></rect><rect x="4.57" y="10.67" width="1.52" height="1.52" fill="#5B4594"></rect><rect x="3.05" y="3.05" width="25.9" height="1.52" fill="#5B4594"></rect><rect x="3.05" y="7.62" width="1.52" height="3.05" fill="#5B4594"></rect><rect x="1.52" y="25.9" width="1.53" height="1.53" fill="#5B4594"></rect><rect x="1.52" y="4.57" width="1.53" height="1.53" fill="#5B4594"></rect><rect y="6.1" width="1.52" height="19.8" fill="#5B4594"></rect></g></svg>