<svg xmlns="http://www.w3.org/2000/svg" viewBox="0 0 32 32"><title>email-mail-chat</title><g><polygon points="22.1 15.24 22.1 16.76 19.05 16.76 19.05 18.29 9.91 18.29 9.91 19.81 14.48 19.81 14.48 21.33 16 21.33 16 22.86 17.53 22.86 17.53 24.38 23.62 24.38 23.62 25.9 25.15 25.9 25.15 27.43 26.67 27.43 26.67 28.95 28.19 28.95 28.19 22.86 29.72 22.86 29.72 21.33 31.24 21.33 31.24 15.24 29.72 15.24 29.72 13.71 28.19 13.71 28.19 12.19 25.15 12.19 25.15 7.62 23.62 7.62 23.62 15.24 22.1 15.24" fill="#5B4594"></polygon><rect x="22.1" y="6.09" width="1.52" height="1.53" fill="#5B4594"></rect><rect x="17.53" y="10.67" width="3.04" height="3.04" fill="#5B4594"></rect><rect x="19.05" y="4.57" width="3.05" height="1.52" fill="#5B4594"></rect><rect x="11.43" y="10.67" width="3.05" height="3.04" fill="#5B4594"></rect><rect x="8.38" y="19.81" width="1.53" height="1.52" fill="#5B4594"></rect><rect x="6.86" y="3.05" width="12.19" height="1.52" fill="#5B4594"></rect><polygon points="6.86 18.29 5.34 18.29 5.34 24.38 6.86 24.38 6.86 22.86 8.38 22.86 8.38 21.33 6.86 21.33 6.86 18.29" fill="#5B4594"></polygon><rect x="5.34" y="10.67" width="3.04" height="3.04" fill="#5B4594"></rect><rect x="3.81" y="4.57" width="3.05" height="1.52" fill="#5B4594"></rect><rect x="3.81" y="16.76" width="1.53" height="1.53" fill="#5B4594"></rect><rect x="2.29" y="15.24" width="1.52" height="1.52" fill="#5B4594"></rect><rect x="2.29" y="6.09" width="1.52" height="1.53" fill="#5B4594"></rect><rect x="0.76" y="7.62" width="1.53" height="7.62" fill="#5B4594"></rect></g></svg>