<svg xmlns="http://www.w3.org/2000/svg" viewBox="0 0 32 32"><g fill="#5B4594"><path d="M30.47 3.05H32v1.52h-1.53zM28.95 9.14h1.52v9.15h-1.52zM28.95 32v-1.52h1.52v-1.53h-1.52v-1.52h-1.53v1.52H25.9v1.53h1.52V32h1.53zM27.42 18.29h1.53v1.52h-1.53zM27.42 6.1h1.53v3.04h-1.53zM25.9 19.81h1.52v1.52H25.9zM25.9 4.57h1.52V6.1H25.9zM25.9 0h1.52v1.52H25.9zM24.38 21.33h1.52v1.53h-1.52zM24.38 12.19h1.52v4.57h-1.52zM22.85 16.76h1.53v1.53h-1.53zM22.85 9.14h1.53v1.53h-1.53zM22.85 3.05h3.05v1.52h-3.05zM18.28 22.86h6.1v1.52h-6.1zM21.33 18.29h1.52v1.52h-1.52zM18.28 28.95h1.53v1.53h-1.53zM9.14 24.38h9.14v1.53H9.14zM13.71 1.52h9.14v1.53h-9.14zM12.19 3.05h1.52v1.52h-1.52zM10.66 4.57h1.53V6.1h-1.53zM9.14 6.1h1.52v1.52H9.14zM7.61 22.86h1.53v1.52H7.61zM7.61 7.62h1.53v6.09H7.61zM6.09 24.38h1.52v1.53H6.09zM6.09 13.71h1.52v9.15H6.09zM6.09 3.05h1.52v1.52H6.09zM4.57 25.91h1.52v1.52H4.57zM4.57 4.57h1.52V6.1H4.57zM4.57 1.52h1.52v1.53H4.57zM3.04 27.43h1.53v1.52H3.04zM3.04 3.05h1.53v1.52H3.04zM1.52 28.95h1.52v1.53H1.52zM1.52 13.71h1.52v1.53H1.52zM0 30.48h1.52V32H0z"/></g></svg>