<svg xmlns="http://www.w3.org/2000/svg" viewBox="0 0 32 32"><title>food-drink-pizza</title><g><polygon points="30.47 8.385 27.42 8.385 27.42 6.855 24.38 6.855 24.38 5.335 21.33 5.335 21.33 3.805 18.28 3.805 18.28 2.285 15.23 2.285 15.23 3.805 13.71 3.805 13.71 8.385 18.28 8.385 18.28 9.905 21.33 9.905 21.33 11.425 24.38 11.425 24.38 12.955 27.42 12.955 27.42 14.475 28.95 14.475 28.95 12.955 30.47 12.955 30.47 17.525 32 17.525 32 9.905 30.47 9.905 30.47 8.385" fill="#5B4594"></polygon><rect x="27.42" y="17.525" width="3.05" height="1.52" fill="#5B4594"></rect><rect x="24.38" y="19.045" width="3.04" height="1.53" fill="#5B4594"></rect><rect x="24.38" y="14.475" width="3.04" height="1.52" fill="#5B4594"></rect><rect x="21.33" y="20.575" width="3.05" height="1.52" fill="#5B4594"></rect><rect x="21.33" y="15.995" width="3.05" height="1.53" fill="#5B4594"></rect><rect x="18.28" y="12.955" width="3.05" height="3.04" fill="#5B4594"></rect><rect x="18.28" y="22.095" width="3.05" height="1.52" fill="#5B4594"></rect><rect x="18.28" y="17.525" width="3.05" height="1.52" fill="#5B4594"></rect><rect x="15.23" y="23.615" width="3.05" height="1.53" fill="#5B4594"></rect><rect x="15.23" y="19.045" width="3.05" height="1.53" fill="#5B4594"></rect><rect x="15.23" y="14.475" width="1.53" height="1.52" fill="#5B4594"></rect><rect x="13.71" y="9.905" width="3.05" height="3.05" fill="#5B4594"></rect><rect x="12.19" y="25.145" width="3.04" height="1.52" fill="#5B4594"></rect><rect x="12.19" y="20.575" width="3.04" height="1.52" fill="#5B4594"></rect><rect x="10.66" y="14.475" width="3.05" height="3.05" fill="#5B4594"></rect><rect x="12.19" y="8.385" width="1.52" height="1.52" fill="#5B4594"></rect><rect x="10.66" y="19.045" width="1.53" height="1.53" fill="#5B4594"></rect><rect x="10.66" y="9.905" width="1.53" height="1.52" fill="#5B4594"></rect><rect x="9.14" y="26.665" width="3.05" height="1.53" fill="#5B4594"></rect><rect x="9.14" y="22.095" width="3.05" height="1.52" fill="#5B4594"></rect><rect x="9.14" y="11.425" width="1.52" height="1.53" fill="#5B4594"></rect><rect x="6.09" y="19.045" width="3.05" height="3.05" fill="#5B4594"></rect><rect x="7.61" y="15.995" width="1.53" height="1.53" fill="#5B4594"></rect><rect x="7.61" y="12.955" width="1.53" height="1.52" fill="#5B4594"></rect><rect x="3.04" y="28.195" width="6.1" height="1.52" fill="#5B4594"></rect><rect x="6.09" y="23.615" width="3.05" height="1.53" fill="#5B4594"></rect><rect x="6.09" y="14.475" width="1.52" height="1.52" fill="#5B4594"></rect><rect x="4.57" y="15.995" width="1.52" height="1.53" fill="#5B4594"></rect><polygon points="6.09 26.665 6.09 25.145 1.52 25.145 1.52 28.195 3.04 28.195 3.04 26.665 6.09 26.665" fill="#5B4594"></polygon><rect x="3.04" y="20.575" width="1.53" height="1.52" fill="#5B4594"></rect><rect x="3.04" y="17.525" width="1.53" height="1.52" fill="#5B4594"></rect><rect x="1.52" y="19.045" width="1.52" height="1.53" fill="#5B4594"></rect><rect y="20.575" width="1.52" height="4.57" fill="#5B4594"></rect></g></svg>