<svg xmlns="http://www.w3.org/2000/svg" viewBox="0 0 32 32"><g fill="#5B4594"><path d="M30.47 8.385h-3.05v-1.53h-3.04v-1.52h-3.05v-1.53h-3.05v-1.52h-3.05v1.52h-1.52v4.58h4.57v1.52h3.05v1.52h3.05v1.53h3.04v1.52h1.53v-1.52h1.52v4.57H32v-7.62h-1.53v-1.52zM27.42 17.525h3.05v1.52h-3.05zM24.38 19.045h3.04v1.53h-3.04z"/><path d="M24.38 14.475h3.04v1.52h-3.04zM21.33 20.575h3.05v1.52h-3.05zM21.33 15.995h3.05v1.53h-3.05z"/><path d="M18.28 12.955h3.05v3.04h-3.05zM18.28 22.095h3.05v1.52h-3.05zM18.28 17.525h3.05v1.52h-3.05zM15.23 23.615h3.05v1.53h-3.05zM15.23 19.045h3.05v1.53h-3.05zM15.23 14.475h1.53v1.52h-1.53zM13.71 9.905h3.05v3.05h-3.05zM12.19 25.145h3.04v1.52h-3.04zM12.19 20.575h3.04v1.52h-3.04zM10.66 14.475h3.05v3.05h-3.05zM12.19 8.385h1.52v1.52h-1.52zM10.66 19.045h1.53v1.53h-1.53zM10.66 9.905h1.53v1.52h-1.53zM9.14 26.665h3.05v1.53H9.14zM9.14 22.095h3.05v1.52H9.14zM9.14 11.425h1.52v1.53H9.14zM6.09 19.045h3.05v3.05H6.09zM7.61 15.995h1.53v1.53H7.61zM7.61 12.955h1.53v1.52H7.61zM3.04 28.195h6.1v1.52h-6.1zM6.09 23.615h3.05v1.53H6.09zM6.09 14.475h1.52v1.52H6.09zM4.57 15.995h1.52v1.53H4.57zM6.09 26.665v-1.52H1.52v3.05h1.52v-1.53h3.05zM3.04 20.575h1.53v1.52H3.04zM3.04 17.525h1.53v1.52H3.04zM1.52 19.045h1.52v1.53H1.52zM0 20.575h1.52v4.57H0z"/></g></svg>