<svg xmlns="http://www.w3.org/2000/svg" viewBox="0 0 32 32"><title>food-drink-desert-cotton-candy</title><g><rect x="30.47" y="3.05" width="1.53" height="1.52" fill="#5B4594"></rect><rect x="28.95" y="9.14" width="1.52" height="9.15" fill="#5B4594"></rect><polygon points="28.95 32 28.95 30.48 30.47 30.48 30.47 28.95 28.95 28.95 28.95 27.43 27.42 27.43 27.42 28.95 25.9 28.95 25.9 30.48 27.42 30.48 27.42 32 28.95 32" fill="#5B4594"></polygon><rect x="27.42" y="18.29" width="1.53" height="1.52" fill="#5B4594"></rect><rect x="27.42" y="6.1" width="1.53" height="3.04" fill="#5B4594"></rect><rect x="25.9" y="19.81" width="1.52" height="1.52" fill="#5B4594"></rect><rect x="25.9" y="4.57" width="1.52" height="1.53" fill="#5B4594"></rect><rect x="25.9" width="1.52" height="1.52" fill="#5B4594"></rect><rect x="24.38" y="21.33" width="1.52" height="1.53" fill="#5B4594"></rect><rect x="24.38" y="12.19" width="1.52" height="4.57" fill="#5B4594"></rect><rect x="22.85" y="16.76" width="1.53" height="1.53" fill="#5B4594"></rect><rect x="22.85" y="9.14" width="1.53" height="1.53" fill="#5B4594"></rect><rect x="22.85" y="3.05" width="3.05" height="1.52" fill="#5B4594"></rect><rect x="18.28" y="22.86" width="6.1" height="1.52" fill="#5B4594"></rect><rect x="21.33" y="18.29" width="1.52" height="1.52" fill="#5B4594"></rect><rect x="18.28" y="28.95" width="1.53" height="1.53" fill="#5B4594"></rect><rect x="9.14" y="24.38" width="9.14" height="1.53" fill="#5B4594"></rect><rect x="13.71" y="1.52" width="9.14" height="1.53" fill="#5B4594"></rect><rect x="12.19" y="3.05" width="1.52" height="1.52" fill="#5B4594"></rect><rect x="10.66" y="4.57" width="1.53" height="1.53" fill="#5B4594"></rect><rect x="9.14" y="6.1" width="1.52" height="1.52" fill="#5B4594"></rect><rect x="7.61" y="22.86" width="1.53" height="1.52" fill="#5B4594"></rect><rect x="7.61" y="7.62" width="1.53" height="6.09" fill="#5B4594"></rect><rect x="6.09" y="24.38" width="1.52" height="1.53" fill="#5B4594"></rect><rect x="6.09" y="13.71" width="1.52" height="9.15" fill="#5B4594"></rect><rect x="6.09" y="3.05" width="1.52" height="1.52" fill="#5B4594"></rect><rect x="4.57" y="25.91" width="1.52" height="1.52" fill="#5B4594"></rect><rect x="4.57" y="4.57" width="1.52" height="1.53" fill="#5B4594"></rect><rect x="4.57" y="1.52" width="1.52" height="1.53" fill="#5B4594"></rect><rect x="3.04" y="27.43" width="1.53" height="1.52" fill="#5B4594"></rect><rect x="3.04" y="3.05" width="1.53" height="1.52" fill="#5B4594"></rect><rect x="1.52" y="28.95" width="1.52" height="1.53" fill="#5B4594"></rect><rect x="1.52" y="13.71" width="1.52" height="1.53" fill="#5B4594"></rect><rect y="30.48" width="1.52" height="1.52" fill="#5B4594"></rect></g></svg>