<svg xmlns="http://www.w3.org/2000/svg" viewBox="0 0 32 32">
  <g fill="#5b4594">
    <path
      d="M29.71 15.24h1.53v4.57h-1.53zM28.19 19.81h1.52v1.52h-1.52zM28.19 13.72h1.52v1.52h-1.52zM26.67 25.91h1.52v1.52h-1.52zM26.67 16.76h1.52v1.53h-1.52zM23.62 12.19h4.57v1.53h-4.57zM25.14 27.43h1.53v1.52h-1.53zM25.14 24.38h1.53v1.53h-1.53zM23.62 21.33v1.53h-1.53v1.52h3.05v-1.52h3.05v-1.53h-4.57zM23.62 15.24v4.57h3.05v-1.52h-1.53v-1.53h1.53v-1.52h-3.05zM22.09 28.95h3.05v1.53h-3.05zM22.09 10.67h1.53v1.52h-1.53zM19.05 24.38h3.04v1.53h-3.04zM17.52 9.14h4.57v1.53h-4.57zM6.86 30.48h15.23V32H6.86zM8.38 12.19v1.53H6.86v1.52h1.52v1.52h12.19v-1.52h1.52v-1.52h-1.52v-1.53H8.38zM19.05 1.52h1.52v3.05h-1.52zM16 0h3.05v1.52H16zM17.52 4.57h1.53V6.1h-1.53zM14.47 1.52H16v1.53h-1.53zM14.47 7.62H16v3.05h-1.53zM11.43 0h3.04v1.52h-3.04zM12.95 6.1h1.52v1.52h-1.52zM11.43 4.57h1.52V6.1h-1.52zM9.9 25.91h9.15v1.52H9.9zM9.9 1.52h1.53v3.05H9.9zM6.86 9.14h6.09v1.53H6.86zM6.86 24.38H9.9v1.53H6.86zM3.81 28.95h3.05v1.53H3.81zM6.86 21.33H5.33v1.53H3.81v1.52h3.05v-3.05zM5.33 10.67h1.53v1.52H5.33zM3.81 12.19h1.52v9.14H3.81zM2.28 27.43h1.53v1.52H2.28zM2.28 24.38h1.53v1.53H2.28zM.76 25.91h1.52v1.52H.76z" />
  </g>
</svg>