<svg xmlns="http://www.w3.org/2000/svg" viewBox="0 0 32 32"><title>hand-cross-finger-heart</title><g><rect x="26.67" y="27.43" width="1.52" height="4.57" fill="#5B4594"></rect><rect x="25.14" y="25.91" width="1.53" height="1.52" fill="#5B4594"></rect><rect x="23.62" y="27.43" width="1.52" height="1.52" fill="#5B4594"></rect><rect x="23.62" y="24.38" width="1.52" height="1.53" fill="#5B4594"></rect><rect x="22.09" y="28.95" width="1.53" height="1.53" fill="#5B4594"></rect><rect x="20.57" y="22.86" width="3.05" height="1.52" fill="#5B4594"></rect><rect x="22.09" y="10.67" width="1.53" height="4.57" fill="#5B4594"></rect><rect x="20.57" y="30.48" width="1.52" height="1.52" fill="#5B4594"></rect><rect x="20.57" y="15.24" width="1.52" height="1.52" fill="#5B4594"></rect><rect x="19.05" y="9.14" width="3.04" height="1.53" fill="#5B4594"></rect><rect x="19.05" y="24.38" width="1.52" height="1.53" fill="#5B4594"></rect><rect x="17.52" y="21.33" width="3.05" height="1.53" fill="#5B4594"></rect><rect x="19.05" y="16.76" width="1.52" height="1.53" fill="#5B4594"></rect><rect x="17.52" y="25.91" width="1.53" height="1.52" fill="#5B4594"></rect><rect x="17.52" y="18.29" width="1.53" height="1.52" fill="#5B4594"></rect><rect x="17.52" y="10.67" width="1.53" height="1.52" fill="#5B4594"></rect><rect x="16" y="27.43" width="1.52" height="1.52" fill="#5B4594"></rect><rect x="16" y="19.81" width="1.52" height="1.52" fill="#5B4594"></rect><rect x="16" y="12.19" width="1.52" height="1.52" fill="#5B4594"></rect><rect x="14.48" y="21.33" width="1.52" height="1.53" fill="#5B4594"></rect><rect x="14.48" y="13.71" width="1.52" height="1.53" fill="#5B4594"></rect><rect x="12.95" y="22.86" width="1.53" height="1.52" fill="#5B4594"></rect><rect x="12.95" y="15.24" width="1.53" height="1.52" fill="#5B4594"></rect><rect x="11.43" y="16.76" width="1.52" height="1.53" fill="#5B4594"></rect><rect x="11.43" y="12.19" width="1.52" height="3.05" fill="#5B4594"></rect><rect x="9.9" y="18.29" width="1.53" height="1.52" fill="#5B4594"></rect><polygon points="9.9 0 9.9 1.52 8.38 1.52 8.38 4.57 9.9 4.57 9.9 6.1 11.43 6.1 11.43 7.62 12.95 7.62 12.95 9.14 14.48 9.14 14.48 7.62 16 7.62 16 6.1 17.52 6.1 17.52 4.57 19.05 4.57 19.05 1.52 17.52 1.52 17.52 0 14.48 0 14.48 1.52 12.95 1.52 12.95 0 9.9 0" fill="#5B4594"></polygon><rect x="6.86" y="10.67" width="4.57" height="1.52" fill="#5B4594"></rect><polygon points="8.38 16.76 6.86 16.76 6.86 22.86 8.38 22.86 8.38 21.33 9.9 21.33 9.9 19.81 8.38 19.81 8.38 16.76" fill="#5B4594"></polygon><rect x="5.33" y="22.86" width="1.53" height="1.52" fill="#5B4594"></rect><rect x="5.33" y="12.19" width="1.53" height="4.57" fill="#5B4594"></rect><rect x="3.81" y="24.38" width="1.52" height="7.62" fill="#5B4594"></rect></g></svg>