<svg xmlns="http://www.w3.org/2000/svg" viewBox="0 0 32 32"><g fill="#5B4594"><path d="M26.67 27.43h1.52V32h-1.52zM25.14 25.91h1.53v1.52h-1.53zM23.62 27.43h1.52v1.52h-1.52zM23.62 24.38h1.52v1.53h-1.52zM22.09 28.95h1.53v1.53h-1.53zM20.57 22.86h3.05v1.52h-3.05zM22.09 10.67h1.53v4.57h-1.53zM20.57 30.48h1.52V32h-1.52zM20.57 15.24h1.52v1.52h-1.52zM19.05 9.14h3.04v1.53h-3.04zM19.05 24.38h1.52v1.53h-1.52zM17.52 21.33h3.05v1.53h-3.05zM19.05 16.76h1.52v1.53h-1.52zM17.52 25.91h1.53v1.52h-1.53zM17.52 18.29h1.53v1.52h-1.53zM17.52 10.67h1.53v1.52h-1.53zM16 27.43h1.52v1.52H16zM16 19.81h1.52v1.52H16zM16 12.19h1.52v1.52H16zM14.48 21.33H16v1.53h-1.52zM14.48 13.71H16v1.53h-1.52zM12.95 22.86h1.53v1.52h-1.53zM12.95 15.24h1.53v1.52h-1.53zM11.43 16.76h1.52v1.53h-1.52zM11.43 12.19h1.52v3.05h-1.52zM9.9 18.29h1.53v1.52H9.9zM9.9 0v1.52H8.38v3.05H9.9V6.1h1.53v1.52h1.52v1.52h1.53V7.62H16V6.1h1.52V4.57h1.53V1.52h-1.53V0h-3.04v1.52h-1.53V0H9.9zM6.86 10.67h4.57v1.52H6.86zM8.38 16.76H6.86v6.1h1.52v-1.53H9.9v-1.52H8.38v-3.05zM5.33 22.86h1.53v1.52H5.33zM5.33 12.19h1.53v4.57H5.33zM3.81 24.38h1.52V32H3.81z"/></g></svg>