<svg xmlns="http://www.w3.org/2000/svg" viewBox="0 0 32 32"><title>interface-essential-question-help-square</title><g><rect x="30.48" y="3.05" width="1.52" height="25.9" fill="#5B4594"></rect><rect x="28.95" y="28.95" width="1.53" height="1.53" fill="#5B4594"></rect><rect x="28.95" y="1.52" width="1.53" height="1.53" fill="#5B4594"></rect><rect x="3.05" y="30.48" width="25.9" height="1.52" fill="#5B4594"></rect><polygon points="27.43 24.38 25.91 24.38 25.91 25.9 24.38 25.9 24.38 27.43 25.91 27.43 25.91 28.95 27.43 28.95 27.43 27.43 28.95 27.43 28.95 25.9 27.43 25.9 27.43 24.38" fill="#5B4594"></polygon><polygon points="27.43 3.05 25.91 3.05 25.91 4.57 24.38 4.57 24.38 6.09 25.91 6.09 25.91 7.62 27.43 7.62 27.43 6.09 28.95 6.09 28.95 4.57 27.43 4.57 27.43 3.05" fill="#5B4594"></polygon><polygon points="21.34 6.09 19.81 6.09 19.81 4.57 12.19 4.57 12.19 6.09 10.67 6.09 10.67 7.62 9.15 7.62 9.15 12.19 12.19 12.19 12.19 9.14 13.72 9.14 13.72 7.62 16.76 7.62 16.76 9.14 18.29 9.14 18.29 12.19 16.76 12.19 16.76 13.71 15.24 13.71 15.24 15.24 13.72 15.24 13.72 18.28 18.29 18.28 18.29 16.76 19.81 16.76 19.81 15.24 21.34 15.24 21.34 13.71 22.86 13.71 22.86 7.62 21.34 7.62 21.34 6.09" fill="#5B4594"></polygon><polygon points="18.29 19.81 13.72 19.81 13.72 21.33 12.19 21.33 12.19 25.9 13.72 25.9 13.72 27.43 18.29 27.43 18.29 25.9 19.81 25.9 19.81 21.33 18.29 21.33 18.29 19.81" fill="#5B4594"></polygon><polygon points="6.1 24.38 4.57 24.38 4.57 25.9 3.05 25.9 3.05 27.43 4.57 27.43 4.57 28.95 6.1 28.95 6.1 27.43 7.62 27.43 7.62 25.9 6.1 25.9 6.1 24.38" fill="#5B4594"></polygon><polygon points="6.1 3.05 4.57 3.05 4.57 4.57 3.05 4.57 3.05 6.09 4.57 6.09 4.57 7.62 6.1 7.62 6.1 6.09 7.62 6.09 7.62 4.57 6.1 4.57 6.1 3.05" fill="#5B4594"></polygon><rect x="3.05" width="25.9" height="1.52" fill="#5B4594"></rect><rect x="1.53" y="28.95" width="1.52" height="1.53" fill="#5B4594"></rect><rect x="1.53" y="1.52" width="1.52" height="1.53" fill="#5B4594"></rect><rect y="3.05" width="1.53" height="25.9" fill="#5B4594"></rect></g></svg>