<svg xmlns="http://www.w3.org/2000/svg" fill="none" viewBox="0 0 24 24"><path fill="#5B4594" d="M24 13.714h-1.14v1.147H24v-1.147ZM22.86 12.574h-2.287v1.14h2.287v-1.14ZM21.712 10.286h-1.14v1.148h1.14v-1.148Z"/><path fill="#5B4594" d="M17.145 11.434V9.146h-1.14V8h-1.147v-2.28h1.147V4.57h4.568V5.72h1.14v4.567h1.147V3.431h-1.148V2.284h-1.14v-1.14h-4.567v1.14h-1.147V3.43h-1.14V6.86H10.29V3.43H9.142V2.284h-1.14v-1.14H3.427v1.14h-1.14V3.43h-1.14v6.855h1.14V5.72h1.14V4.57h4.575V5.72h1.14v2.28h-1.14v1.147h-1.14v2.288H3.427v1.14h3.435v4.567h1.14v-5.707h1.14v-1.148h5.716v1.148h1.147v5.707h1.14v-4.567h3.428v-1.14h-3.428ZM19.433 21.716h-1.148v1.14h1.148v-1.14ZM18.285 20.576h-1.14v1.14h1.14v-1.14ZM17.145 19.429h-2.287v1.147h2.287V19.43Z"/><path fill="#5B4594" d="M16.005 17.141h-1.147v1.148h1.147V17.14ZM14.857 12.574h-1.14v2.287h1.14v-2.287ZM14.857 18.289H9.143v1.14h5.716v-1.14ZM13.717 16.001H10.29v1.14h3.428v-1.14ZM10.29 12.574H9.142v2.287h1.148v-2.287ZM9.143 17.141h-1.14v1.148h1.14V17.14ZM9.142 19.429h-2.28v1.147h2.28V19.43ZM6.862 20.576H5.715v1.14h1.147v-1.14ZM5.715 21.716h-1.14v1.14h1.14v-1.14ZM3.428 10.286h-1.14v1.148h1.14v-1.148ZM3.427 12.574h-2.28v1.14h2.28v-1.14ZM1.147 13.714H0v1.147h1.147v-1.147Z"/></svg>