<svg xmlns="http://www.w3.org/2000/svg" viewBox="0 0 32 32"><g fill="#5b4594"><path d="M30.48 4.57H32v6.1h-1.52zM27.43 15.24h1.52v6.09h-1.52zM27.43 10.67h3.05v1.52h-3.05zM25.91 21.33h1.52v3.05h-1.52zM25.91 12.19h1.52v3.05h-1.52zM25.91 6.09h3.04v3.05h-3.04zM24.38 3.05h6.1v1.52h-6.1zM24.38 24.38h1.53v1.52h-1.53zM21.34 25.9h3.04v1.53h-3.04zM21.34 4.57h3.04v1.52h-3.04zM19.81 10.67h1.53v1.52h-1.53zM10.67 27.43h10.67v1.52H10.67zM18.29 18.28h1.52v1.53h-1.52zM12.19 13.71v1.53h1.53v1.52h1.52v1.52h1.52v-1.52h1.53v-1.52h1.52v-1.53h-7.62zM15.24 19.81h3.05v1.52h-3.05zM10.67 3.05h10.67v1.52H10.67zM10.67 10.67h1.52v1.52h-1.52zM7.62 25.9h3.05v1.53H7.62zM7.62 4.57h3.05v1.52H7.62zM6.1 24.38h1.52v1.52H6.1zM4.57 21.33H6.1v3.05H4.57zM4.57 12.19H6.1v3.05H4.57zM3.05 15.24h1.52v6.09H3.05zM1.53 10.67h3.04v1.52H1.53zM3.05 6.09H6.1v3.05H3.05zM1.53 3.05h6.09v1.52H1.53zM0 4.57h1.53v6.1H0z"/></g></svg>