<svg xmlns="http://www.w3.org/2000/svg" viewBox="0 0 32 32"><g fill="#5b4594"><path d="M30.47 19.81h-1.52v1.53h1.52v1.52H32v-6.09h-1.53v3.04zM28.95 22.86h1.52v3.05h-1.52zM28.95 13.72h1.52v3.05h-1.52zM27.43 25.91h1.52v1.52h-1.52zM25.9 18.29h3.05v1.52H25.9zM27.43 3.05h1.52v10.67h-1.52zM25.9 27.43h1.53v1.53H25.9zM25.9 3.05h1.53V0h-3.05v1.53h1.52v1.52zM19.81 16.77h6.09v1.52h-6.09zM21.33 28.96h4.57v1.52h-4.57zM25.9 9.15V4.58h-1.52V6.1h-1.52v1.52h-1.53v1.53h4.57zM22.86 1.53h1.52v1.52h-1.52zM21.33 13.72h1.53v1.52h-1.53zM21.33 3.05h1.53v1.53h-1.53zM19.81 4.58h1.52V6.1h-1.52zM10.66 30.48h10.67V32H10.66zM18.28 21.34h1.53v1.52h-1.53zM12.19 15.24v1.53h1.52v1.52h1.53v1.52h1.52v-1.52h1.52v-1.52h1.53v-1.53h-7.62zM15.24 22.86h3.04v1.52h-3.04zM12.19 6.1h7.62v1.52h-7.62zM10.66 4.58h1.53V6.1h-1.53zM6.09 28.96h4.57v1.52H6.09zM6.09 16.77h6.1v1.52h-6.1zM9.14 13.72h1.52v1.52H9.14zM9.14 3.05h1.52v1.53H9.14zM10.66 9.15V7.62H9.14V6.1H7.62V4.58H6.09v4.57h4.57zM7.62 1.53h1.52v1.52H7.62zM4.57 27.43h1.52v1.53H4.57zM6.09 1.53h1.53V0H4.57v3.05h1.52V1.53zM3.05 25.91h1.52v1.52H3.05zM3.05 18.29h3.04v1.52H3.05zM3.05 3.05h1.52v10.67H3.05zM1.52 22.86h1.53v3.05H1.52zM3.05 21.34v-1.53H1.52v-3.04H0v6.09h1.52v-1.52h1.53zM1.52 13.72h1.53v3.05H1.52z"/></g></svg>