<svg xmlns="http://www.w3.org/2000/svg" viewBox="0 0 32 32"><g fill="#5b4594"><path d="M30.48 12.955h-1.53v4.57h-3.04v1.53h3.04v1.52h-3.04v1.52h3.04v1.53h1.53v-1.53H32v-1.52h-1.52v-1.52H32v-1.53h-1.52v-4.57zM27.43 23.625h1.52v1.52h-1.52zM27.43 9.905h1.52v3.05h-1.52zM25.91 25.145h1.52v1.53h-1.52zM25.91 6.865h1.52v3.04h-1.52zM24.38 3.815h1.53v3.05h-1.53zM22.86 26.675h3.05v1.52h-3.05zM22.86 22.095h1.52v1.53h-1.52zM22.86 19.055h1.52v1.52h-1.52zM22.86 2.285h1.52v1.53h-1.52zM21.34 3.815h1.52v1.52h-1.52zM9.15 28.195h13.71v1.52H9.15zM19.81 8.385h1.53v3.05h-1.53zM19.81 5.335h1.53v1.53h-1.53zM18.29 14.475h1.52v1.53h-1.52zM16.76 22.095h1.53v1.53h-1.53zM12.19 17.525v1.53h1.53v1.52h3.04v-1.52h1.53v-1.53h-6.1zM13.72 23.625h3.04v1.52h-3.04z"/><path d="M15.24 8.385v3.05h1.52v-3.05h3.05v-1.52h-7.62v1.52h3.05zM10.67 14.475h1.52v1.53h-1.52zM10.67 8.385h1.52v3.05h-1.52zM10.67 5.335h1.52v1.53h-1.52zM9.15 3.815h1.52v1.52H9.15zM6.1 26.675h3.05v1.52H6.1zM7.62 22.095h1.53v1.53H7.62zM7.62 19.055h1.53v1.52H7.62zM7.62 2.285h1.53v1.53H7.62zM6.1 3.815h1.52v3.05H6.1zM4.57 25.145H6.1v1.53H4.57zM4.57 6.865H6.1v3.04H4.57zM3.05 23.625h1.52v1.52H3.05zM6.1 22.095v-1.52H3.05v-1.52H6.1v-1.53H3.05v-4.57H1.53v4.57H0v1.53h1.53v1.52H0v1.52h1.53v1.53h1.52v-1.53H6.1zM3.05 9.905h1.52v3.05H3.05z"/></g></svg>