<svg xmlns="http://www.w3.org/2000/svg" width="872" height="332" fill="none"><path fill="#e85554" d="M324.421 200.749c-1.449 2.252-6.204 2.397-7.821 2.954-11.708-4.116-14.628-12.179-14.725-20.993-.097-9.152-3.935-22.082 7.58-25.326 11.562-3.245 16.124 9.007 18.78 17.772 2.534 8.353 1.11 17.869-3.814 25.617m185.169 97.529c-4.659-16.901-18.49-28.886-23.897-45.06-17.743-53.171-49.654-102.226-45.72-161.886.797-12.01-9.076-21.792-22.98-20.557-14.218 1.26-15.4 12.736-14.966 24.02.266 6.73 2.004 13.486 1.762 20.168-.434 12.518 1.231 30.654-15.376 30.169-20.035-.605-9.173-18.232-8.956-29.152.218-11.864-3.186-21.791-14.7-26.488-10.621-4.335-21.411-4.431-30.246 4.6-6.952 7.118-10.79 18.765-25.008 13.535-13.494-4.988-14.797-15.932-15.642-27.53-1.304-17.554-2.342-35.108-3.718-52.663-1.279-16.343-7.7-28.522-26.456-27.384-12.166.75-17.452 9.055-14.604 20.484 12.263 49.248 10.959 99.199 8.328 149.223-.217 3.946.942 10.508-4.635 11.38-6.034.92-6.638-5.714-7.7-9.758-4.321-16.465-6.783-33.51-12.335-49.515-5.359-15.496-17.525-23.801-34.543-18.838-17.259 5.037-18.586 18.039-14.386 33.22 2.703 9.734 6.107 19.613 6.59 29.54.458 9.637 4.007 25.932-7.604 26.828-12.552.968-12.697-15.424-13.88-25.981-1.859-16.44.531-35.302-20.108-41.476-17.983-5.375-32.732 2.566-42.508 17.724-11.104 17.191-21.918 17.675-37.295 4.721-19.432-16.344-47.77-16.513-60.902-.363-15.98 19.661-5.697 37.917 8.183 53.413 10.742 11.986 13.47 24.528 10.404 39.636-3.114 15.4-1.69 30.412 5.769 44.649 10.814 20.653 27.929 16.755 44.946 11.404 20.47-6.416 27.519-22.3 27.808-42.348.29-19.443-8.93-39.757 2.994-58.038 7.097-10.896 17.018-21.743 26.287-.969 7.435 16.659 12.914 34.358 21.725 50.218 14.363 25.859 38.864 25.399 53.806 0 7.265-12.373 5.069-26.949 8.472-40.242.966-3.826 1.956-8.16 6.132-8.523 1.786-.169 4.827 3.559 5.793 6.078 3.476 9.079 7.121 18.208 9.245 27.651 9.076 40.023 57.595 57.626 91.39 33.679 17.597-12.469 21.532-31.646 28.291-49.684 2.969-8.62 2.896-22.47 14.748-21.186 22.691 2.445 33.626-7.797 39.419-27.675 1.111-3.802 3.356-8.814 7.942-7.748 2.969.702 6.469 4.939 7.242 8.208 7.652 31.573 20.518 61.016 35.677 89.563 1.931 3.631 3.041 8.087-.845 11.186-3.741 3.002-8.086 1.767-11.804-.509-11.031-6.707-10.235-18.982-13.276-29.37-5.6-19.152-22.98-26.9-38.357-16.876-18.539 12.082-27.011 39.83-15.425 58.595 22.449 36.343 60.227 46.924 98.873 53.195 20.494 3.317 31.598-13.026 26.022-33.292"/><g fill="#5c4594"><path d="M482.4 108.48c-3.552 0-6.368-.96-8.448-2.88-2.048-1.92-3.072-4.544-3.072-7.872V72.96h7.2v24.72c0 1.472.368 2.608 1.104 3.408.768.768 1.84 1.152 3.216 1.152 1.344 0 2.4-.384 3.168-1.152.768-.8 1.152-1.936 1.152-3.408V72.96h7.2v24.768c0 3.296-1.04 5.92-3.12 7.872-2.048 1.92-4.848 2.88-8.4 2.88zm44.123-.48V72.96h8.4l9.072 27.12c-.096-1.184-.208-2.544-.336-4.08-.128-1.568-.24-3.12-.336-4.656a100.173 100.173 0 0 1-.096-3.984v-14.4h6.336V108h-8.4l-8.976-27.12c.096 1.024.192 2.24.288 3.648s.176 2.832.24 4.272c.096 1.44.144 2.72.144 3.84V108zm62.314.48c-1.568 0-2.864-.48-3.888-1.44-.992-.992-1.728-2.336-2.208-4.032-.448-1.696-.672-3.616-.672-5.76 0-2.336.24-4.688.72-7.056.512-2.4 1.216-4.688 2.112-6.864s1.952-4.112 3.168-5.808 2.544-3.04 3.984-4.032c1.472-.992 3.008-1.488 4.608-1.488 1.248 0 2.224.288 2.928.864.736.576 1.264 1.28 1.584 2.112s.48 1.632.48 2.4h.384L603.189 72h1.584l-2.688 12.576h-2.4l.24-1.104c.544-2.496.704-4.448.48-5.856-.192-1.408-.656-2.4-1.392-2.976s-1.6-.864-2.592-.864c-1.728 0-3.328.736-4.8 2.208-1.44 1.472-2.448 3.584-3.024 6.336l-3.36 15.84c-.576 2.752-.528 4.864.144 6.336s1.888 2.208 3.648 2.208c.992 0 2-.304 3.024-.912s1.984-1.616 2.88-3.024 1.6-3.328 2.112-5.76l.24-1.104h2.4l-2.688 12.576h-1.584l1.248-5.76h-.384c-.32.832-.832 1.696-1.536 2.592-.672.896-1.504 1.648-2.496 2.256s-2.128.912-3.408.912zm45.216 0c-1.536 0-2.8-.48-3.792-1.44-.96-.992-1.68-2.32-2.16-3.984-.448-1.696-.672-3.6-.672-5.712 0-2.336.256-4.704.768-7.104s1.232-4.688 2.16-6.864 2-4.112 3.216-5.808c1.248-1.728 2.592-3.088 4.032-4.08 1.472-.992 2.976-1.488 4.512-1.488s2.784.496 3.744 1.488c.992.96 1.712 2.272 2.16 3.936.48 1.664.72 3.552.72 5.664 0 2.336-.256 4.704-.768 7.104s-1.232 4.688-2.16 6.864-2.016 4.128-3.264 5.856c-1.216 1.728-2.544 3.088-3.984 4.08s-2.944 1.488-4.512 1.488zm.48-1.776c1.888 0 3.488-.736 4.8-2.208 1.344-1.472 2.304-3.584 2.88-6.336l3.36-15.84c.576-2.752.528-4.864-.144-6.336-.64-1.472-1.904-2.208-3.792-2.208-1.856 0-3.456.736-4.8 2.208s-2.304 3.584-2.88 6.336l-3.36 15.84c-.576 2.752-.544 4.864.096 6.336.672 1.472 1.952 2.208 3.84 2.208zm52.848 1.776-6.144-28.608-5.664 26.496h4.032l-.336 1.632h-8.736l.336-1.632h3.072l6.864-32.256h-3.072l.336-1.632h4.896l5.808 27.072 5.424-25.44h-4.032l.336-1.632h8.736l-.336 1.632h-3.072l-7.296 34.368zm29.376-.48.336-1.632h4.032l6.864-32.256h-4.032l.336-1.632h20.208l-2.16 10.272h-1.344l.624-5.136c.16-1.408-.096-2.336-.768-2.784s-1.568-.672-2.688-.672h-6.816l-2.928 13.632h6.768l1.296-6.096h1.44l-2.928 13.824h-1.44l1.296-6.096h-6.768l-3.6 16.944h7.776l-.336 1.632zM471.6 171.48c-.576 0-1.136-.256-1.68-.768-.512-.544-.768-1.424-.768-2.64 0-1.504.304-2.88.912-4.128a14.162 14.162 0 0 1 2.304-3.456 22.552 22.552 0 0 1 2.832-2.736c.992-.8 1.84-1.456 2.544-1.968l4.992-3.6c.384-.256.928-.656 1.632-1.2s1.44-1.232 2.208-2.064 1.408-1.776 1.92-2.832c.544-1.088.816-2.288.816-3.6 0-1.76-.512-3.168-1.536-4.224s-2.432-1.584-4.224-1.584c-1.12 0-2.128.208-3.024.624s-1.632.944-2.208 1.584c-.576.608-1.008 1.2-1.296 1.776l1.536 1.824c.16.16.368.432.624.816.288.352.432.832.432 1.44 0 .768-.288 1.44-.864 2.016-.544.576-1.184.864-1.92.864-.576 0-1.104-.24-1.584-.72s-.72-1.312-.72-2.496c0-1.632.496-3.152 1.488-4.56.992-1.44 2.288-2.608 3.888-3.504a10.798 10.798 0 0 1 5.28-1.344c2.336 0 4.176.688 5.52 2.064 1.376 1.344 2.064 3.056 2.064 5.136 0 1.6-.368 3.04-1.104 4.32s-1.648 2.4-2.736 3.36c-1.056.96-2.096 1.776-3.12 2.448s-1.824 1.184-2.4 1.536l-5.04 3.216a35.003 35.003 0 0 0-3.024 2.256 17.276 17.276 0 0 0-2.88 3.024 9.455 9.455 0 0 0-1.68 3.696c.512-.64 1.264-1.296 2.256-1.968.992-.704 2.064-1.056 3.216-1.056 1.056 0 1.936.288 2.64.864a9.688 9.688 0 0 1 1.872 1.92 20.03 20.03 0 0 0 1.68 1.92c.608.544 1.312.816 2.112.816s1.44-.272 1.92-.816c.512-.544.896-1.2 1.152-1.968.288-.768.496-1.488.624-2.16l.96-4.56 1.152.144-.912 4.464c-.128.704-.32 1.504-.576 2.4s-.608 1.76-1.056 2.592c-.448.8-1.04 1.472-1.776 2.016s-1.664.816-2.784.816c-1.056 0-1.904-.24-2.544-.72-.608-.48-1.104-1.072-1.488-1.776s-.752-1.408-1.104-2.112c-.32-.704-.704-1.296-1.152-1.776-.416-.48-1.008-.72-1.776-.72-.8 0-1.568.256-2.304.768-.704.512-1.232 1.024-1.584 1.536l1.104.96c.16.128.368.368.624.72.288.352.432.8.432 1.344 0 .48-.144.896-.432 1.248s-.768.528-1.44.528zm52.272 0c-1.632 0-2.96-.512-3.984-1.536-.992-1.024-1.728-2.4-2.208-4.128-.448-1.76-.64-3.712-.576-5.856.064-2.176.336-4.416.816-6.72s1.152-4.528 2.016-6.672c.896-2.176 1.936-4.128 3.12-5.856 1.184-1.76 2.496-3.152 3.936-4.176 1.472-1.024 3.024-1.536 4.656-1.536s2.944.512 3.936 1.536c1.024 1.024 1.76 2.416 2.208 4.176.448 1.728.64 3.68.576 5.856-.032 2.144-.304 4.368-.816 6.672a40.63 40.63 0 0 1-2.016 6.72c-.864 2.144-1.888 4.096-3.072 5.856-1.184 1.728-2.512 3.104-3.984 4.128-1.44 1.024-2.976 1.536-4.608 1.536zm.384-1.776c2.176 0 3.936-.8 5.28-2.4s2.32-3.808 2.928-6.624l3.168-14.88c.608-2.848.576-5.056-.096-6.624-.672-1.6-2.096-2.4-4.272-2.4-2.304 0-4.112.832-5.424 2.496-1.28 1.664-2.208 3.84-2.784 6.528l-3.168 14.88c-.608 2.816-.592 5.024.048 6.624.672 1.6 2.112 2.4 4.32 2.4zM563.52 171v-6.768l11.136-10.752c1.312-1.28 2.288-2.464 2.928-3.552a6.633 6.633 0 0 0 1.008-3.552c0-1.408-.384-2.496-1.152-3.264-.736-.768-1.76-1.152-3.072-1.152-1.44 0-2.576.432-3.408 1.296-.8.832-1.2 2-1.2 3.504h-7.2c0-2.304.48-4.288 1.44-5.952.992-1.696 2.384-3.008 4.176-3.936s3.904-1.392 6.336-1.392c2.272 0 4.24.432 5.904 1.296 1.696.832 3.008 2 3.936 3.504.96 1.504 1.44 3.28 1.44 5.328 0 2.272-.56 4.448-1.68 6.528s-2.912 4.256-5.376 6.528l-6.336 5.856h13.776V171zm66.491.48c-2.4 0-4.48-.4-6.24-1.2-1.728-.832-3.072-2-4.032-3.504-.96-1.536-1.44-3.328-1.44-5.376h7.2c0 1.28.384 2.288 1.152 3.024.8.704 1.92 1.056 3.36 1.056 1.472 0 2.592-.352 3.36-1.056s1.152-1.712 1.152-3.024v-2.88c0-1.312-.4-2.32-1.2-3.024-.768-.736-1.872-1.104-3.312-1.104h-4.128V148.2l7.056-6.24h-12.96v-6h20.304v6.192l-10.272 9.072v-2.928c3.616 0 6.464.912 8.544 2.736 2.112 1.824 3.168 4.304 3.168 7.44v2.928c0 2.048-.48 3.84-1.44 5.376-.928 1.504-2.272 2.672-4.032 3.504-1.76.8-3.84 1.2-6.24 1.2zM480.96 234.528c-3.68 0-6.608-.992-8.784-2.976-2.144-2.016-3.216-4.72-3.216-8.112h7.2c0 1.472.432 2.656 1.296 3.552.864.864 2.032 1.296 3.504 1.296s2.64-.416 3.504-1.248c.864-.864 1.296-2.032 1.296-3.504V205.68h-7.92v-6.72h15.12v24.576c0 3.392-1.072 6.08-3.216 8.064-2.144 1.952-5.072 2.928-8.784 2.928zm29.261-.048c-3.552 0-6.336-.96-8.352-2.88-1.984-1.92-2.976-4.544-2.976-7.872V207.6h7.2v16.08c0 1.472.352 2.608 1.056 3.408.704.768 1.728 1.152 3.072 1.152 1.312 0 2.32-.384 3.024-1.152.736-.8 1.104-1.936 1.104-3.408V207.6h7.2v16.128c0 3.36-1.008 6-3.024 7.92-2.016 1.888-4.784 2.832-8.304 2.832zm16.59-.48v-26.4h6.96v5.04h2.112l-2.112 1.68c0-2.24.64-4 1.92-5.28s3.008-1.92 5.184-1.92c2.56 0 4.608.896 6.144 2.688 1.568 1.792 2.352 4.176 2.352 7.152V234h-7.2v-16.32c0-1.376-.368-2.432-1.104-3.168-.704-.768-1.712-1.152-3.024-1.152-1.28 0-2.272.384-2.976 1.152-.704.736-1.056 1.792-1.056 3.168V234zm39.101.48c-2.336 0-4.384-.432-6.144-1.296-1.728-.896-3.072-2.128-4.032-3.696-.928-1.6-1.392-3.456-1.392-5.568v-6.24c0-2.112.464-3.952 1.392-5.52.96-1.6 2.304-2.832 4.032-3.696 1.76-.896 3.808-1.344 6.144-1.344s4.352.448 6.048 1.344c1.728.864 3.056 2.096 3.984 3.696.96 1.568 1.44 3.408 1.44 5.52v4.8h-16.176v1.44c0 1.664.4 2.928 1.2 3.792.8.832 2 1.248 3.6 1.248 1.12 0 2.016-.192 2.688-.576.704-.384 1.168-.912 1.392-1.584h7.056c-.576 2.304-1.888 4.16-3.936 5.568-2.016 1.408-4.448 2.112-7.296 2.112zm4.608-15.696v-1.2c0-1.632-.384-2.88-1.152-3.744-.736-.864-1.888-1.296-3.456-1.296s-2.752.448-3.552 1.344c-.768.896-1.152 2.16-1.152 3.792v.72l9.792-.096zM606.482 234l.336-1.632h9.552l6.144-28.848h-9.216l.288-1.296 4.8-.384c1.504-.128 2.864-.48 4.08-1.056s2.32-1.504 3.312-2.784h1.152l-7.296 34.368h9.072L628.37 234zm33.456.48c-1.632 0-2.96-.512-3.984-1.536-.992-1.024-1.728-2.4-2.208-4.128-.448-1.76-.64-3.712-.576-5.856.064-2.176.336-4.416.816-6.72s1.152-4.528 2.016-6.672c.896-2.176 1.936-4.128 3.12-5.856 1.184-1.76 2.496-3.152 3.936-4.176 1.472-1.024 3.024-1.536 4.656-1.536s2.944.512 3.936 1.536c1.024 1.024 1.76 2.416 2.208 4.176.448 1.728.64 3.68.576 5.856-.032 2.144-.304 4.368-.816 6.672a40.63 40.63 0 0 1-2.016 6.72c-.864 2.144-1.888 4.096-3.072 5.856-1.184 1.728-2.512 3.104-3.984 4.128-1.44 1.024-2.976 1.536-4.608 1.536zm.384-1.776c2.176 0 3.936-.8 5.28-2.4s2.32-3.808 2.928-6.624l3.168-14.88c.608-2.848.576-5.056-.096-6.624-.672-1.6-2.096-2.4-4.272-2.4-2.304 0-4.112.832-5.424 2.496-1.28 1.664-2.208 3.84-2.784 6.528l-3.168 14.88c-.608 2.816-.592 5.024.048 6.624.672 1.6 2.112 2.4 4.32 2.4zm17.088-12.672.336-1.632h15.264l-.336 1.632zM675.602 234l.336-1.632h9.552l6.144-28.848h-9.216l.288-1.296 4.8-.384c1.504-.128 2.864-.48 4.08-1.056s2.32-1.504 3.312-2.784h1.152l-7.296 34.368h9.072L697.49 234zm23.04 0 .336-1.632h9.552l6.144-28.848h-9.216l.288-1.296 4.8-.384c1.504-.128 2.864-.48 4.08-1.056s2.32-1.504 3.312-2.784h1.152l-7.296 34.368h9.072L720.53 234zm-233.09 63 .336-1.632h3.168l6.864-32.256h-3.168l.336-1.632h9.504l-.336 1.632h-3.168l-2.976 13.92h10.224l2.976-13.92h-3.168l.336-1.632h9.504l-.336 1.632h-3.168l-6.864 32.256h3.168l-.336 1.632h-9.504l.336-1.632h3.168L486 278.664h-10.224l-3.552 16.704h3.168l-.336 1.632zm31.488.48c-1.28 0-2.352-.592-3.216-1.776-.832-1.216-1.184-3.088-1.056-5.616.064-1.376.304-2.912.72-4.608a33.4 33.4 0 0 1 1.824-5.184 29.395 29.395 0 0 1 2.784-4.8c1.088-1.472 2.288-2.656 3.6-3.552 1.344-.896 2.8-1.344 4.368-1.344.8 0 1.472.112 2.016.336.576.192.976.4 1.2.624l2.304-.96h1.152l-4.752 22.368c-.064.352-.08.784-.048 1.296.032.48.352.72.96.72.64 0 1.184-.272 1.632-.816.48-.544 1.072-1.296 1.776-2.256l1.296-1.728.816.576-1.152 1.584a52.206 52.206 0 0 1-2.88 3.648c-.896.992-1.952 1.488-3.168 1.488-.544 0-1.072-.16-1.584-.48-.48-.288-.8-.8-.96-1.536-.16-.768-.032-1.808.384-3.12l3.168-10.08h-.72l-.864 2.592a58.694 58.694 0 0 1-1.68 4.416 26.086 26.086 0 0 1-2.208 4.08c-.8 1.248-1.68 2.256-2.64 3.024-.928.736-1.952 1.104-3.072 1.104zm.96-1.92c.8 0 1.584-.384 2.352-1.152.8-.768 1.552-1.792 2.256-3.072a37.093 37.093 0 0 0 2.064-4.224 64.968 64.968 0 0 0 1.728-4.752c.544-1.632 1.008-3.168 1.392-4.608s.672-2.656.864-3.648c-.224-.416-.656-.832-1.296-1.248-.608-.448-1.36-.672-2.256-.672-1.376 0-2.576.592-3.6 1.776-.992 1.152-1.76 2.736-2.304 4.752l-3.168 11.376c-.416 1.504-.448 2.8-.096 3.888.384 1.056 1.072 1.584 2.064 1.584zm32.592 1.92c-.8 0-1.36-.336-1.68-1.008s-.272-1.728.144-3.168l5.328-17.616c.096-.256.176-.576.24-.96.096-.416.112-.784.048-1.104-.032-.32-.24-.48-.624-.48-.512 0-1.024.32-1.536.96s-1.008 1.472-1.488 2.496a47.833 47.833 0 0 0-1.296 3.312l-1.104 3.408-4.272 13.68H522l5.328-21.408a5.6 5.6 0 0 0 .192-1.536c.032-.608-.192-.912-.672-.912-.384 0-.816.304-1.296.912-.48.576-1.008 1.584-1.584 3.024-.544 1.44-1.136 3.424-1.776 5.952L518.64 297h-2.592l4.656-21.888c.096-.448.144-.896.144-1.344s-.208-.672-.624-.672c-.256 0-.56.192-.912.576-.352.352-1.008 1.184-1.968 2.496l-1.248 1.68-.816-.624 1.104-1.488c1.312-1.792 2.32-3.088 3.024-3.888.704-.832 1.408-1.248 2.112-1.248.608 0 1.088.336 1.44 1.008.384.64.384 1.696 0 3.168l-2.112 8.16h.528l.288-1.104c.256-.96.56-2.064.912-3.312.384-1.28.832-2.528 1.344-3.744.544-1.216 1.152-2.208 1.824-2.976.672-.8 1.44-1.2 2.304-1.2.736 0 1.328.352 1.776 1.056s.416 1.904-.096 3.6l-2.352 7.68h.528l.336-1.056c.608-1.888 1.232-3.68 1.872-5.376.64-1.728 1.376-3.136 2.208-4.224.832-1.12 1.808-1.68 2.928-1.68 1.024 0 1.696.512 2.016 1.536s.208 2.432-.336 4.224l-5.04 16.608a17.65 17.65 0 0 1-.192.672c-.064.32-.08.624-.048.912.064.288.24.432.528.432.384 0 .816-.272 1.296-.816s1.072-1.296 1.776-2.256l2.304-3.072.816.576-2.16 2.928c-1.12 1.536-2.112 2.784-2.976 3.744-.864.928-1.744 1.392-2.64 1.392zm16.56 0c-1.568 0-2.88-.304-3.936-.912-1.056-.64-1.792-1.264-2.208-1.872l6.528-30.72h-5.856l.24-1.152 6-.624 2.352-1.2h1.152l-2.112 10.08-3.6 9.984h.72c.352-.96.768-2.032 1.248-3.216a19.575 19.575 0 0 1 1.776-3.456c.704-1.12 1.536-2.032 2.496-2.736.992-.704 2.128-1.056 3.408-1.056 1.696 0 2.944.672 3.744 2.016.832 1.312 1.248 3.12 1.248 5.424 0 1.536-.192 3.2-.576 4.992a25.611 25.611 0 0 1-1.632 5.184c-.704 1.696-1.584 3.248-2.64 4.656s-2.288 2.528-3.696 3.36c-1.376.832-2.928 1.248-4.656 1.248zm.768-1.536c1.6 0 3.024-.64 4.272-1.92s2.144-3.2 2.688-5.76l2.256-10.464c.384-1.792.288-3.152-.288-4.08s-1.376-1.392-2.4-1.392c-1.152 0-2.24.544-3.264 1.632-1.024 1.056-1.952 2.528-2.784 4.416-.8 1.888-1.472 4.096-2.016 6.624l-1.44 6.624c-.256 1.184-.176 2.208.24 3.072.416.832 1.328 1.248 2.736 1.248zm18.288 1.536c-1.6 0-2.704-.688-3.312-2.064-.576-1.376-.48-3.2.288-5.472l4.944-14.832c.128-.384.192-.816.192-1.296.032-.48-.272-.72-.912-.72-.608 0-1.136.272-1.584.816s-1.04 1.296-1.776 2.256l-1.248 1.68-.816-.624 1.104-1.488c1.024-1.408 1.968-2.608 2.832-3.6.896-1.024 1.904-1.536 3.024-1.536.896 0 1.632.336 2.208 1.008.608.672.672 1.728.192 3.168l-5.184 15.696c-.448 1.376-.544 2.464-.288 3.264.288.8.928 1.2 1.92 1.2 1.312 0 2.576-.768 3.792-2.304 1.216-1.568 2.416-4.096 3.6-7.584s2.384-8.144 3.6-13.968h3.312l-4.656 21.888a9.71 9.71 0 0 0-.192 1.344c0 .448.256.672.768.672s1.008-.272 1.488-.816 1.072-1.296 1.776-2.256l1.248-1.68.816.624-1.104 1.488c-1.024 1.376-1.968 2.576-2.832 3.6s-1.856 1.536-2.976 1.536c-.864 0-1.584-.336-2.16-1.008s-.624-1.728-.144-3.168l2.688-8.16h-.72a55.787 55.787 0 0 1-1.536 4.032 26.585 26.585 0 0 1-2.064 4.032c-.8 1.248-1.728 2.272-2.784 3.072a5.538 5.538 0 0 1-3.504 1.2zm20.544-.48 4.656-21.888a2.418 2.418 0 0 0-.096-1.344c-.128-.448-.512-.672-1.152-.672-.608 0-1.168.272-1.68.816s-1.136 1.296-1.872 2.256l-1.248 1.68-.816-.624 1.104-1.488c.704-.928 1.36-1.776 1.968-2.544.608-.8 1.248-1.424 1.92-1.872.704-.48 1.52-.72 2.448-.72 1.312 0 2.176.464 2.592 1.392s.384 2.096-.096 3.504l-2.688 7.68h.72c1.696-4.16 3.44-7.296 5.232-9.408s3.776-3.168 5.952-3.168c1.216 0 2.16.304 2.832.912.704.576 1.056 1.296 1.056 2.16 0 .736-.256 1.392-.768 1.968-.48.544-1.168.816-2.064.816s-1.568-.272-2.016-.816c-.416-.576-.56-1.344-.432-2.304l.144-1.104c-1.088 0-2.288.688-3.6 2.064-1.28 1.376-2.528 3.28-3.744 5.712s-2.288 5.248-3.216 8.448L589.44 297zm27.312 10.224c-1.696 0-3.28-.224-4.752-.672-1.472-.416-2.656-1.072-3.552-1.968s-1.344-2.032-1.344-3.408c0-1.056.288-2 .864-2.832a7.642 7.642 0 0 1 2.112-2.064c.896-.608 1.856-1.088 2.88-1.44s2.016-.592 2.976-.72v-.336c-.576-.32-1.088-.736-1.536-1.248s-.672-1.168-.672-1.968c0-1.056.352-1.92 1.056-2.592.736-.704 1.456-1.248 2.16-1.632v-.24c-1.152-.48-2-1.232-2.544-2.256-.544-1.056-.816-2.224-.816-3.504 0-1.76.448-3.376 1.344-4.848s2.08-2.656 3.552-3.552a9.396 9.396 0 0 1 4.896-1.344c.544 0 1.024.048 1.44.144a5.11 5.11 0 0 1 1.248.336h8.304l-.288 1.488h-5.952c.48.576.832 1.232 1.056 1.968s.336 1.52.336 2.352c0 1.76-.448 3.376-1.344 4.848s-2.08 2.656-3.552 3.552-3.104 1.344-4.896 1.344h-.672l-.576-.096c-.416.16-.896.416-1.44.768-.512.352-.768.88-.768 1.584 0 .768.304 1.312.912 1.632s1.2.608 1.776.864l3.504 1.392c.544.224 1.184.496 1.92.816a9.663 9.663 0 0 1 2.16 1.2 5.713 5.713 0 0 1 1.728 1.872c.48.736.72 1.648.72 2.736 0 1.696-.592 3.12-1.776 4.272-1.184 1.184-2.704 2.064-4.56 2.64-1.856.608-3.824.912-5.904.912zm3.168-21.936c1.632 0 2.944-.544 3.936-1.632s1.648-2.432 1.968-4.032l.432-2.016c.352-1.728.288-3.104-.192-4.128s-1.472-1.536-2.976-1.536c-1.6 0-2.896.544-3.888 1.632-.96 1.088-1.616 2.432-1.968 4.032l-.432 2.016c-.352 1.728-.304 3.104.144 4.128.48 1.024 1.472 1.536 2.976 1.536zm-2.064 20.208c1.472 0 2.832-.192 4.08-.576 1.248-.352 2.256-.896 3.024-1.632.8-.704 1.2-1.584 1.2-2.64 0-.992-.288-1.792-.864-2.4-.544-.608-1.2-1.088-1.968-1.44s-1.44-.64-2.016-.864l-3.696-1.44-1.2.336c-.992.256-2 .608-3.024 1.056-.992.416-1.824.976-2.496 1.68-.672.736-1.008 1.664-1.008 2.784 0 1.632.736 2.896 2.208 3.792 1.504.896 3.424 1.344 5.76 1.344zm22.848-3.648-.432-.864c.512-.288 1.04-.64 1.584-1.056a8.3 8.3 0 0 0 1.488-1.248c.448-.448.704-.848.768-1.2-.672 0-1.248-.208-1.728-.624s-.72-.976-.72-1.68c0-.832.304-1.536.912-2.112s1.312-.864 2.112-.864c.64 0 1.2.224 1.68.672s.72 1.088.72 1.92c0 .96-.352 1.888-1.056 2.784a11.536 11.536 0 0 1-2.496 2.496c-.96.736-1.904 1.328-2.832 1.776zm28.896-4.368c-2.336 0-4.384-.432-6.144-1.296-1.76-.896-3.136-2.128-4.128-3.696-.96-1.6-1.44-3.456-1.44-5.568v-14.88c0-2.144.48-4 1.44-5.568.992-1.568 2.368-2.784 4.128-3.648 1.76-.896 3.808-1.344 6.144-1.344 2.368 0 4.416.448 6.144 1.344 1.76.864 3.12 2.08 4.08 3.648.992 1.568 1.488 3.424 1.488 5.568h-7.2c0-1.408-.4-2.48-1.2-3.216-.768-.736-1.872-1.104-3.312-1.104s-2.56.368-3.36 1.104c-.768.736-1.152 1.808-1.152 3.216v14.88c0 1.376.384 2.448 1.152 3.216.8.736 1.92 1.104 3.36 1.104s2.544-.368 3.312-1.104c.8-.768 1.2-1.84 1.2-3.216v-3.024h-5.184V277.8h12.384v9.12c0 2.112-.496 3.968-1.488 5.568-.96 1.568-2.32 2.8-4.08 3.696-1.728.864-3.776 1.296-6.144 1.296zm27.677 0c-2.336 0-4.384-.432-6.144-1.296-1.728-.896-3.072-2.128-4.032-3.696-.928-1.6-1.392-3.456-1.392-5.568v-6.24c0-2.112.464-3.952 1.392-5.52.96-1.6 2.304-2.832 4.032-3.696 1.76-.896 3.808-1.344 6.144-1.344s4.352.448 6.048 1.344c1.728.864 3.056 2.096 3.984 3.696.96 1.568 1.44 3.408 1.44 5.52v4.8h-16.176v1.44c0 1.664.4 2.928 1.2 3.792.8.832 2 1.248 3.6 1.248 1.12 0 2.016-.192 2.688-.576.704-.384 1.168-.912 1.392-1.584h7.056c-.576 2.304-1.888 4.16-3.936 5.568-2.016 1.408-4.448 2.112-7.296 2.112zm4.608-15.696v-1.2c0-1.632-.384-2.88-1.152-3.744-.736-.864-1.888-1.296-3.456-1.296s-2.752.448-3.552 1.344c-.768.896-1.152 2.16-1.152 3.792v.72l9.792-.096zM711.898 297v-26.4h6.72v5.04h1.824l-2.064 3.072c0-2.848.656-4.992 1.968-6.432s3.232-2.16 5.76-2.16c2.912 0 5.168.88 6.768 2.64 1.632 1.76 2.448 4.24 2.448 7.44v2.16h-7.68v-1.68c0-1.44-.4-2.56-1.2-3.36-.768-.8-1.808-1.2-3.12-1.2-1.376 0-2.432.4-3.168 1.2-.704.8-1.056 1.92-1.056 3.36V297zm25.902 0v-26.4h5.664v3.84h1.152l-.912.672c0-1.504.432-2.704 1.296-3.6.864-.928 1.936-1.392 3.216-1.392 1.376 0 2.448.592 3.216 1.776s1.152 2.752 1.152 4.704l-.864-2.16h1.344l-.432.672c0-1.504.416-2.704 1.248-3.6.832-.928 1.952-1.392 3.36-1.392 1.6 0 2.896.608 3.888 1.824.992 1.184 1.488 2.816 1.488 4.896V297h-6.192v-19.68c0-.736-.16-1.296-.48-1.68-.32-.416-.784-.624-1.392-.624s-1.072.208-1.392.624c-.32.384-.48.944-.48 1.68V297h-4.944v-19.68c0-.736-.16-1.296-.48-1.68-.32-.416-.784-.624-1.392-.624s-1.072.208-1.392.624c-.32.384-.48.944-.48 1.68V297zm36.797.48c-2.656 0-4.768-.72-6.336-2.16-1.536-1.44-2.304-3.392-2.304-5.856 0-2.656.912-4.688 2.736-6.096 1.856-1.44 4.512-2.16 7.968-2.16h5.472v-1.968c0-1.024-.368-1.84-1.104-2.448-.704-.608-1.664-.912-2.88-.912-1.12 0-2.048.256-2.784.768s-1.184 1.216-1.344 2.112h-6.96c.288-2.656 1.44-4.752 3.456-6.288 2.048-1.568 4.672-2.352 7.872-2.352 3.36 0 6.016.832 7.968 2.496 1.984 1.632 2.976 3.84 2.976 6.624V297h-6.96v-4.32h-1.152l1.2-1.68c0 1.984-.72 3.568-2.16 4.752-1.408 1.152-3.296 1.728-5.664 1.728zm2.688-5.28c1.408 0 2.56-.368 3.456-1.104.928-.768 1.392-1.76 1.392-2.976v-2.832h-5.328c-1.088 0-1.968.32-2.64.96-.672.608-1.008 1.424-1.008 2.448 0 1.088.368 1.952 1.104 2.592.736.608 1.744.912 3.024.912zm17.309 4.8v-26.4h6.96v5.04h2.112l-2.112 1.68c0-2.24.64-4 1.92-5.28s3.008-1.92 5.184-1.92c2.56 0 4.608.896 6.144 2.688 1.568 1.792 2.352 4.176 2.352 7.152V297h-7.2v-16.32c0-1.376-.368-2.432-1.104-3.168-.704-.768-1.712-1.152-3.024-1.152-1.28 0-2.272.384-2.976 1.152-.704.736-1.056 1.792-1.056 3.168V297zm32.189 8.64 3.6-9.936-9.888-25.104h7.824l3.984 11.52c.288.864.576 1.92.864 3.168.32 1.216.56 2.208.72 2.976.16-.768.384-1.76.672-2.976.32-1.248.624-2.304.912-3.168l3.84-11.52h7.488l-12.48 35.04zM468 116.64h111.304v2.4H468zm92.16 63h84.443v2.4H560.16zM579.285 114h162.24v2.4h-162.24zM468 177h92.16v2.4H468zM468 242.64h27.84v2.4H468z"/><path d="M495.821 242.64h111.304v2.4H495.821zM607.106 240h116.16v2.4h-116.16zM468 303h184.32v2.4H468zM652.32 305.64h195.727v2.4H652.32z"/></g></svg>