<svg width="1653" height="510" viewBox="0 0 1653 510" fill="none" xmlns="http://www.w3.org/2000/svg">
<path d="M498.376 308.379C496.151 311.838 488.846 312.061 486.362 312.917C468.377 306.594 463.89 294.208 463.741 280.67C463.593 266.61 457.697 246.748 475.385 241.764C493.148 236.78 500.156 255.601 504.235 269.065C508.129 281.897 505.941 296.514 498.376 308.416M782.834 458.235C775.677 432.273 754.429 413.862 746.123 389.016C718.867 307.338 669.844 231.982 675.889 140.336C677.113 121.887 661.946 106.861 640.587 108.758C618.745 110.692 616.928 128.322 617.596 145.654C618.003 155.994 620.673 166.372 620.303 176.637C619.635 195.867 622.194 223.725 596.681 222.981C565.903 222.051 582.59 194.974 582.924 178.199C583.257 159.974 578.029 144.724 560.341 137.509C544.024 130.851 527.449 130.702 513.877 144.576C503.197 155.511 497.301 173.401 475.459 165.367C454.73 157.705 452.728 140.893 451.43 123.077C449.428 96.1116 447.833 69.1457 445.719 42.1799C443.754 17.0737 433.89 -1.63497 405.077 0.113161C386.388 1.26618 378.267 14.0238 382.643 31.5795C401.48 107.233 399.478 183.964 395.436 260.808C395.102 266.87 396.882 276.95 388.316 278.289C379.046 279.702 378.119 269.511 376.487 263.3C369.849 238.008 366.067 211.823 357.538 187.238C349.306 163.433 330.616 150.676 304.473 158.3C277.959 166.037 275.92 186.01 282.372 209.331C286.525 224.283 291.754 239.458 292.496 254.708C293.2 269.511 298.651 294.543 280.815 295.919C261.532 297.407 261.309 272.226 259.492 256.01C256.637 230.755 260.308 201.78 228.603 192.296C200.977 184.039 178.319 196.239 163.301 219.522C146.243 245.93 129.63 246.674 106.009 226.775C76.1579 201.669 32.6233 201.409 12.4506 226.217C-12.0979 256.419 3.69916 284.463 25.0214 308.268C41.523 326.679 45.7133 345.945 41.0039 369.155C36.2203 392.81 38.4081 415.871 49.8665 437.741C66.4794 469.468 92.7707 463.479 118.914 455.259C150.359 445.403 161.187 421.004 161.632 390.207C162.077 360.34 147.912 329.134 166.231 301.052C177.133 284.315 192.374 267.652 206.613 299.564C218.034 325.154 226.452 352.343 239.987 376.705C262.051 416.429 299.69 415.722 322.643 376.705C333.805 357.699 330.431 335.308 335.659 314.888C337.143 309.012 338.663 302.354 345.078 301.796C347.822 301.536 352.495 307.263 353.978 311.132C359.318 325.08 364.917 339.102 368.18 353.608C382.123 415.09 456.659 442.13 508.574 405.345C535.607 386.19 541.651 356.732 552.034 329.022C556.595 315.781 556.484 294.506 574.691 296.477C609.549 300.234 626.347 284.501 635.247 253.964C636.952 248.125 640.401 240.425 647.447 242.062C652.008 243.141 657.385 249.65 658.571 254.671C670.326 303.172 690.091 348.4 713.379 392.252C716.346 397.831 718.051 404.675 712.081 409.436C706.333 414.048 699.659 412.151 693.948 408.655C677.001 398.352 678.225 379.495 673.553 363.538C664.95 334.118 638.25 322.216 614.629 337.614C586.15 356.174 573.134 398.799 590.933 427.624C625.42 483.453 683.454 499.707 742.822 509.34C774.305 514.435 791.363 489.329 782.797 458.198" fill="#E85554"/>
<path d="M737.972 138.18C729.555 138.18 723.34 135.899 719.328 131.336C715.395 126.695 714.057 120.401 715.316 112.456L724.992 50.86H739.86L730.066 112.338C729.358 116.429 729.83 119.615 731.482 121.896C733.213 124.177 736.084 125.318 740.096 125.318C743.951 125.318 747.097 124.177 749.536 121.896C751.975 119.615 753.548 116.429 754.256 112.338L763.932 50.86H778.8L769.006 112.456C768.141 117.727 766.331 122.329 763.578 126.262C760.825 130.117 757.285 133.067 752.958 135.112C748.631 137.157 743.636 138.18 737.972 138.18ZM848.092 137L861.78 50.86H879.598L892.696 120.48C892.932 117.963 893.168 115.013 893.404 111.63C893.718 108.169 894.072 104.668 894.466 101.128C894.859 97.5093 895.252 94.3627 895.646 91.688L902.136 50.86H915.588L901.9 137H884.082L871.102 67.38C870.944 69.6613 870.708 72.4147 870.394 75.64C870.158 78.8653 869.843 82.1693 869.45 85.552C869.135 88.9347 868.742 92.042 868.27 94.874L861.544 137H848.092ZM1005.06 138.18C1001.2 138.18 998.017 137 995.5 134.64C993.061 132.201 991.252 128.897 990.072 124.728C988.97 120.559 988.42 115.839 988.42 110.568C988.42 104.825 989.01 99.0433 990.19 93.222C991.448 87.322 993.179 81.6973 995.382 76.348C997.584 70.9987 1000.18 66.2393 1003.17 62.07C1006.16 57.9007 1009.42 54.5967 1012.96 52.158C1016.58 49.7193 1020.36 48.5 1024.29 48.5C1027.36 48.5 1029.76 49.208 1031.49 50.624C1033.3 52.04 1034.6 53.7707 1035.38 55.816C1036.17 57.8613 1036.56 59.828 1036.56 61.716H1037.51L1040.34 48.5H1044.23L1037.63 79.416H1031.73L1032.32 76.702C1033.65 70.566 1034.05 65.7673 1033.5 62.306C1033.02 58.8447 1031.88 56.406 1030.07 54.99C1028.26 53.574 1026.14 52.866 1023.7 52.866C1019.45 52.866 1015.52 54.6753 1011.9 58.294C1008.36 61.9127 1005.88 67.1047 1004.47 73.87L996.208 112.81C994.792 119.575 994.91 124.767 996.562 128.386C998.214 132.005 1001.2 133.814 1005.53 133.814C1007.97 133.814 1010.45 133.067 1012.96 131.572C1015.48 130.077 1017.84 127.599 1020.04 124.138C1022.25 120.677 1023.98 115.957 1025.24 109.978L1025.83 107.264H1031.73L1025.12 138.18H1021.22L1024.29 124.02H1023.35C1022.56 126.065 1021.3 128.189 1019.57 130.392C1017.92 132.595 1015.87 134.443 1013.44 135.938C1011 137.433 1008.2 138.18 1005.06 138.18ZM1116.21 138.18C1112.44 138.18 1109.33 137 1106.89 134.64C1104.53 132.201 1102.76 128.937 1101.58 124.846C1100.48 120.677 1099.93 115.996 1099.93 110.804C1099.93 105.061 1100.56 99.24 1101.82 93.34C1103.08 87.44 1104.85 81.8153 1107.13 76.466C1109.41 71.1167 1112.04 66.3573 1115.03 62.188C1118.1 57.94 1121.41 54.5967 1124.95 52.158C1128.56 49.7193 1132.26 48.5 1136.04 48.5C1139.81 48.5 1142.88 49.7193 1145.24 52.158C1147.68 54.518 1149.45 57.7433 1150.55 61.834C1151.73 65.9247 1152.32 70.566 1152.32 75.758C1152.32 81.5007 1151.69 87.322 1150.43 93.222C1149.17 99.122 1147.4 104.747 1145.12 110.096C1142.84 115.445 1140.17 120.244 1137.1 124.492C1134.11 128.74 1130.85 132.083 1127.31 134.522C1123.77 136.961 1120.07 138.18 1116.21 138.18ZM1117.39 133.814C1122.03 133.814 1125.97 132.005 1129.19 128.386C1132.5 124.767 1134.86 119.575 1136.27 112.81L1144.53 73.87C1145.95 67.1047 1145.83 61.9127 1144.18 58.294C1142.61 54.6753 1139.5 52.866 1134.86 52.866C1130.29 52.866 1126.36 54.6753 1123.06 58.294C1119.75 61.9127 1117.39 67.1047 1115.98 73.87L1107.72 112.81C1106.3 119.575 1106.38 124.767 1107.95 128.386C1109.61 132.005 1112.75 133.814 1117.39 133.814ZM1247.31 138.18L1232.21 67.852L1218.28 132.988H1228.2L1227.37 137H1205.89L1206.72 132.988H1214.27L1231.15 53.692H1223.59L1224.42 49.68H1236.46L1250.73 116.232L1264.07 53.692H1254.16L1254.98 49.68H1276.46L1275.63 53.692H1268.08L1250.14 138.18H1247.31ZM1319.53 137L1320.35 132.988H1330.27L1347.14 53.692H1337.23L1338.05 49.68H1387.73L1382.42 74.932H1379.12L1380.65 62.306C1381.04 58.8447 1380.42 56.5633 1378.76 55.462C1377.11 54.3607 1374.91 53.81 1372.16 53.81H1355.4L1348.2 87.322H1364.84L1368.03 72.336H1371.57L1364.37 106.32H1360.83L1364.01 91.334H1347.38L1338.53 132.988H1357.64L1356.82 137H1319.53ZM715.2 264.96C714.048 264.96 712.928 264.448 711.84 263.424C710.816 262.336 710.304 260.576 710.304 258.144C710.304 255.136 710.912 252.384 712.128 249.888C713.344 247.328 714.88 245.024 716.736 242.976C718.592 240.864 720.48 239.04 722.4 237.504C724.384 235.904 726.08 234.592 727.488 233.568L737.472 226.368C738.24 225.856 739.328 225.056 740.736 223.968C742.144 222.88 743.616 221.504 745.152 219.84C746.688 218.176 747.968 216.288 748.992 214.176C750.08 212 750.624 209.6 750.624 206.976C750.624 203.456 749.6 200.64 747.552 198.528C745.504 196.416 742.688 195.36 739.104 195.36C736.864 195.36 734.848 195.776 733.056 196.608C731.264 197.44 729.792 198.496 728.64 199.776C727.488 200.992 726.624 202.176 726.048 203.328L729.12 206.976C729.44 207.296 729.856 207.84 730.368 208.608C730.944 209.312 731.232 210.272 731.232 211.488C731.232 213.024 730.656 214.368 729.504 215.52C728.416 216.672 727.136 217.248 725.664 217.248C724.512 217.248 723.456 216.768 722.496 215.808C721.536 214.848 721.056 213.184 721.056 210.816C721.056 207.552 722.048 204.512 724.032 201.696C726.016 198.816 728.608 196.48 731.808 194.688C735.072 192.896 738.592 192 742.368 192C747.04 192 750.72 193.376 753.408 196.128C756.16 198.816 757.536 202.24 757.536 206.4C757.536 209.6 756.8 212.48 755.328 215.04C753.856 217.6 752.032 219.84 749.856 221.76C747.744 223.68 745.664 225.312 743.616 226.656C741.568 228 739.968 229.024 738.816 229.728L728.736 236.16C726.88 237.376 724.864 238.88 722.688 240.672C720.576 242.4 718.656 244.416 716.928 246.72C715.264 248.96 714.144 251.424 713.568 254.112C714.592 252.832 716.096 251.52 718.08 250.176C720.064 248.768 722.208 248.064 724.512 248.064C726.624 248.064 728.384 248.64 729.792 249.792C731.2 250.88 732.448 252.16 733.536 253.632C734.624 255.04 735.744 256.32 736.896 257.472C738.112 258.56 739.52 259.104 741.12 259.104C742.72 259.104 744 258.56 744.96 257.472C745.984 256.384 746.752 255.072 747.264 253.536C747.84 252 748.256 250.56 748.512 249.216L750.432 240.096L752.736 240.384L750.912 249.312C750.656 250.72 750.272 252.32 749.76 254.112C749.248 255.904 748.544 257.632 747.648 259.296C746.752 260.896 745.568 262.24 744.096 263.328C742.624 264.416 740.768 264.96 738.528 264.96C736.416 264.96 734.72 264.48 733.44 263.52C732.224 262.56 731.232 261.376 730.464 259.968C729.696 258.56 728.96 257.152 728.256 255.744C727.616 254.336 726.848 253.152 725.952 252.192C725.12 251.232 723.936 250.752 722.4 250.752C720.8 250.752 719.264 251.264 717.792 252.288C716.384 253.312 715.328 254.336 714.624 255.36L716.832 257.28C717.152 257.536 717.568 258.016 718.08 258.72C718.656 259.424 718.944 260.32 718.944 261.408C718.944 262.368 718.656 263.2 718.08 263.904C717.504 264.608 716.544 264.96 715.2 264.96ZM819.744 264.96C816.48 264.96 813.824 263.936 811.776 261.888C809.792 259.84 808.32 257.088 807.36 253.632C806.464 250.112 806.08 246.208 806.208 241.92C806.336 237.568 806.88 233.088 807.84 228.48C808.8 223.872 810.144 219.424 811.872 215.136C813.664 210.784 815.744 206.88 818.112 203.424C820.48 199.904 823.104 197.12 825.984 195.072C828.928 193.024 832.032 192 835.296 192C838.56 192 841.184 193.024 843.168 195.072C845.216 197.12 846.688 199.904 847.584 203.424C848.48 206.88 848.864 210.784 848.736 215.136C848.672 219.424 848.128 223.872 847.104 228.48C846.144 233.088 844.8 237.568 843.072 241.92C841.344 246.208 839.296 250.112 836.928 253.632C834.56 257.088 831.904 259.84 828.96 261.888C826.08 263.936 823.008 264.96 819.744 264.96ZM820.512 261.408C824.864 261.408 828.384 259.808 831.072 256.608C833.76 253.408 835.712 248.992 836.928 243.36L843.264 213.6C844.48 207.904 844.416 203.488 843.072 200.352C841.728 197.152 838.88 195.552 834.528 195.552C829.92 195.552 826.304 197.216 823.68 200.544C821.12 203.872 819.264 208.224 818.112 213.6L811.776 243.36C810.56 248.992 810.592 253.408 811.872 256.608C813.216 259.808 816.096 261.408 820.512 261.408ZM894.816 264L896.928 250.464L922.656 228.96C925.664 226.4 928 224.032 929.664 221.856C931.328 219.68 932.352 217.312 932.736 214.752C933.184 211.936 932.768 209.76 931.488 208.224C930.272 206.688 928.352 205.92 925.728 205.92C922.848 205.92 920.448 206.784 918.528 208.512C916.672 210.176 915.488 212.512 914.976 215.52H900.576C901.344 210.912 902.944 206.944 905.376 203.616C907.872 200.224 911.04 197.6 914.88 195.744C918.784 193.888 923.168 192.96 928.032 192.96C932.576 192.96 936.384 193.824 939.456 195.552C942.592 197.216 944.864 199.552 946.272 202.56C947.68 205.568 948.064 209.12 947.424 213.216C946.72 217.888 944.832 222.432 941.76 226.848C938.752 231.2 934.592 235.456 929.28 239.616L914.592 251.04H942.144L940.128 264H894.816ZM1027.61 264.96C1022.81 264.96 1018.77 264.16 1015.51 262.56C1012.31 260.896 1010.01 258.56 1008.6 255.552C1007.19 252.48 1006.81 248.896 1007.45 244.8H1021.85C1021.4 247.36 1021.85 249.376 1023.19 250.848C1024.53 252.256 1026.65 252.96 1029.53 252.96C1032.47 252.96 1034.84 252.256 1036.63 250.848C1038.42 249.44 1039.51 247.424 1039.89 244.8L1040.76 239.04C1041.14 236.416 1040.66 234.4 1039.32 232.992C1038.04 231.52 1035.96 230.784 1033.08 230.784H1024.82L1026.74 218.4L1042.58 205.92H1016.95L1018.87 193.92H1059.48L1057.46 206.304L1034.04 224.736L1035 218.592C1042.23 218.592 1047.61 220.416 1051.13 224.064C1054.71 227.712 1056.05 232.672 1055.16 238.944L1054.29 244.8C1053.72 248.896 1052.21 252.48 1049.78 255.552C1047.41 258.56 1044.31 260.896 1040.47 262.56C1036.69 264.16 1032.41 264.96 1027.61 264.96ZM737.664 317.52C736.448 317.52 735.424 317.136 734.592 316.368C733.76 315.6 733.344 314.608 733.344 313.392C733.344 311.728 734.016 310.256 735.36 308.976C736.704 307.632 738.208 306.96 739.872 306.96C741.152 306.96 742.176 307.344 742.944 308.112C743.776 308.88 744.192 309.872 744.192 311.088C744.192 312.752 743.52 314.256 742.176 315.6C740.832 316.88 739.328 317.52 737.664 317.52ZM731.232 378.96C728.288 378.96 726.08 377.936 724.608 375.888C723.136 373.84 722.784 371.088 723.552 367.632L731.616 330.768H715.392V328.464L732.384 327.216L737.088 324.816H739.392L729.984 367.632C729.536 369.68 729.632 371.28 730.272 372.432C730.976 373.584 732.192 374.16 733.92 374.16C735.904 374.16 737.824 373.264 739.68 371.472C741.6 369.616 743.712 367.184 746.016 364.176L748.128 361.392L749.952 362.736L747.84 365.616C744.512 370.096 741.664 373.456 739.296 375.696C736.928 377.872 734.24 378.96 731.232 378.96ZM774.528 378.96C769.792 378.96 766.112 378.096 763.488 376.368C760.864 374.64 759.552 372.496 759.552 369.936C759.552 368.336 760 367.152 760.896 366.384C761.792 365.552 762.88 365.136 764.16 365.136C765.568 365.136 766.624 365.488 767.328 366.192C768.032 366.896 768.544 367.76 768.864 368.784C769.248 369.744 769.504 370.64 769.632 371.472L770.4 375.6C771.168 375.984 772.704 376.176 775.008 376.176C779.488 376.176 782.816 375.184 784.992 373.2C787.232 371.152 788.352 368.752 788.352 366C788.352 363.696 787.68 361.712 786.336 360.048C785.056 358.384 783.456 356.88 781.536 355.536C779.68 354.192 777.792 352.784 775.872 351.312C773.952 349.84 772.32 348.176 770.976 346.32C769.696 344.464 769.056 342.224 769.056 339.6C769.056 336.976 769.76 334.576 771.168 332.4C772.576 330.224 774.624 328.496 777.312 327.216C780 325.872 783.296 325.2 787.2 325.2C791.424 325.2 794.656 325.936 796.896 327.408C799.136 328.88 800.256 330.64 800.256 332.688C800.256 333.904 799.872 334.928 799.104 335.76C798.4 336.528 797.408 336.912 796.128 336.912C794.528 336.912 793.376 336.272 792.672 334.992C791.968 333.712 791.424 332.368 791.04 330.96L790.368 328.56C790.112 328.432 789.632 328.304 788.928 328.176C788.224 328.048 787.328 327.984 786.24 327.984C782.336 327.984 779.456 328.88 777.6 330.672C775.808 332.464 774.912 334.48 774.912 336.72C774.912 338.768 775.552 340.624 776.832 342.288C778.176 343.888 779.808 345.392 781.728 346.8C783.648 348.208 785.536 349.68 787.392 351.216C789.312 352.752 790.912 354.48 792.192 356.4C793.536 358.256 794.208 360.464 794.208 363.024C794.208 364.624 793.856 366.352 793.152 368.208C792.512 370.064 791.424 371.824 789.888 373.488C788.416 375.088 786.4 376.4 783.84 377.424C781.344 378.448 778.24 378.96 774.528 378.96ZM878.88 378.96C877.088 378.96 875.616 378.288 874.464 376.944C873.312 375.6 873.152 373.488 873.984 370.608L883.872 337.296C884.512 335.184 884.576 333.488 884.064 332.208C883.616 330.928 882.4 330.288 880.416 330.288C877.728 330.288 875.136 331.824 872.64 334.896C870.208 337.904 867.808 342.896 865.44 349.872C863.072 356.848 860.64 366.224 858.144 378H851.52L865.536 311.952H853.824L854.304 309.648L866.304 308.4L871.008 306H873.312L868.992 326.16L862.08 349.872H863.52C864.416 347.12 865.472 344.304 866.688 341.424C867.904 338.544 869.312 335.888 870.912 333.456C872.512 330.96 874.336 328.976 876.384 327.504C878.496 325.968 880.832 325.2 883.392 325.2C886.336 325.2 888.512 326.224 889.92 328.272C891.392 330.32 891.584 333.136 890.496 336.72L880.608 369.936C880.544 370.256 880.448 370.736 880.32 371.376C880.192 372.016 880.256 372.624 880.512 373.2C880.768 373.712 881.408 373.968 882.432 373.968C883.712 373.968 884.8 373.424 885.696 372.336C886.656 371.248 887.84 369.744 889.248 367.824L891.84 364.368L893.472 365.52L891.168 368.688C889.184 371.44 887.264 373.84 885.408 375.888C883.616 377.936 881.44 378.96 878.88 378.96ZM904.32 378.96C901.76 378.96 899.616 377.776 897.888 375.408C896.224 372.976 895.52 369.232 895.776 364.176C895.904 361.424 896.384 358.352 897.216 354.96C898.112 351.504 899.328 348.048 900.864 344.592C902.464 341.136 904.32 337.936 906.432 334.992C908.608 332.048 911.008 329.68 913.632 327.888C916.32 326.096 919.232 325.2 922.368 325.2C923.968 325.2 925.312 325.424 926.4 325.872C927.552 326.256 928.352 326.672 928.8 327.12L933.408 325.2H935.712L926.208 369.936C926.08 370.64 926.048 371.504 926.112 372.528C926.176 373.488 926.816 373.968 928.032 373.968C929.312 373.968 930.4 373.424 931.296 372.336C932.256 371.248 933.44 369.744 934.848 367.824L937.44 364.368L939.072 365.52L936.768 368.688C934.72 371.504 932.8 373.936 931.008 375.984C929.216 377.968 927.104 378.96 924.672 378.96C923.584 378.96 922.528 378.64 921.504 378C920.544 377.424 919.904 376.4 919.584 374.928C919.264 373.392 919.52 371.312 920.352 368.688L926.688 348.528H925.248L923.52 353.712C922.56 356.592 921.44 359.536 920.16 362.544C918.88 365.488 917.408 368.208 915.744 370.704C914.144 373.2 912.384 375.216 910.464 376.752C908.608 378.224 906.56 378.96 904.32 378.96ZM906.24 375.12C907.84 375.12 909.408 374.352 910.944 372.816C912.544 371.28 914.048 369.232 915.456 366.672C916.928 364.112 918.304 361.296 919.584 358.224C920.864 355.088 922.016 351.92 923.04 348.72C924.128 345.456 925.056 342.384 925.824 339.504C926.592 336.624 927.168 334.192 927.552 332.208C927.104 331.376 926.24 330.544 924.96 329.712C923.744 328.816 922.24 328.368 920.448 328.368C917.696 328.368 915.296 329.552 913.248 331.92C911.264 334.224 909.728 337.392 908.64 341.424L902.304 364.176C901.472 367.184 901.408 369.776 902.112 371.952C902.88 374.064 904.256 375.12 906.24 375.12ZM932.832 395.856V392.592H942.816L954.72 336.528L944.352 343.248H943.296V338.256L955.392 333.648L959.136 315.888H965.568L961.632 330.96H962.88C963.392 330.512 964.224 329.84 965.376 328.944C966.592 327.984 968.032 327.12 969.696 326.352C971.36 325.584 973.12 325.2 974.976 325.2C978.176 325.2 980.544 326.512 982.08 329.136C983.68 331.76 984.48 335.344 984.48 339.888C984.48 343.024 984.096 346.384 983.328 349.968C982.624 353.488 981.568 356.976 980.16 360.432C978.816 363.824 977.088 366.928 974.976 369.744C972.928 372.56 970.56 374.8 967.872 376.464C965.248 378.128 962.336 378.96 959.136 378.96C957.792 378.96 956.576 378.832 955.488 378.576C954.4 378.32 953.408 378.032 952.512 377.712L949.344 392.592H964.608V395.856H932.832ZM959.712 375.888C966.816 375.888 971.456 370.768 973.632 360.528L978.048 339.6C978.816 336.016 978.624 333.296 977.472 331.44C976.384 329.584 974.656 328.656 972.288 328.656C970.432 328.656 968.512 329.2 966.528 330.288C964.544 331.312 963.008 332.336 961.92 333.36L953.376 373.968C953.824 374.416 954.592 374.864 955.68 375.312C956.832 375.696 958.176 375.888 959.712 375.888ZM978.912 395.856V392.592H988.896L1000.8 336.528L990.432 343.248H989.376V338.256L1001.47 333.648L1005.22 315.888H1011.65L1007.71 330.96H1008.96C1009.47 330.512 1010.3 329.84 1011.46 328.944C1012.67 327.984 1014.11 327.12 1015.78 326.352C1017.44 325.584 1019.2 325.2 1021.06 325.2C1024.26 325.2 1026.62 326.512 1028.16 329.136C1029.76 331.76 1030.56 335.344 1030.56 339.888C1030.56 343.024 1030.18 346.384 1029.41 349.968C1028.7 353.488 1027.65 356.976 1026.24 360.432C1024.9 363.824 1023.17 366.928 1021.06 369.744C1019.01 372.56 1016.64 374.8 1013.95 376.464C1011.33 378.128 1008.42 378.96 1005.22 378.96C1003.87 378.96 1002.66 378.832 1001.57 378.576C1000.48 378.32 999.488 378.032 998.592 377.712L995.424 392.592H1010.69V395.856H978.912ZM1005.79 375.888C1012.9 375.888 1017.54 370.768 1019.71 360.528L1024.13 339.6C1024.9 336.016 1024.7 333.296 1023.55 331.44C1022.46 329.584 1020.74 328.656 1018.37 328.656C1016.51 328.656 1014.59 329.2 1012.61 330.288C1010.62 331.312 1009.09 332.336 1008 333.36L999.456 373.968C999.904 374.416 1000.67 374.864 1001.76 375.312C1002.91 375.696 1004.26 375.888 1005.79 375.888ZM1051.39 378.96C1046.98 378.96 1043.46 377.264 1040.83 373.872C1038.27 370.416 1036.99 365.776 1036.99 359.952C1036.99 355.792 1037.66 351.664 1039.01 347.568C1040.35 343.472 1042.21 339.728 1044.58 336.336C1047.01 332.944 1049.82 330.256 1053.02 328.272C1056.29 326.224 1059.81 325.2 1063.58 325.2C1067.17 325.2 1070.05 326.16 1072.22 328.08C1074.46 329.936 1075.58 332.528 1075.58 335.856C1075.58 339.056 1074.59 341.712 1072.61 343.824C1070.69 345.936 1068.16 347.6 1065.02 348.816C1061.95 350.032 1058.66 350.864 1055.14 351.312C1051.68 351.696 1048.42 351.792 1045.34 351.6L1044.19 356.88C1042.98 362.896 1043.14 367.536 1044.67 370.8C1046.21 374 1048.83 375.6 1052.54 375.6C1054.78 375.6 1056.74 375.088 1058.4 374.064C1060.13 373.04 1061.57 371.792 1062.72 370.32C1063.94 368.784 1064.9 367.28 1065.6 365.808C1066.37 364.336 1066.91 363.184 1067.23 362.352L1068.67 358.416L1071.07 359.184L1069.92 362.352C1069.34 364.016 1068.51 365.808 1067.42 367.728C1066.4 369.648 1065.12 371.472 1063.58 373.2C1062.11 374.864 1060.35 376.24 1058.3 377.328C1056.32 378.416 1054.02 378.96 1051.39 378.96ZM1046.21 347.28L1045.73 349.488C1049.63 349.744 1053.38 349.456 1056.96 348.624C1060.54 347.728 1063.49 346.256 1065.79 344.208C1068.1 342.096 1069.25 339.376 1069.25 336.048C1069.25 333.616 1068.54 331.696 1067.14 330.288C1065.79 328.88 1063.94 328.176 1061.57 328.176C1057.79 328.176 1054.59 329.904 1051.97 333.36C1049.41 336.752 1047.49 341.392 1046.21 347.28ZM1109.95 378.96C1108.16 378.96 1106.69 378.288 1105.54 376.944C1104.38 375.6 1104.22 373.488 1105.06 370.608L1114.94 337.296C1115.58 335.184 1115.65 333.488 1115.14 332.208C1114.69 330.928 1113.47 330.288 1111.49 330.288C1108.8 330.288 1106.21 331.824 1103.71 334.896C1101.28 337.904 1098.88 342.896 1096.51 349.872C1094.14 356.848 1091.71 366.224 1089.22 378H1082.59L1091.9 334.224C1092.1 333.328 1092.19 332.432 1092.19 331.536C1092.26 330.64 1091.78 330.192 1090.75 330.192C1089.73 330.192 1088.74 330.736 1087.78 331.824C1086.88 332.912 1085.7 334.416 1084.22 336.336L1081.73 339.696L1080.1 338.448L1082.3 335.472C1084.35 332.656 1086.24 330.256 1087.97 328.272C1089.7 326.224 1091.68 325.2 1093.92 325.2C1095.65 325.2 1097.09 325.872 1098.24 327.216C1099.39 328.56 1099.49 330.672 1098.53 333.552L1093.15 349.872H1094.59C1095.49 347.184 1096.54 344.4 1097.76 341.52C1098.98 338.64 1100.38 335.984 1101.98 333.552C1103.58 331.056 1105.41 329.04 1107.46 327.504C1109.57 325.968 1111.9 325.2 1114.46 325.2C1117.41 325.2 1119.58 326.224 1120.99 328.272C1122.46 330.32 1122.66 333.136 1121.57 336.72L1111.68 369.936C1111.62 370.256 1111.52 370.736 1111.39 371.376C1111.33 372.016 1111.42 372.624 1111.68 373.2C1111.94 373.712 1112.54 373.968 1113.5 373.968C1114.59 373.968 1115.65 373.424 1116.67 372.336C1117.7 371.248 1118.91 369.744 1120.32 367.824L1122.91 364.368L1124.54 365.52L1122.24 368.688C1120.26 371.44 1118.34 373.84 1116.48 375.888C1114.69 377.936 1112.51 378.96 1109.95 378.96ZM1152.38 317.52C1151.17 317.52 1150.14 317.136 1149.31 316.368C1148.48 315.6 1148.06 314.608 1148.06 313.392C1148.06 311.728 1148.74 310.256 1150.08 308.976C1151.42 307.632 1152.93 306.96 1154.59 306.96C1155.87 306.96 1156.9 307.344 1157.66 308.112C1158.5 308.88 1158.91 309.872 1158.91 311.088C1158.91 312.752 1158.24 314.256 1156.9 315.6C1155.55 316.88 1154.05 317.52 1152.38 317.52ZM1145.95 378.96C1143.01 378.96 1140.8 377.936 1139.33 375.888C1137.86 373.84 1137.5 371.088 1138.27 367.632L1146.34 330.768H1130.11V328.464L1147.1 327.216L1151.81 324.816H1154.11L1144.7 367.632C1144.26 369.68 1144.35 371.28 1144.99 372.432C1145.7 373.584 1146.91 374.16 1148.64 374.16C1150.62 374.16 1152.54 373.264 1154.4 371.472C1156.32 369.616 1158.43 367.184 1160.74 364.176L1162.85 361.392L1164.67 362.736L1162.56 365.616C1159.23 370.096 1156.38 373.456 1154.02 375.696C1151.65 377.872 1148.96 378.96 1145.95 378.96ZM1202.11 378.96C1200.32 378.96 1198.85 378.288 1197.7 376.944C1196.54 375.6 1196.38 373.488 1197.22 370.608L1207.1 337.296C1207.74 335.184 1207.81 333.488 1207.3 332.208C1206.85 330.928 1205.63 330.288 1203.65 330.288C1200.96 330.288 1198.37 331.824 1195.87 334.896C1193.44 337.904 1191.04 342.896 1188.67 349.872C1186.3 356.848 1183.87 366.224 1181.38 378H1174.75L1184.06 334.224C1184.26 333.328 1184.35 332.432 1184.35 331.536C1184.42 330.64 1183.94 330.192 1182.91 330.192C1181.89 330.192 1180.9 330.736 1179.94 331.824C1179.04 332.912 1177.86 334.416 1176.38 336.336L1173.89 339.696L1172.26 338.448L1174.46 335.472C1176.51 332.656 1178.4 330.256 1180.13 328.272C1181.86 326.224 1183.84 325.2 1186.08 325.2C1187.81 325.2 1189.25 325.872 1190.4 327.216C1191.55 328.56 1191.65 330.672 1190.69 333.552L1185.31 349.872H1186.75C1187.65 347.184 1188.7 344.4 1189.92 341.52C1191.14 338.64 1192.54 335.984 1194.14 333.552C1195.74 331.056 1197.57 329.04 1199.62 327.504C1201.73 325.968 1204.06 325.2 1206.62 325.2C1209.57 325.2 1211.74 326.224 1213.15 328.272C1214.62 330.32 1214.82 333.136 1213.73 336.72L1203.84 369.936C1203.78 370.256 1203.68 370.736 1203.55 371.376C1203.49 372.016 1203.58 372.624 1203.84 373.2C1204.1 373.712 1204.7 373.968 1205.66 373.968C1206.75 373.968 1207.81 373.424 1208.83 372.336C1209.86 371.248 1211.07 369.744 1212.48 367.824L1215.07 364.368L1216.7 365.52L1214.4 368.688C1212.42 371.44 1210.5 373.84 1208.64 375.888C1206.85 377.936 1204.67 378.96 1202.11 378.96ZM1230.53 398.448C1227.14 398.448 1223.97 398 1221.02 397.104C1218.08 396.272 1215.71 394.96 1213.92 393.168C1212.13 391.376 1211.23 389.104 1211.23 386.352C1211.23 384.24 1211.81 382.352 1212.96 380.688C1214.05 379.088 1215.46 377.712 1217.18 376.56C1218.98 375.344 1220.9 374.384 1222.94 373.68C1224.99 372.976 1226.98 372.496 1228.9 372.24V371.568C1227.74 370.928 1226.72 370.096 1225.82 369.072C1224.93 368.048 1224.48 366.736 1224.48 365.136C1224.48 363.024 1225.18 361.296 1226.59 359.952C1228.06 358.544 1229.5 357.456 1230.91 356.688V356.208C1228.61 355.248 1226.91 353.744 1225.82 351.696C1224.74 349.584 1224.19 347.248 1224.19 344.688C1224.19 341.168 1225.09 337.936 1226.88 334.992C1228.67 332.048 1231.04 329.68 1233.98 327.888C1236.99 326.096 1240.26 325.2 1243.78 325.2C1244.86 325.2 1245.82 325.296 1246.66 325.488C1247.55 325.616 1248.38 325.84 1249.15 326.16H1265.76L1265.18 329.136H1253.28C1254.24 330.288 1254.94 331.6 1255.39 333.072C1255.84 334.544 1256.06 336.112 1256.06 337.776C1256.06 341.296 1255.17 344.528 1253.38 347.472C1251.58 350.416 1249.22 352.784 1246.27 354.576C1243.33 356.368 1240.06 357.264 1236.48 357.264C1236.03 357.264 1235.58 357.264 1235.14 357.264C1234.75 357.2 1234.37 357.136 1233.98 357.072C1233.15 357.392 1232.19 357.904 1231.1 358.608C1230.08 359.312 1229.57 360.368 1229.57 361.776C1229.57 363.312 1230.18 364.4 1231.39 365.04C1232.61 365.68 1233.79 366.256 1234.94 366.768L1241.95 369.552C1243.04 370 1244.32 370.544 1245.79 371.184C1247.26 371.76 1248.7 372.56 1250.11 373.584C1251.52 374.544 1252.67 375.792 1253.57 377.328C1254.53 378.8 1255.01 380.624 1255.01 382.8C1255.01 386.192 1253.82 389.04 1251.46 391.344C1249.09 393.712 1246.05 395.472 1242.34 396.624C1238.62 397.84 1234.69 398.448 1230.53 398.448ZM1236.86 354.576C1240.13 354.576 1242.75 353.488 1244.74 351.312C1246.72 349.136 1248.03 346.448 1248.67 343.248L1249.54 339.216C1250.24 335.76 1250.11 333.008 1249.15 330.96C1248.19 328.912 1246.21 327.888 1243.2 327.888C1240 327.888 1237.41 328.976 1235.42 331.152C1233.5 333.328 1232.19 336.016 1231.49 339.216L1230.62 343.248C1229.92 346.704 1230.02 349.456 1230.91 351.504C1231.87 353.552 1233.86 354.576 1236.86 354.576ZM1232.74 394.992C1235.68 394.992 1238.4 394.608 1240.9 393.84C1243.39 393.136 1245.41 392.048 1246.94 390.576C1248.54 389.168 1249.34 387.408 1249.34 385.296C1249.34 383.312 1248.77 381.712 1247.62 380.496C1246.53 379.28 1245.22 378.32 1243.68 377.616C1242.14 376.912 1240.8 376.336 1239.65 375.888L1232.26 373.008L1229.86 373.68C1227.87 374.192 1225.86 374.896 1223.81 375.792C1221.82 376.624 1220.16 377.744 1218.82 379.152C1217.47 380.624 1216.8 382.48 1216.8 384.72C1216.8 387.984 1218.27 390.512 1221.22 392.304C1224.22 394.096 1228.06 394.992 1232.74 394.992ZM1291.68 306.96H1298.4L1284.77 361.488H1282.08L1291.68 306.96ZM1279.68 378.96C1278.4 378.96 1277.34 378.576 1276.51 377.808C1275.74 377.04 1275.36 376.048 1275.36 374.832C1275.36 373.168 1276.03 371.696 1277.38 370.416C1278.72 369.072 1280.22 368.4 1281.89 368.4C1283.17 368.4 1284.19 368.784 1284.96 369.552C1285.79 370.32 1286.21 371.312 1286.21 372.528C1286.21 374.192 1285.54 375.696 1284.19 377.04C1282.85 378.32 1281.34 378.96 1279.68 378.96Z" fill="#5C4594"/>
<path d="M708 158.24H981.622V164.14H708V158.24Z" fill="#5C4594"/>
<path d="M981.576 151.75H1380.42V157.65H981.576V151.75Z" fill="#5C4594"/>
<path d="M708 276H892.32V280.8H708V276Z" fill="#5C4594"/>
<path d="M892.32 281.28H1061.21V286.08H892.32V281.28Z" fill="#5C4594"/>
<path d="M708 390H1308.96V394.8H708V390Z" fill="#5C4594"/>
</svg>
