<svg xmlns="http://www.w3.org/2000/svg" width="1387.73" height="510" fill="none"><path fill="#e85554" d="M498.376 308.379c-2.225 3.459-9.53 3.682-12.014 4.538-17.985-6.323-22.472-18.709-22.621-32.247-.148-14.06-6.044-33.922 11.644-38.906 17.763-4.984 24.771 13.837 28.85 27.301 3.894 12.832 1.706 27.449-5.859 39.351m284.458 149.819c-7.157-25.962-28.405-44.373-36.711-69.219-27.256-81.678-76.279-157.034-70.234-248.68 1.224-18.449-13.943-33.475-35.302-31.578-21.842 1.934-23.659 19.564-22.991 36.896.407 10.34 3.077 20.718 2.707 30.983-.668 19.23 1.891 47.088-23.622 46.344-30.778-.93-14.091-28.007-13.757-44.782.333-18.225-4.895-33.475-22.583-40.69-16.317-6.658-32.892-6.807-46.464 7.067-10.68 10.935-16.576 28.825-38.418 20.791-20.729-7.662-22.731-24.474-24.029-42.29-2.002-26.965-3.597-53.931-5.711-80.897C443.754 17.074 433.89-1.635 405.077.113c-18.689 1.153-26.81 13.91-22.434 31.467 18.837 75.653 16.835 152.384 12.793 229.228-.334 6.062 1.446 16.142-7.12 17.481-9.27 1.413-10.197-8.778-11.829-14.989-6.638-25.292-10.42-51.477-18.949-76.062-8.232-23.805-26.922-36.562-53.065-28.938-26.514 7.737-28.553 27.71-22.101 51.031 4.153 14.952 9.382 30.127 10.124 45.377.704 14.803 6.155 39.835-11.681 41.211-19.283 1.488-19.506-23.693-21.323-39.909-2.855-25.255.816-54.23-30.889-63.714-27.626-8.257-50.284 3.943-65.302 27.226-17.058 26.408-33.671 27.152-57.292 7.253-29.851-25.106-73.386-25.366-93.558-.558-24.549 30.202-8.752 58.246 12.57 82.051 16.502 18.411 20.692 37.677 15.983 60.887-4.784 23.655-2.596 46.716 8.863 68.586 16.612 31.727 42.904 25.738 69.047 17.518 31.445-9.856 42.273-34.255 42.718-65.052.445-29.867-13.72-61.073 4.599-89.155 10.902-16.737 26.143-33.4 40.382-1.488 11.421 25.59 19.839 52.779 33.374 77.141 22.064 39.724 59.703 39.017 82.656 0 11.162-19.006 7.788-41.397 13.016-61.817 1.484-5.876 3.004-12.534 9.419-13.092 2.744-.26 7.417 5.467 8.9 9.336 5.34 13.948 10.939 27.97 14.202 42.476 13.943 61.482 88.479 88.522 140.394 51.737 27.033-19.155 33.077-48.613 43.46-76.323 4.561-13.241 4.45-34.516 22.657-32.545 34.858 3.757 51.656-11.976 60.556-42.513 1.705-5.839 5.154-13.539 12.2-11.902 4.561 1.079 9.938 7.588 11.124 12.609 11.755 48.501 31.52 93.729 54.808 137.581 2.967 5.579 4.672 12.423-1.298 17.184-5.748 4.612-12.422 2.715-18.133-.781-16.947-10.303-15.723-29.16-20.395-45.117-8.603-29.42-35.303-41.322-58.924-25.924-28.479 18.56-41.495 61.185-23.696 90.01 34.487 55.829 92.521 72.083 151.889 81.716 31.483 5.095 48.541-20.011 39.975-51.142"/><path fill="#5c4594" d="M737.972 138.18c-8.417 0-14.632-2.281-18.644-6.844-3.933-4.641-5.271-10.935-4.012-18.88l9.676-61.596h14.868l-9.794 61.478c-.708 4.091-.236 7.277 1.416 9.558 1.731 2.281 4.602 3.422 8.614 3.422 3.855 0 7.001-1.141 9.44-3.422 2.439-2.281 4.012-5.467 4.72-9.558l9.676-61.478H778.8l-9.794 61.596c-.865 5.271-2.675 9.873-5.428 13.806-2.753 3.855-6.293 6.805-10.62 8.85-4.327 2.045-9.322 3.068-14.986 3.068zm110.12-1.18 13.688-86.14h17.818l13.098 69.62c.236-2.517.472-5.467.708-8.85.314-3.461.668-6.962 1.062-10.502.393-3.619.786-6.765 1.18-9.44l6.49-40.828h13.452L901.9 137h-17.818l-12.98-69.62a303.966 303.966 0 0 1-.708 8.26c-.236 3.225-.551 6.53-.944 9.912-.315 3.383-.708 6.49-1.18 9.322L861.544 137zm156.968 1.18c-3.86 0-7.043-1.18-9.56-3.54-2.439-2.439-4.248-5.743-5.428-9.912-1.102-4.169-1.652-8.889-1.652-14.16 0-5.743.59-11.525 1.77-17.346 1.258-5.9 2.989-11.525 5.192-16.874 2.202-5.35 4.798-10.109 7.788-14.278 2.99-4.17 6.25-7.473 9.79-9.912 3.62-2.439 7.4-3.658 11.33-3.658 3.07 0 5.47.708 7.2 2.124 1.81 1.416 3.11 3.147 3.89 5.192.79 2.045 1.18 4.012 1.18 5.9h.95l2.83-13.216h3.89l-6.6 30.916h-5.9l.59-2.714c1.33-6.136 1.73-10.935 1.18-14.396-.48-3.461-1.62-5.9-3.43-7.316-1.81-1.416-3.93-2.124-6.37-2.124-4.25 0-8.18 1.81-11.8 5.428-3.54 3.619-6.02 8.81-7.43 15.576l-8.262 38.94c-1.416 6.765-1.298 11.957.354 15.576 1.652 3.619 4.638 5.428 8.968 5.428 2.44 0 4.92-.747 7.43-2.242 2.52-1.495 4.88-3.973 7.08-7.434 2.21-3.461 3.94-8.181 5.2-14.16l.59-2.714h5.9l-6.61 30.916h-3.9l3.07-14.16h-.94c-.79 2.045-2.05 4.169-3.78 6.372-1.65 2.203-3.7 4.051-6.13 5.546-2.44 1.495-5.24 2.242-8.38 2.242zm111.15 0c-3.77 0-6.88-1.18-9.32-3.54-2.36-2.439-4.13-5.703-5.31-9.794-1.1-4.169-1.65-8.85-1.65-14.042 0-5.743.63-11.564 1.89-17.464 1.26-5.9 3.03-11.525 5.31-16.874 2.28-5.35 4.91-10.109 7.9-14.278 3.07-4.248 6.38-7.591 9.92-10.03 3.61-2.439 7.31-3.658 11.09-3.658 3.77 0 6.84 1.22 9.2 3.658 2.44 2.36 4.21 5.585 5.31 9.676 1.18 4.09 1.77 8.732 1.77 13.924 0 5.743-.63 11.564-1.89 17.464-1.26 5.9-3.03 11.525-5.31 16.874-2.28 5.349-4.95 10.148-8.02 14.396-2.99 4.248-6.25 7.591-9.79 10.03-3.54 2.439-7.24 3.658-11.1 3.658zm1.18-4.366c4.64 0 8.58-1.809 11.8-5.428 3.31-3.619 5.67-8.811 7.08-15.576l8.26-38.94c1.42-6.765 1.3-11.957-.35-15.576-1.57-3.619-4.68-5.428-9.32-5.428-4.57 0-8.5 1.81-11.8 5.428-3.31 3.619-5.67 8.81-7.08 15.576l-8.26 38.94c-1.42 6.765-1.34 11.957.23 15.576 1.66 3.619 4.8 5.428 9.44 5.428zm129.92 4.366-15.1-70.328-13.93 65.136h9.92l-.83 4.012h-21.48l.83-4.012h7.55l16.88-79.296h-7.56l.83-4.012h12.04l14.27 66.552 13.34-62.54h-9.91l.82-4.012h21.48l-.83 4.012h-7.55l-17.94 84.488zm72.22-1.18.82-4.012h9.92l16.87-79.296h-9.91l.82-4.012h49.68l-5.31 25.252h-3.3l1.53-12.626c.39-3.461-.23-5.743-1.89-6.844-1.65-1.101-3.85-1.652-6.6-1.652h-16.76l-7.2 33.512h16.64l3.19-14.986h3.54l-7.2 33.984h-3.54l3.18-14.986h-16.63l-8.85 41.654h19.11l-.82 4.012ZM715.2 264.96c-1.152 0-2.272-.512-3.36-1.536-1.024-1.088-1.536-2.848-1.536-5.28 0-3.008.608-5.76 1.824-8.256a28.324 28.324 0 0 1 4.608-6.912c1.856-2.112 3.744-3.936 5.664-5.472 1.984-1.6 3.68-2.912 5.088-3.936l9.984-7.2c.768-.512 1.856-1.312 3.264-2.4 1.408-1.088 2.88-2.464 4.416-4.128a23.243 23.243 0 0 0 3.84-5.664c1.088-2.176 1.632-4.576 1.632-7.2 0-3.52-1.024-6.336-3.072-8.448s-4.864-3.168-8.448-3.168c-2.24 0-4.256.416-6.048 1.248-1.792.832-3.264 1.888-4.416 3.168-1.152 1.216-2.016 2.4-2.592 3.552l3.072 3.648c.32.32.736.864 1.248 1.632.576.704.864 1.664.864 2.88 0 1.536-.576 2.88-1.728 4.032-1.088 1.152-2.368 1.728-3.84 1.728-1.152 0-2.208-.48-3.168-1.44s-1.44-2.624-1.44-4.992c0-3.264.992-6.304 2.976-9.12 1.984-2.88 4.576-5.216 7.776-7.008 3.264-1.792 6.784-2.688 10.56-2.688 4.672 0 8.352 1.376 11.04 4.128 2.752 2.688 4.128 6.112 4.128 10.272 0 3.2-.736 6.08-2.208 8.64a26.528 26.528 0 0 1-5.472 6.72c-2.112 1.92-4.192 3.552-6.24 4.896a189.07 189.07 0 0 1-4.8 3.072l-10.08 6.432c-1.856 1.216-3.872 2.72-6.048 4.512-2.112 1.728-4.032 3.744-5.76 6.048a18.91 18.91 0 0 0-3.36 7.392c1.024-1.28 2.528-2.592 4.512-3.936 1.984-1.408 4.128-2.112 6.432-2.112 2.112 0 3.872.576 5.28 1.728a19.376 19.376 0 0 1 3.744 3.84 40.061 40.061 0 0 0 3.36 3.84c1.216 1.088 2.624 1.632 4.224 1.632s2.88-.544 3.84-1.632c1.024-1.088 1.792-2.4 2.304-3.936.576-1.536.992-2.976 1.248-4.32l1.92-9.12 2.304.288-1.824 8.928c-.256 1.408-.64 3.008-1.152 4.8a25.934 25.934 0 0 1-2.112 5.184 12.633 12.633 0 0 1-3.552 4.032c-1.472 1.088-3.328 1.632-5.568 1.632-2.112 0-3.808-.48-5.088-1.44a11.459 11.459 0 0 1-2.976-3.552 133.518 133.518 0 0 1-2.208-4.224c-.64-1.408-1.408-2.592-2.304-3.552-.832-.96-2.016-1.44-3.552-1.44-1.6 0-3.136.512-4.608 1.536-1.408 1.024-2.464 2.048-3.168 3.072l2.208 1.92c.32.256.736.736 1.248 1.44.576.704.864 1.6.864 2.688 0 .96-.288 1.792-.864 2.496-.576.704-1.536 1.056-2.88 1.056zm104.544 0c-3.264 0-5.92-1.024-7.968-3.072-1.984-2.048-3.456-4.8-4.416-8.256-.896-3.52-1.28-7.424-1.152-11.712.128-4.352.672-8.832 1.632-13.44a78.408 78.408 0 0 1 4.032-13.344c1.792-4.352 3.872-8.256 6.24-11.712 2.368-3.52 4.992-6.304 7.872-8.352 2.944-2.048 6.048-3.072 9.312-3.072 3.264 0 5.888 1.024 7.872 3.072 2.048 2.048 3.52 4.832 4.416 8.352.896 3.456 1.28 7.36 1.152 11.712-.064 4.288-.608 8.736-1.632 13.344a81.26 81.26 0 0 1-4.032 13.44c-1.728 4.288-3.776 8.192-6.144 11.712-2.368 3.456-5.024 6.208-7.968 8.256-2.88 2.048-5.952 3.072-9.216 3.072zm.768-3.552c4.352 0 7.872-1.6 10.56-4.8 2.688-3.2 4.64-7.616 5.856-13.248l6.336-29.76c1.216-5.696 1.152-10.112-.192-13.248-1.344-3.2-4.192-4.8-8.544-4.8-4.608 0-8.224 1.664-10.848 4.992-2.56 3.328-4.416 7.68-5.568 13.056l-6.336 29.76c-1.216 5.632-1.184 10.048.096 13.248 1.344 3.2 4.224 4.8 8.64 4.8zM894.816 264l2.112-13.536 25.728-21.504c3.008-2.56 5.344-4.928 7.008-7.104 1.664-2.176 2.688-4.544 3.072-7.104.448-2.816.032-4.992-1.248-6.528-1.216-1.536-3.136-2.304-5.76-2.304-2.88 0-5.28.864-7.2 2.592-1.856 1.664-3.04 4-3.552 7.008h-14.4c.768-4.608 2.368-8.576 4.8-11.904 2.496-3.392 5.664-6.016 9.504-7.872 3.904-1.856 8.288-2.784 13.152-2.784 4.544 0 8.352.864 11.424 2.592 3.136 1.664 5.408 4 6.816 7.008 1.408 3.008 1.792 6.56 1.152 10.656-.704 4.672-2.592 9.216-5.664 13.632-3.008 4.352-7.168 8.608-12.48 12.768l-14.688 11.424h27.552L940.128 264zm132.794.96c-4.8 0-8.84-.8-12.1-2.4-3.2-1.664-5.5-4-6.91-7.008-1.41-3.072-1.79-6.656-1.15-10.752h14.4c-.45 2.56 0 4.576 1.34 6.048 1.34 1.408 3.46 2.112 6.34 2.112 2.94 0 5.31-.704 7.1-2.112 1.79-1.408 2.88-3.424 3.26-6.048l.87-5.76c.38-2.624-.1-4.64-1.44-6.048-1.28-1.472-3.36-2.208-6.24-2.208h-8.26l1.92-12.384 15.84-12.48h-25.63l1.92-12h40.61l-2.02 12.384-23.42 18.432.96-6.144c7.23 0 12.61 1.824 16.13 5.472 3.58 3.648 4.92 8.608 4.03 14.88l-.87 5.856c-.57 4.096-2.08 7.68-4.51 10.752-2.37 3.008-5.47 5.344-9.31 7.008-3.78 1.6-8.06 2.4-12.86 2.4zm-289.946 52.56c-1.216 0-2.24-.384-3.072-1.152-.832-.768-1.248-1.76-1.248-2.976 0-1.664.672-3.136 2.016-4.416 1.344-1.344 2.848-2.016 4.512-2.016 1.28 0 2.304.384 3.072 1.152.832.768 1.248 1.76 1.248 2.976 0 1.664-.672 3.168-2.016 4.512-1.344 1.28-2.848 1.92-4.512 1.92zm-6.432 61.44c-2.944 0-5.152-1.024-6.624-3.072-1.472-2.048-1.824-4.8-1.056-8.256l8.064-36.864h-16.224v-2.304l16.992-1.248 4.704-2.4h2.304l-9.408 42.816c-.448 2.048-.352 3.648.288 4.8.704 1.152 1.92 1.728 3.648 1.728 1.984 0 3.904-.896 5.76-2.688 1.92-1.856 4.032-4.288 6.336-7.296l2.112-2.784 1.824 1.344-2.112 2.88c-3.328 4.48-6.176 7.84-8.544 10.08-2.368 2.176-5.056 3.264-8.064 3.264zm43.296 0c-4.736 0-8.416-.864-11.04-2.592-2.624-1.728-3.936-3.872-3.936-6.432 0-1.6.448-2.784 1.344-3.552.896-.832 1.984-1.248 3.264-1.248 1.408 0 2.464.352 3.168 1.056.704.704 1.216 1.568 1.536 2.592.384.96.64 1.856.768 2.688l.768 4.128c.768.384 2.304.576 4.608.576 4.48 0 7.808-.992 9.984-2.976 2.24-2.048 3.36-4.448 3.36-7.2 0-2.304-.672-4.288-2.016-5.952-1.28-1.664-2.88-3.168-4.8-4.512a258.576 258.576 0 0 1-5.664-4.224c-1.92-1.472-3.552-3.136-4.896-4.992-1.28-1.856-1.92-4.096-1.92-6.72 0-2.624.704-5.024 2.112-7.2 1.408-2.176 3.456-3.904 6.144-5.184 2.688-1.344 5.984-2.016 9.888-2.016 4.224 0 7.456.736 9.696 2.208 2.24 1.472 3.36 3.232 3.36 5.28 0 1.216-.384 2.24-1.152 3.072-.704.768-1.696 1.152-2.976 1.152-1.6 0-2.752-.64-3.456-1.92a18.364 18.364 0 0 1-1.632-4.032l-.672-2.4c-.256-.128-.736-.256-1.44-.384s-1.6-.192-2.688-.192c-3.904 0-6.784.896-8.64 2.688-1.792 1.792-2.688 3.808-2.688 6.048 0 2.048.64 3.904 1.92 5.568 1.344 1.6 2.976 3.104 4.896 4.512a122.58 122.58 0 0 1 5.664 4.416c1.92 1.536 3.52 3.264 4.8 5.184 1.344 1.856 2.016 4.064 2.016 6.624 0 1.6-.352 3.328-1.056 5.184-.64 1.856-1.728 3.616-3.264 5.28-1.472 1.6-3.488 2.912-6.048 3.936-2.496 1.024-5.6 1.536-9.312 1.536zm104.352 0c-1.792 0-3.264-.672-4.416-2.016-1.152-1.344-1.312-3.456-.48-6.336l9.888-33.312c.64-2.112.704-3.808.192-5.088-.448-1.28-1.664-1.92-3.648-1.92-2.688 0-5.28 1.536-7.776 4.608-2.432 3.008-4.832 8-7.2 14.976-2.368 6.976-4.8 16.352-7.296 28.128h-6.624l14.016-66.048h-11.712l.48-2.304 12-1.248 4.704-2.4h2.304l-4.32 20.16-6.912 23.712h1.44a106.553 106.553 0 0 1 3.168-8.448c1.216-2.88 2.624-5.536 4.224-7.968 1.6-2.496 3.424-4.48 5.472-5.952 2.112-1.536 4.448-2.304 7.008-2.304 2.944 0 5.12 1.024 6.528 3.072 1.472 2.048 1.664 4.864.576 8.448l-9.888 33.216-.288 1.44a2.958 2.958 0 0 0 .192 1.824c.256.512.896.768 1.92.768 1.28 0 2.368-.544 3.264-1.632.96-1.088 2.144-2.592 3.552-4.512l2.592-3.456 1.632 1.152-2.304 3.168c-1.984 2.752-3.904 5.152-5.76 7.2-1.792 2.048-3.968 3.072-6.528 3.072zm25.44 0c-2.56 0-4.704-1.184-6.432-3.552-1.664-2.432-2.368-6.176-2.112-11.232.128-2.752.608-5.824 1.44-9.216.896-3.456 2.112-6.912 3.648-10.368 1.6-3.456 3.456-6.656 5.568-9.6 2.176-2.944 4.576-5.312 7.2-7.104 2.688-1.792 5.6-2.688 8.736-2.688 1.6 0 2.944.224 4.032.672 1.152.384 1.952.8 2.4 1.248l4.608-1.92h2.304l-9.504 44.736c-.128.704-.16 1.568-.096 2.592.064.96.704 1.44 1.92 1.44 1.28 0 2.368-.544 3.264-1.632.96-1.088 2.144-2.592 3.552-4.512l2.592-3.456 1.632 1.152-2.304 3.168c-2.048 2.816-3.968 5.248-5.76 7.296-1.792 1.984-3.904 2.976-6.336 2.976-1.088 0-2.144-.32-3.168-.96-.96-.576-1.6-1.6-1.92-3.072-.32-1.536-.064-3.616.768-6.24l6.336-20.16h-1.44l-1.728 5.184c-.96 2.88-2.08 5.824-3.36 8.832-1.28 2.944-2.752 5.664-4.416 8.16-1.6 2.496-3.36 4.512-5.28 6.048-1.856 1.472-3.904 2.208-6.144 2.208zm1.92-3.84c1.6 0 3.168-.768 4.704-2.304 1.6-1.536 3.104-3.584 4.512-6.144 1.472-2.56 2.848-5.376 4.128-8.448a129.936 129.936 0 0 0 3.456-9.504 158.04 158.04 0 0 0 2.784-9.216c.768-2.88 1.344-5.312 1.728-7.296-.448-.832-1.312-1.664-2.592-2.496-1.216-.896-2.72-1.344-4.512-1.344-2.752 0-5.152 1.184-7.2 3.552-1.984 2.304-3.52 5.472-4.608 9.504l-6.336 22.752c-.832 3.008-.896 5.6-.192 7.776.768 2.112 2.144 3.168 4.128 3.168zm26.592 20.736v-3.264h9.984l11.904-56.064-10.368 6.72h-1.056v-4.992l12.096-4.608 3.744-17.76h6.432l-3.936 15.072h1.248c.512-.448 1.344-1.12 2.496-2.016 1.216-.96 2.656-1.824 4.32-2.592a12.451 12.451 0 0 1 5.28-1.152c3.2 0 5.568 1.312 7.104 3.936 1.6 2.624 2.4 6.208 2.4 10.752 0 3.136-.384 6.496-1.152 10.08a57.674 57.674 0 0 1-3.168 10.464c-1.344 3.392-3.072 6.496-5.184 9.312-2.048 2.816-4.416 5.056-7.104 6.72-2.624 1.664-5.536 2.496-8.736 2.496-1.344 0-2.56-.128-3.648-.384a27.813 27.813 0 0 1-2.976-.864l-3.168 14.88h15.264v3.264zm26.88-19.968c7.104 0 11.744-5.12 13.92-15.36l4.416-20.928c.768-3.584.576-6.304-.576-8.16-1.088-1.856-2.816-2.784-5.184-2.784-1.856 0-3.776.544-5.76 1.632-1.984 1.024-3.52 2.048-4.608 3.072l-8.544 40.608c.448.448 1.216.896 2.304 1.344 1.152.384 2.496.576 4.032.576zm19.2 19.968v-3.264h9.984l11.904-56.064-10.368 6.72h-1.056v-4.992l12.094-4.608 3.75-17.76h6.43l-3.94 15.072h1.25c.51-.448 1.34-1.12 2.5-2.016 1.21-.96 2.65-1.824 4.32-2.592a12.425 12.425 0 0 1 5.28-1.152c3.2 0 5.56 1.312 7.1 3.936 1.6 2.624 2.4 6.208 2.4 10.752 0 3.136-.38 6.496-1.15 10.08a58.001 58.001 0 0 1-3.17 10.464 39.895 39.895 0 0 1-5.18 9.312c-2.05 2.816-4.42 5.056-7.11 6.72-2.62 1.664-5.53 2.496-8.73 2.496-1.35 0-2.56-.128-3.65-.384a27.72 27.72 0 0 1-2.978-.864l-3.168 14.88h15.266v3.264zm26.878-19.968c7.11 0 11.75-5.12 13.92-15.36l4.42-20.928c.77-3.584.57-6.304-.58-8.16-1.09-1.856-2.81-2.784-5.18-2.784-1.86 0-3.78.544-5.76 1.632-1.99 1.024-3.52 2.048-4.61 3.072l-8.544 40.608c.448.448 1.214.896 2.304 1.344 1.15.384 2.5.576 4.03.576zm45.6 3.072c-4.41 0-7.93-1.696-10.56-5.088-2.56-3.456-3.84-8.096-3.84-13.92 0-4.16.67-8.288 2.02-12.384 1.34-4.096 3.2-7.84 5.57-11.232 2.43-3.392 5.24-6.08 8.44-8.064 3.27-2.048 6.79-3.072 10.56-3.072 3.59 0 6.47.96 8.64 2.88 2.24 1.856 3.36 4.448 3.36 7.776 0 3.2-.99 5.856-2.97 7.968-1.92 2.112-4.45 3.776-7.59 4.992-3.07 1.216-6.36 2.048-9.88 2.496-3.46.384-6.72.48-9.8.288l-1.15 5.28c-1.21 6.016-1.05 10.656.48 13.92 1.54 3.2 4.16 4.8 7.87 4.8 2.24 0 4.2-.512 5.86-1.536 1.73-1.024 3.17-2.272 4.32-3.744 1.22-1.536 2.18-3.04 2.88-4.512.77-1.472 1.31-2.624 1.63-3.456l1.44-3.936 2.4.768-1.15 3.168c-.58 1.664-1.41 3.456-2.5 5.376-1.02 1.92-2.3 3.744-3.84 5.472-1.47 1.664-3.23 3.04-5.28 4.128-1.98 1.088-4.28 1.632-6.91 1.632zm-5.18-31.68-.48 2.208c3.9.256 7.65-.032 11.23-.864 3.58-.896 6.53-2.368 8.83-4.416 2.31-2.112 3.46-4.832 3.46-8.16 0-2.432-.71-4.352-2.11-5.76-1.35-1.408-3.2-2.112-5.57-2.112-3.78 0-6.98 1.728-9.6 5.184-2.56 3.392-4.48 8.032-5.76 13.92zm63.74 31.68c-1.79 0-3.26-.672-4.41-2.016-1.16-1.344-1.32-3.456-.48-6.336l9.88-33.312c.64-2.112.71-3.808.2-5.088-.45-1.28-1.67-1.92-3.65-1.92-2.69 0-5.28 1.536-7.78 4.608-2.43 3.008-4.83 8-7.2 14.976-2.37 6.976-4.8 16.352-7.29 28.128h-6.63l9.31-43.776c.2-.896.29-1.792.29-2.688.07-.896-.41-1.344-1.44-1.344-1.02 0-2.01.544-2.97 1.632-.9 1.088-2.08 2.592-3.56 4.512l-2.49 3.36-1.63-1.248 2.2-2.976c2.05-2.816 3.94-5.216 5.67-7.2 1.73-2.048 3.71-3.072 5.95-3.072 1.73 0 3.17.672 4.32 2.016 1.15 1.344 1.25 3.456.29 6.336l-5.38 16.32h1.44c.9-2.688 1.95-5.472 3.17-8.352s2.62-5.536 4.22-7.968c1.6-2.496 3.43-4.512 5.48-6.048 2.11-1.536 4.44-2.304 7-2.304 2.95 0 5.12 1.024 6.53 3.072 1.47 2.048 1.67 4.864.58 8.448l-9.89 33.216c-.06.32-.16.8-.29 1.44-.06.64.03 1.248.29 1.824.26.512.86.768 1.82.768 1.09 0 2.15-.544 3.17-1.632 1.03-1.088 2.24-2.592 3.65-4.512l2.59-3.456 1.63 1.152-2.3 3.168c-1.98 2.752-3.9 5.152-5.76 7.2-1.79 2.048-3.97 3.072-6.53 3.072zm42.43-61.44c-1.21 0-2.24-.384-3.07-1.152-.83-.768-1.25-1.76-1.25-2.976 0-1.664.68-3.136 2.02-4.416 1.34-1.344 2.85-2.016 4.51-2.016 1.28 0 2.31.384 3.07 1.152.84.768 1.25 1.76 1.25 2.976 0 1.664-.67 3.168-2.01 4.512-1.35 1.28-2.85 1.92-4.52 1.92zm-6.43 61.44c-2.94 0-5.15-1.024-6.62-3.072-1.47-2.048-1.83-4.8-1.06-8.256l8.07-36.864h-16.23v-2.304l16.99-1.248 4.71-2.4h2.3l-9.41 42.816c-.44 2.048-.35 3.648.29 4.8.71 1.152 1.92 1.728 3.65 1.728 1.98 0 3.9-.896 5.76-2.688 1.92-1.856 4.03-4.288 6.34-7.296l2.11-2.784 1.82 1.344-2.11 2.88c-3.33 4.48-6.18 7.84-8.54 10.08-2.37 2.176-5.06 3.264-8.07 3.264zm56.16 0c-1.79 0-3.26-.672-4.41-2.016-1.16-1.344-1.32-3.456-.48-6.336l9.88-33.312c.64-2.112.71-3.808.2-5.088-.45-1.28-1.67-1.92-3.65-1.92-2.69 0-5.28 1.536-7.78 4.608-2.43 3.008-4.83 8-7.2 14.976-2.37 6.976-4.8 16.352-7.29 28.128h-6.63l9.31-43.776c.2-.896.29-1.792.29-2.688.07-.896-.41-1.344-1.44-1.344-1.02 0-2.01.544-2.97 1.632-.9 1.088-2.08 2.592-3.56 4.512l-2.49 3.36-1.63-1.248 2.2-2.976c2.05-2.816 3.94-5.216 5.67-7.2 1.73-2.048 3.71-3.072 5.95-3.072 1.73 0 3.17.672 4.32 2.016 1.15 1.344 1.25 3.456.29 6.336l-5.38 16.32h1.44c.9-2.688 1.95-5.472 3.17-8.352s2.62-5.536 4.22-7.968c1.6-2.496 3.43-4.512 5.48-6.048 2.11-1.536 4.44-2.304 7-2.304 2.95 0 5.12 1.024 6.53 3.072 1.47 2.048 1.67 4.864.58 8.448l-9.89 33.216c-.06.32-.16.8-.29 1.44-.06.64.03 1.248.29 1.824.26.512.86.768 1.82.768 1.09 0 2.15-.544 3.17-1.632 1.03-1.088 2.24-2.592 3.65-4.512l2.59-3.456 1.63 1.152-2.3 3.168c-1.98 2.752-3.9 5.152-5.76 7.2-1.79 2.048-3.97 3.072-6.53 3.072zm28.42 19.488c-3.39 0-6.56-.448-9.51-1.344-2.94-.832-5.31-2.144-7.1-3.936-1.79-1.792-2.69-4.064-2.69-6.816 0-2.112.58-4 1.73-5.664 1.09-1.6 2.5-2.976 4.22-4.128a24.561 24.561 0 0 1 5.76-2.88c2.05-.704 4.04-1.184 5.96-1.44v-.672a11.425 11.425 0 0 1-3.08-2.496c-.89-1.024-1.34-2.336-1.34-3.936 0-2.112.7-3.84 2.11-5.184 1.47-1.408 2.91-2.496 4.32-3.264v-.48c-2.3-.96-4-2.464-5.09-4.512-1.08-2.112-1.63-4.448-1.63-7.008 0-3.52.9-6.752 2.69-9.696a20.963 20.963 0 0 1 7.1-7.104c3.01-1.792 6.28-2.688 9.8-2.688 1.08 0 2.04.096 2.88.288.89.128 1.72.352 2.49.672h16.61l-.58 2.976h-11.9a11.18 11.18 0 0 1 2.11 3.936c.45 1.472.67 3.04.67 4.704 0 3.52-.89 6.752-2.68 9.696-1.8 2.944-4.16 5.312-7.11 7.104-2.94 1.792-6.21 2.688-9.79 2.688h-1.34l-1.16-.192c-.83.32-1.79.832-2.88 1.536-1.02.704-1.53 1.76-1.53 3.168 0 1.536.61 2.624 1.82 3.264 1.22.64 2.4 1.216 3.55 1.728l7.01 2.784c1.09.448 2.37.992 3.84 1.632 1.47.576 2.91 1.376 4.32 2.4 1.41.96 2.56 2.208 3.46 3.744.96 1.472 1.44 3.296 1.44 5.472 0 3.392-1.19 6.24-3.55 8.544-2.37 2.368-5.41 4.128-9.12 5.28-3.72 1.216-7.65 1.824-11.81 1.824zm6.33-43.872c3.27 0 5.89-1.088 7.88-3.264 1.98-2.176 3.29-4.864 3.93-8.064l.87-4.032c.7-3.456.57-6.208-.39-8.256s-2.94-3.072-5.95-3.072c-3.2 0-5.79 1.088-7.78 3.264-1.92 2.176-3.23 4.864-3.93 8.064l-.87 4.032c-.7 3.456-.6 6.208.29 8.256.96 2.048 2.95 3.072 5.95 3.072zm-4.12 40.416c2.94 0 5.66-.384 8.16-1.152 2.49-.704 4.51-1.792 6.04-3.264 1.6-1.408 2.4-3.168 2.4-5.28 0-1.984-.57-3.584-1.72-4.8a11.82 11.82 0 0 0-3.94-2.88 78.081 78.081 0 0 0-4.03-1.728l-7.39-2.88-2.4.672c-1.99.512-4 1.216-6.05 2.112-1.99.832-3.65 1.952-4.99 3.36-1.35 1.472-2.02 3.328-2.02 5.568 0 3.264 1.47 5.792 4.42 7.584 3 1.792 6.84 2.688 11.52 2.688zm58.94-88.032h6.72l-13.63 54.528h-2.69zm-12 72c-1.28 0-2.34-.384-3.17-1.152-.77-.768-1.15-1.76-1.15-2.976 0-1.664.67-3.136 2.02-4.416 1.34-1.344 2.84-2.016 4.51-2.016 1.28 0 2.3.384 3.07 1.152.83.768 1.25 1.76 1.25 2.976 0 1.664-.67 3.168-2.02 4.512-1.34 1.28-2.85 1.92-4.51 1.92zM708 158.24h273.622v5.9H708zM981.576 151.75h398.844v5.9H981.576ZM708 276h184.32v4.8H708zM892.32 281.28h168.89v4.8H892.32Z"/><path fill="#5c4594" d="M708 390h600.96v4.8H708Z"/></svg>