<svg xmlns="http://www.w3.org/2000/svg" width="165.348" height="51.485" fill="none"><g clip-path="url(#a)" transform="translate(0 -8.403)"><path stroke="#e85554" d="m108.075 48.634-37.29.023.023-37.479 16.864-.01 20.414 20.421z"/><mask id="b" width="69" height="69" x="51" y="0" maskUnits="userSpaceOnUse"><path fill="#fff" d="M119.348 38.36 80.988 0 51.056 29.93l38.36 38.36 29.931-29.93Z"/></mask><g mask="url(#b)"><path fill="#e85554" d="M82.349 40.111c.002-3.374-1.485-6.057-4.364-6.051-2.875.001-4.369 2.675-4.374 6.06-.002 3.383 1.488 6.054 4.363 6.053 2.875-.002 4.365-2.68 4.375-6.062zm-3.136.002c-.002 2.485-.498 3.293-1.23 3.293s-1.23-.81-1.226-3.291c.006-2.48.495-3.288 1.234-3.289.735-.004 1.23.81 1.229 3.287m12.522 5.877.007-11.762-2.89.002-.003 5.316-2.393-5.314-3.06-.002-.015 11.769 2.89-.002.003-5.446 2.466 5.452 2.991-.01zm8.483-9.04.002-2.73-6.888.004-.007 11.761 3.049-.002.003-4.591 3.121-.002.002-2.73-3.122.001.001-1.709 3.843.001zM82.216 26.492l.002-7.992-2.955.002-.005 7.923c0 .695-.461 1.127-1.214 1.12-.753-.007-1.199-.423-1.194-1.13l.005-7.922-3.05.002-.001 7.992c-.002 2.47 1.74 3.942 4.209 3.94 2.47-.001 4.209-1.48 4.21-3.95l.008.008zm9.692 3.77.004-11.757-2.901.012-.003 5.316-2.38-5.328-3.063.002-.008 11.761 2.89-.002.01-5.446 2.467 5.452 2.984-.002v-.007zm9.45-3.934-3.074.005c-.106 1.127-.353 1.373-.816 1.373-.992.001-1.107-1.201-1.11-3.327-.002-2.126.13-3.292 1.114-3.292.406 0 .688.195.76 1.18l3.049-.002c-.147-2.647-1.247-3.943-3.742-3.938-3.064.002-4.296 2.024-4.302 6.061-.003 4.034 1.227 6.054 4.222 6.056 2.694-.002 3.683-1.128 3.913-4.102l-.01-.01z"/></g></g><path fill="#e85554" d="M38.092 27.179c-.17.264-.728.282-.918.347-1.374-.484-1.718-1.43-1.729-2.466-.01-1.075-.462-2.594.89-2.975 1.358-.381 1.893 1.058 2.205 2.088.298.98.13 2.099-.448 3.009m21.742 11.455c-.547-1.985-2.17-3.393-2.806-5.293-2.083-6.246-5.83-12.008-5.368-19.016.094-1.411-1.065-2.56-2.698-2.415-1.67.148-1.808 1.496-1.757 2.82.03.792.235 1.585.207 2.37-.05 1.47.144 3.6-1.806 3.545-2.352-.072-1.077-2.142-1.05-3.425.024-1.394-.375-2.56-1.727-3.112-1.248-.51-2.514-.52-3.552.54-.816.837-1.267 2.205-2.936 1.59-1.584-.585-1.738-1.87-1.837-3.233-.153-2.062-.275-4.124-.436-6.186-.15-1.92-.904-3.351-3.107-3.217-1.428.088-2.049 1.063-1.714 2.406 1.44 5.785 1.286 11.653.977 17.53-.025.463.11 1.233-.544 1.336-.708.108-.78-.671-.904-1.146-.507-1.934-.796-3.937-1.448-5.817-.63-1.82-2.058-2.796-4.056-2.213-2.027.592-2.183 2.12-1.69 3.903.318 1.143.718 2.303.774 3.47.054 1.132.47 3.046-.893 3.15-1.473.115-1.49-1.811-1.63-3.051-.217-1.931.063-4.147-2.36-4.872-2.112-.631-3.843.302-4.99 2.082-1.305 2.02-2.575 2.076-4.38.555-2.282-1.92-5.61-1.94-7.15-.043-1.878 2.31-.67 4.454.96 6.274 1.261 1.408 1.581 2.882 1.221 4.657-.366 1.808-.198 3.572.677 5.244 1.27 2.427 3.28 1.969 5.278 1.34 2.403-.754 3.231-2.62 3.265-4.975.034-2.284-1.049-4.67.352-6.817.833-1.28 1.998-2.554 3.086-.114.873 1.957 1.516 4.036 2.551 5.899 1.686 3.037 4.563 2.983 6.318 0 .853-1.454.595-3.166.994-4.727.114-.45.23-.96.72-1.002.21-.02.567.419.68.714.41 1.067.837 2.14 1.086 3.249 1.066 4.7 6.763 6.769 10.73 3.956 2.067-1.465 2.53-3.718 3.323-5.837.348-1.012.34-2.64 1.731-2.488 2.665.287 3.95-.916 4.63-3.251.13-.447.393-1.035.931-.91.35.082.76.58.85.964.9 3.709 2.41 7.167 4.19 10.52.226.427.357.95-.1 1.315-.439.352-.949.207-1.385-.06-1.296-.788-1.202-2.23-1.56-3.45-.657-2.25-2.698-3.16-4.503-1.982-2.177 1.419-3.172 4.678-1.81 6.883 2.635 4.269 7.071 5.512 11.61 6.248 2.405.39 3.71-1.53 3.054-3.91"/><g fill="#e85554" clip-path="url(#c)" transform="translate(0 -8.403)"><path d="M144.337 36.928c.121-1.366 1.063-2.584 2.598-3.148 2.418-.888 3.903-2.917 5.837-4.387 1.461-1.11 3.131-1.197 4.714-.336 2.168 1.185 2.091 3.039 1.559 5.195-.383 1.55-1.268 2.795-1.8 4.215-.508 1.357.879 1.752 1.744 1.951 7.027 1.613 7.514 8.234 4.918 13.156-1.06 2.013-1.945 4.297-4.042 5.456-3.057 1.687-6.048.823-8.388-2.017-1.337-1.622-3.024-3.012-3.193-5.317-.125-1.69.44-3.074 2.005-3.858 1.844-.927 3.264.009 4.574 1.206.544.499 1.013 1.099 1.607 1.52.561.399 1.304.79 1.853-.014.838-1.224.196-2.406-.371-3.472-1.476-2.78-3.641-1.44-5.703-.883-2.008.544-3.656-.285-4.642-1.954-1.052-1.78-.178-3.422 1.019-4.865.617-.743 1.434-1.185 2.325-1.527.407-.157.752-.448.71-.935-.015-.173-.214-.425-.377-.47-.463-.128-.796.146-1.066.505-1.854 2.483-3.55 3.003-5.397 1.681-.499-.356-.467-.852-.49-1.71"/><path d="M136.614 31.953c2.026.018 3.629.22 4.922 1.108 2.01 1.378 1.981 3.371.359 5.771-1.601 2.365-3.059 4.827-4.53 7.274-.389.648.149 1.251.493 1.726.678.933 1.771 1.212 2.825 1.081 2.391-.297 4.723-.656 6.591 1.456 1.354 1.532.942 3.104.042 4.526-.793 1.257-2.178 1.572-3.651 1.322-2.501-.419-4.63-2.542-7.449-1.547-.983.347-2.026.6-3.059.712-2.166.235-4.165-.175-5.216-2.349-1.108-2.293-.247-4.337 1.411-5.91 2.01-1.908 4.185-3.598 5.189-6.34.609-1.665-.092-1.968-1.536-1.894-1.247.065-2.73.309-3.341-1.12-.624-1.461.002-2.768 1.167-3.831 1.779-1.625 3.989-1.827 5.783-1.985z"/><path d="M132.687 10.12c2.846-.063 4.447.754 5.546 2.447 1.399 2.153.909 4.286-.199 6.374-1.007 1.898-2.442 3.434-4.102 4.779-.318.258-.544.63-.345 1.084.327.743.903 1.135 1.711 1.23 1.402.163 2.869.148 4.063 1.033.437.321.989.808.787 1.435-.537 1.67-1.241 3.336-3.389 3.261-3.133-.107-5.955.927-8.839 1.946-1.746.618-3.662.228-4.803-1.349-1.396-1.933-.808-4.473 1.019-6.193 2.186-2.058 5.269-3.169 6.534-6.198.256-.612.69-1.254.211-1.85-.49-.616-1.182-.45-1.892-.212-1.271.422-2.78 1.132-3.712-.35-1.016-1.616-.297-3.13 1.116-4.191 2.121-1.592 4.352-3.021 6.288-3.244"/><path d="M151.394 19.55c.074-2.377-1.165-4.429-2.7-4.477-2.136-.065-4.242 1.982-4.055 4.37.137 1.746.211 3.977 2.593 4.351 2.053.32 4.087-1.93 4.162-4.241m-2.956 10.66c-3.341-.069-5.408-2.364-7.372-4.533-3.567-3.941-3.436-6.457.161-11.622 1.024-1.47 1.105-3.46 2.661-4.637 2.632-1.987 5.067-.644 7.44.481 6.603 3.134 6.526 11.192 2.65 16.304-1.459 1.922-2.679 4.051-5.54 4.007z"/></g><defs><clipPath id="a"><path fill="#fff" d="m80.987 0 38.36 38.36-29.93 29.931-38.36-38.36z"/></clipPath><clipPath id="c"><path fill="#fff" d="M122.348 8.4h43v51.49h-43z"/></clipPath></defs></svg>