<svg xmlns="http://www.w3.org/2000/svg" width="117.734" height="118.312" fill="none"><g clip-path="url(#a)" transform="translate(-59.1 -32.79)"><path stroke="#5b4594" stroke-width="4" d="m174.801 149.028-113.699.072.073-114.277 51.18-.033 62.479 62.5Z"/><mask id="b" width="211" height="210" x="-1" y="0" maskUnits="userSpaceOnUse"><path fill="#fff" d="M209.913 117.913 92 0 0 92l117.913 117.913Z"/></mask><g mask="url(#b)"><path fill="#e85554" d="M96.185 123.295c.006-10.374-4.563-18.619-13.412-18.603-8.838.006-13.43 8.224-13.447 18.631-.007 10.396 4.574 18.608 13.412 18.602 8.838-.005 13.418-8.234 13.447-18.63zm-9.64.006c-.005 7.636-1.531 10.119-3.78 10.12-2.248.002-3.783-2.491-3.767-10.115.016-7.625 1.52-10.108 3.791-10.11 2.26-.012 3.783 2.491 3.778 10.105m38.491 18.063.023-36.153-8.883.005-.01 16.341-7.358-16.336-9.406-.005-.045 36.176 8.882-.006.011-16.741 7.581 16.758 9.194-.028zm26.075-27.788.005-8.393-21.171.014-.023 36.153 9.373-.006.009-14.114 9.595-.006.005-8.393-9.595.006.003-5.254 11.81.004zM95.777 81.432l.005-24.566-9.083.005-.016 24.355c-.001 2.137-1.416 3.463-3.73 3.442-2.316-.021-3.684-1.3-3.672-3.47l.016-24.355-9.372.006-.005 24.566c-.005 7.59 5.346 12.118 12.938 12.113 7.59-.005 12.937-4.55 12.942-12.141l.022.022zm29.79 11.59.012-36.142-8.916.039-.01 16.34-7.314-16.38-9.417.006L99.9 93.04l8.883-.006.033-16.741 7.58 16.758 9.172-.006zm29.049-12.095-9.451.017c-.325 3.462-1.082 4.219-2.507 4.22-3.05.002-3.403-3.693-3.41-10.227-.007-6.534.396-10.118 3.423-10.12 1.247-.001 2.115.6 2.335 3.627l9.373-.006c-.451-8.137-3.833-12.12-11.502-12.103-9.417.006-13.205 6.22-13.224 18.63-.008 12.4 3.772 18.609 12.978 18.614 8.281-.005 11.322-3.469 12.029-12.608l-.033-.033z"/></g></g><defs><clipPath id="a"><path fill="#fff" d="m92 0 117.913 117.913-92 92L0 92z"/></clipPath></defs></svg>