<svg width="341" height="251" xmlns="http://www.w3.org/2000/svg"><path d="M82.939 174.279h174.28V0H82.939v174.279Zm130.093-51.121c-.696.267-5.514.454-2.106.842 2.141.24-1.303.411-1.292 1.182.705-.02 1.77 1.336 2.048 1.294.038.203-2.117.777-1.661.842 1.831.258-1.549.382-1.326.82.634 1.25-.31.825.878 1.398.637.307.449 1.427.031 1.521-.545.122-.709.414-1.209.46-.069.453-.481.664-1.027.742-1.183.441-2.509.942-3.787 1.072-.826.086-.789.164-1.61.008-.878.114-2.218.187-3.096.103-.725.177-11.574.811-12.482.689-.722.155-5.065.303-5.954.176-.901.171-8.431.374-9.212.284-.914.159-2.324.223-3.245.101-.912.178-2.327.211-3.251.105-.896.169-20.801-.307-21.771-.456-.939.117-5.595-.039-6.518-.198-.774.115-1.937.036-2.714-.083-.901.129-2.306.057-3.183-.187-.505-.142-.834-.066-1.051-.567-.178-.416-.131-.669-.464-.845-.391-.208-.414-1.096-.157-1.43-.431-.914.168-2.622-.176-3.886-.206-.753.198-.713.565-1.397-.431.027-.524-.742-.474-.884.279-.797-.13-1.185.467-1.861.358-.405.194-.738.835-.738.464 0 1.024.002 1.479.076a15.477 15.477 0 0 1 3.262.123c2.014-.138 11.079.194 13.036.505 1.872-.131 4.11 0 5.975.224 2.004-.102 35.611-.359 37.435-.446 2.005-.096 4.264-.399 6.256-.203 1.433-.237 3.271-.094 4.683.18 1.301-.045 1.912-.518 3.185-.451.081-.13 2.031.299 2.239.311.177-.305 1.925-.04 2.335-.016.45.031 3.471.429 3.057.59Zm1.016-15.021c.08.269.22.501.425.705-2.121-1.249-3.982-2.833-6.005-4.209.157.713 4.473 3.062 4.21 3.545-.061.128-5.591-3.965-5.671-3.897-.343.247.931 1.558.661 1.497.05.042 1.037.769.924.888-.227.084 5.919 4.688 5.379 5.339-.219.257-1.894-1.274-2.121-1.383.161.261.348.498.568.714-1.308-.776-2.364-1.849-3.602-2.711.164.306.393.565.683.776-1.032.007-3.221-2.595-4.112-3.12-.287-.156-1.656-1.487-1.861-1.404a.213.213 0 0 0 .065.215 4.353 4.353 0 0 1-1.347-.97c.024.219-1.433-1.862-2.015-1.604.357.346.711.693 1.062 1.041-1.174.255-2.117-2.684-3.701-2.022.128-.053 6.537 6.022 6.708 6.441-.02-.05-.379-.125-.394-.171.392 1.299 2.199 2.513 3.09 3.46-2.076-1.433-4.082-3.389-6.139-4.507-.807-.438-1.063-1.279-1.837-.843-.167.091-1.906-1.108-2.11-1.311-.037.32.017.623.158.912-1.626-1.284-3.168-3.175-5.072-4.09.437.624.854 1.14.973 1.411.136.304.348.51.415.854-2.74-2.193-5.458-4.457-8.067-6.808-.566-.507-3.458-3.169-3.914-2.354-.928-.841-7.135-6.154-8.413-6.409 1.03.849 1.933 1.82 2.937 2.688-.241.187-2.876-2.104-3.249-2.418a166.461 166.461 0 0 1-3.636-3.194c-.745-.678-1.46-1.349-2.182-2.014-1.342 1.056-3.611 2.966-3.932 3.222-.385.315-.833.506-1.217.911-1.03 1.091-2.227 2.037-3.436 2.944-1.529 1.147-2.887 2.501-4.437 3.676.017-.205.262-.247.151-.523-.402.318-.8.607-1.171.934-2.075 1.794-4.149 3.587-6.21 5.394-1.546 1.356-3.042 2.771-4.621 4.092-1.736 1.444-3.394 2.978-5.116 4.433-1.747 1.481 2.431-1.23.819.403-.271.269-.592.5-.925.684-.418.238-.712.597-1.081.882-.423.321-.93.551-1.43.839.05-.562.046-.544-.51-.708-.432-.128-.764-.482-1.009-.797-.356-.464-1.358-2.406-1.688-3.826a.608.608 0 0 1-.009-.293c.273-1.073-.019-2.095-.376-3.108-.432-1.218-.386-2.489-.488-3.74-.06-.778.564-1.265 1.035-1.762.979-1.046 1.947-2.136 3.066-3.031.73-.587 1.43-1.254 2.323-1.66.671-.309 1.073-.98 1.594-1.489.61-.599 1.305-1.122 1.878-1.734.839-.888 2.091-1.341 2.926-2.24.727-.784 8.074-6.885 9.078-7.734 1.667-1.402 3.231-2.8 4.89-4.17-.235-.202-.468-.402-.708-.611-1.946-1.68-4.119-3.639-6.143-5.315-2.006-1.659-3.975-3.454-5.976-5.193-3.154-2.739-6.158-4.553-9.395-7.229-1.673-1.379-5.316-3.865-5.686-6.078-.256-1.537 1.881-3.113 2.592-4.167-.03.042 3.204-5.009 4.221-4.592.302.127.701-.31 1.42-.041 1.183.442 1.988 1.485 2.871 2.316 2.845 2.684 5.817 5.231 8.764 7.788 6.118 5.309 11.954 9.972 17.923 15.149.348-.26.699-.524 1.046-.79 1.225-.932 2.513-1.792 3.751-2.714 1.576-1.156 3.177-2.27 4.778-3.398.759-.541 1.555-1.036 2.294-1.599 1.417-1.089 2.917-2.062 4.394-3.059 1.987-1.339 3.989-2.654 5.995-3.979a55.569 55.569 0 0 1 3.6-2.222c.534-.299.972-.784 1.591-.977.248-.082.463-.238.763-.43a98.154 98.154 0 0 1 5.203-3.07c2.141-1.189 4.264-2.422 6.474-3.494.586-.284 1.2-.72 2.015-.737-.442.554-.973.875-1.465 1.312.478.247 1.352-.503 1.449-.32.135.25-.226.684-.115.63.318-.159.602-.421 1.034-.451-.285.475-.715.701-1.091 1.019.582-.106 1.021-.61 1.754-.667-.728.625-1.529.867-2.214 1.306-.51.34-1.083.601-1.629.892-.02.006-.054.011-.054.024-.103.589-.701.711-1.041 1.103.564-.025 1.028-.272 1.479-.561.18.137-.089.231-.017.4 1.849-.687 3.4-2.026 5.335-2.568-.706.452-1.41.923-2.122 1.354-.562.342-1.072.759-1.662 1.073-.489.259-1.031.427-1.486.761-.154.117-.49.232-.341.479.16.282.455.209.736.045.845-.483 1.7-.936 2.555-1.396.061-.031.151-.005.228-.005-.232.742-.97 1.008-1.414 1.637.52-.077.819-.445 1.252-.578.751-.219 1.46-.539 2.29-.555.539-.012 1.072-.389 1.664-.517-.454.315-.926.619-1.367.962-.143.111-.496.103-.351.475.167.428.436.183.66.096.259-.099.513-.238.765-.362.083-.043.152-.049.191.052.032.084.03.165-.08.189-.533.101-.924.472-1.344.773-.419.309-.814.653-1.226.992.075.278.39-.235.442.11.044.277-.234.288-.356.343-2.042.906-3.7 2.422-5.56 3.607a291.97 291.97 0 0 1-3.258 1.997 64.011 64.011 0 0 0-2.395 1.523c-.102.063-.353.076-.215.338.123.242.251.16.438.072 1.167-.561 2.316-1.185 3.301-2.016.621-.522 1.369-.706 2.011-1.153.795-.556 3.688-2.35 4.883-3.059.636-.382.609-.427 1.226-.172-.163.254-.486.287-.67.496-.583.621-1.229 1.155-1.879 1.679-.617.503-1.267.961-1.926 1.399-.275.182-.519.365-.673.68 2.017-.961 3.79-2.363 5.779-3.387-.637.714-1.528 1.05-2.288 1.586-1.183.84-2.559 1.381-3.599 2.433-.267.271-.678.188-.984.45-1.167.981-2.623 1.524-3.803 2.477-.435.355-.924.636-1.341 1.013-.167.147-.323.308-.549.358-1.132.249-1.769 1.277-2.737 1.788-.613.328-1.138.834-1.752 1.12-.729.351-1.377.836-2.015 1.276-1.045.726-2.039 1.532-3.085 2.273-.56.388-1.26.574-1.691 1.162l.004-.011c-.876.357-1.536 1.036-2.309 1.548a48.753 48.753 0 0 0-3.717 2.738c-.247.203-.466.434-.719.633l.021-.025c-.853.05-1.107.909-1.86 1.221.333.18-.894.721-.98.782-.603.416-1.304.325-1.782.864-.21.234-.644.489-1.03.717 7.21 6.134 14.502 12.125 21.417 18.39 3.686 3.34 7.612 6.468 11.545 9.57 2.392 1.887 8.771 7.825 9.521 8.37-.288.256-4.005-2.596-4.489-2.988ZM82.935 242.256h18.122v7.731h-26.93v-36.37h8.808v28.639Zm-45.143 7.731h27.417v-7.623H46.6v-6.671h16.236v-7.461H46.6v-6.993h18.609v-7.622H37.792v36.37Zm70.782 0h27.416v-7.623h-18.606v-6.671h16.233v-7.461h-16.233v-6.993h18.606v-7.622h-27.416v36.37Zm-83.293-33.276c2.596 2.438 4.024 5.768 4.024 9.373 0 2.698-.958 5.419-3.105 8.817l-9.502 15.086H6.815l6.891-10.846.056-.088-.259-.016C5.553 238.563 0 233.304 0 226.247c0-7.788 6.174-13.44 14.679-13.44 4.16 0 7.925 1.386 10.602 3.904Zm-4.138 9.212c0-3.375-2.886-6.123-6.436-6.123-3.549 0-6.438 2.748-6.438 6.123 0 3.377 2.889 6.124 6.438 6.124 3.55 0 6.436-2.747 6.436-6.124Zm143.406 7.395-13.134-19.701h-6.507v36.37h8.754l.001-18.869 8.471 13.098h4.832l8.417-12.987v18.758h8.807v-36.37h-6.559l-13.082 19.701Zm107.004-11.864h11.703v28.533h8.808v-28.533h11.651v-7.837h-32.162v7.837Zm57.667 7.207-5.125-1.188c-2.596-.559-4.325-1.386-4.325-3.6 0-1.196.522-2.183 1.511-2.852.937-.634 2.277-.968 3.873-.968 3.434 0 5.473 1.561 6.062 4.637h8.873c-.31-2.878-2.344-11.883-15.528-11.883-4.233 0-7.837 1.108-10.421 3.202-2.608 2.116-3.989 5.095-3.989 8.619 0 5.706 3.339 9.088 10.505 10.637l6.042 1.349c2.694.511 4.003 1.582 4.003 3.277 0 2.156-1.941 3.39-5.33 3.39-4.322 0-7.174-1.886-7.839-5.179h-8.819c.433 4.146 2.258 7.372 5.425 9.593 2.844 1.993 6.633 3.047 10.963 3.047 9.147 0 15.057-4.619 15.057-11.768 0-5.56-3.272-8.645-10.938-10.313Zm-135.084 21.326h27.417v-7.623h-18.609v-6.671h16.235v-7.461h-16.235v-6.993h18.609v-7.622h-27.417v36.37Zm60.984-15.453-17.915-20.917h-6.735v36.37h8.81v-20.373l17.806 20.373h6.842v-36.37h-8.808v20.917Z" fill="#000203" fill-rule="evenodd"/></svg>