<svg id="Layer_1" data-name="Layer 1" viewBox="0 0 673.81 236.68" version="1.1" xmlns="http://www.w3.org/2000/svg"><defs id="defs127"><style id="style125">.cls-1{fill-rule:evenodd}</style></defs><g id="D_Logo" data-name="D Logo" style="fill:#00f"><path id="Lower_2" data-name="Lower 2" class="cls-1" d="M143.41 270.1v31.06a18.66 18.66 0 0 0 7.74 17.11l53.34 38.52 56.07 38a19.57 19.57 0 0 0 22.09-.13L339.73 355c21.29-14.8 31-35.52 29.19-55.73v-25.62c-1.52 17-11.23 33.75-29.19 46.23l-57.11 39.71a19.57 19.57 0 0 1-22.09.13l-56.07-38-53.34-38.52a18.66 18.66 0 0 1-7.71-13.1Z" transform="translate(-143.29 -161.48)" style="fill:#00f"/><path id="Lower_1" data-name="Lower 1" class="cls-1" d="M143.41 200.41v31.06a18.66 18.66 0 0 0 7.74 17.11l53.34 38.52 56.07 38a19.57 19.57 0 0 0 22.09-.13l57.11-39.71c21.29-14.8 31-35.52 29.19-55.73V204c-1.52 17-11.23 33.75-29.19 46.23l-57.14 39.67a19.57 19.57 0 0 1-22.09.13l-56.07-38-53.33-38.53a18.66 18.66 0 0 1-7.72-13.09Z" transform="translate(-143.29 -161.48)" style="fill:#00f"/><path id="Inner" d="m316.95 178.67-10.37-7.08c-23.63-13.86-48-13.18-72.78.3L197.35 197a1.87 1.87 0 0 0 0 3.27l25.3 18L239 207l-.66.34 1.67-1-1 .7c24.58-13.38 48.79-14.15 72.26-.6l-.55-.37.55.37.52.3 10.37 7.08c.38.26.74.53 1.1.79 11.57-11.61 9.46-25.26-6.31-35.94Z" transform="translate(-143.29 -161.48)" style="fill:#00f"/></g><path id="D" d="M421.78 315.5a5.7 5.7 0 0 1-1.27-4.05v-91a5.94 5.94 0 0 1 1.27-4.2q1.27-1.35 4.27-1.35h30q25.35 0 38.78 12.15t13.43 38.85q0 51-52.2 51h-30q-3-.05-4.28-1.4Zm35.48-13.2q15.9 0 23.92-8.25t8-28.2q0-19.95-8-28.12t-23.92-8.17h-17.55v72.74h17.55Z" transform="translate(-143.29 -161.48)" style="fill:#00f"/><path id="E" d="M535.66 315.12a33.39 33.39 0 0 1-15.08-12.3Q515 294.5 515 282.05q0-19.35 10.35-29.4t29.4-10.05q18.9 0 28.57 9.75t9.68 28.2q0 5.25-4.8 5.25h-55.09q0 9.9 6.9 15.22t19.2 5.32a42.15 42.15 0 0 0 21.3-5.4 3.7 3.7 0 0 1 1.65-.6 1.86 1.86 0 0 1 1.65 1.35l3.6 6.45a3.74 3.74 0 0 1 .45 1.65 2.47 2.47 0 0 1-1.35 2 47.86 47.86 0 0 1-13.28 5.55 67.33 67.33 0 0 1-16.42 1.8 54.07 54.07 0 0 1-21.15-4.02Zm39.9-40.42q0-9.3-5.18-14.55t-15.52-5.25q-10.5 0-16.12 5.4t-5.62 14.4h42.45Z" transform="translate(-143.29 -161.48)" style="fill:#00f"/><path id="P" d="M603.94 345.69a5.7 5.7 0 0 1-1.27-4.05v-89.52a.35.35 0 0 1 .15-.29 50.05 50.05 0 0 1 15.08-6.65 69.85 69.85 0 0 1 19.12-2.7q43.5 0 43.5 38.4 0 17.7-9.53 27.9T644.81 319c-9.1 0-20.68-1-22.88-1.17a.34.34 0 0 0-.37.34v23.48a5.67 5.67 0 0 1-1.28 4.13Q619 347 615.86 347h-7.65q-3 0-4.27-1.31Zm52.28-46.8q5.25-6.45 5.25-18.6 0-13-6.15-18.53t-18.9-5.47q-9.29 0-14.66 2.75a.35.35 0 0 0-.19.31V304a.33.33 0 0 0 .31.34c2 .15 13.61 1 18.44 1q10.68 0 15.89-6.45Z" transform="translate(-143.29 -161.48)" style="fill:#00f"/><path id="F" d="M695 315.5a5.7 5.7 0 0 1-1.27-4.05v-52.5h-7q-3 0-4.13-1.27a6.17 6.17 0 0 1-1.12-4.13v-3.45a5.87 5.87 0 0 1 1.12-4.05q1.13-1.2 4.13-1.2h7v-5.55q0-12.6 6.75-19.65t20.25-7.05q13.65 0 21.45 5.85a2.55 2.55 0 0 1 1.35 2.1 2.59 2.59 0 0 1-.6 1.65l-3.75 6.3a2.41 2.41 0 0 1-1.65 1.35 4.71 4.71 0 0 1-1.65-.6 34 34 0 0 0-5.47-2.48 18.38 18.38 0 0 0-5.78-.83q-6.45 0-9.07 3.15T713 239v5.85h18.45q3 0 4.2 1.2a5.61 5.61 0 0 1 1.2 4.05v3.45a5.89 5.89 0 0 1-1.2 4.13q-1.2 1.27-4.2 1.27H713v52.5a5.71 5.71 0 0 1-1.28 4.05q-1.28 1.35-4.43 1.35h-8q-2.98 0-4.29-1.35Z" transform="translate(-143.29 -161.48)" style="fill:#00f"/><path id="U" d="M780 305.45q-7.35 0-11.1-3.38t-3.75-10.57v-41.1a5.72 5.72 0 0 0-1.35-4.2 6 6 0 0 0-4.35-1.35h-8q-3 0-4.27 1.35a5.94 5.94 0 0 0-1.27 4.2V292c0 9 3.22 15.09 7.5 20.32 5.59 6.82 17.38 6.82 25.58 6.82h5c8.2 0 20 0 25.58-6.82 4.28-5.23 7.5-11.33 7.5-20.32v-41.6a5.94 5.94 0 0 0-1.27-4.2q-1.27-1.35-4.27-1.35h-8a6 6 0 0 0-4.35 1.35 5.72 5.72 0 0 0-1.35 4.2v41.1q0 7.2-3.75 10.57T783 305.45" transform="translate(-143.29 -161.48)" style="fill:#00f"/></svg>