<svg xmlns="http://www.w3.org/2000/svg" xmlns:xlink="http://www.w3.org/1999/xlink" viewBox="0 0 1231.33 202.54"><defs><linearGradient id="Unbenannter_Verlauf_3" x1="436.31" y1="95.68" x2="325.24" y2="61.49" gradientUnits="userSpaceOnUse"><stop offset="0" stop-color="#f1841a"/><stop offset="1" stop-color="#face00"/></linearGradient><linearGradient id="Unbenannter_Verlauf_3-2" x1="453.55" y1="161.41" x2="570.19" y2="163.99" xlink:href="#Unbenannter_Verlauf_3"/><linearGradient id="Unbenannter_Verlauf_3-3" x1="266.97" y1="354.51" x2="442.45" y2="92.84" xlink:href="#Unbenannter_Verlauf_3"/><linearGradient id="Unbenannter_Verlauf_3-4" x1="380.49" y1="236.35" x2="525.01" y2="39.7" xlink:href="#Unbenannter_Verlauf_3"/><style>.cls-2{fill:#212529}</style></defs><g id="Ebene_2" data-name="Ebene 2"><g id="Ebene_1-2" data-name="Ebene 1"><path d="M431.6 103.14a.6.6 0 0 1-.09.15c-.17.27-.35.55-.54.82l-14.49 21-50.19-71.71h48l18 25.71c5.15 7.35 4.07 16.53-.69 24.03Z" style="fill:url(#Unbenannter_Verlauf_3)"/><path class="cls-2" d="M105.26 86.1V55.73H0v142.96h37.11v-57.78h68.15v-30.37H37.11V86.1h68.15zM167.94 166.69V55.45h-37.11v142.96h94.13v-31.72h-57.02zM863.18 166.69V55.45h-37.11v142.96h94.13v-31.72h-57.02zM1184.31 55.45h-74.81v143h37.11v-48.9h37.7a47 47 0 0 0 47-47 47 47 0 0 0-47-47.1Zm9.36 47a16.39 16.39 0 0 1-16.38 16.38h-30.68V86.1h30.68a16.38 16.38 0 0 1 16.38 16.38ZM354.74 86.1V55.45H249.06v142.96H354.74v-30.65h-68.57v-27h68.57v-30.64h-68.57V86.1h68.57zM799.96 86.1V55.45H694.28v142.96H799.96v-30.65h-68.57v-27h68.57v-30.64h-68.57V86.1h68.57zM1008.67 51.32c-43.2 0-78.23 33.85-78.23 75.61s35 75.61 78.23 75.61 78.22-33.85 78.22-75.61-35.02-75.61-78.22-75.61Zm0 117.78c-21.85 0-39.56-18.88-39.56-42.17s17.71-42.17 39.56-42.17 39.55 18.88 39.55 42.17-17.71 42.17-39.55 42.17ZM523.04 55.28l54.52 143.13h45.92l53.93-142.96-41.48-.17-35.71 97.41-34.81-97.41h-42.37z"/><path d="m493.82 167-20.29-29c-.39-.56-.75-1.15-1.09-1.74L464.61 125l-14.49 21.17a23.9 23.9 0 0 0-.06 26.91l.49.69 17.24 24.63h48Z" style="fill:url(#Unbenannter_Verlauf_3-2)"/><path d="m440.74 159.73-.52-69.3-20.07-28.65.31.47-.33-.47a46.74 46.74 0 0 1 8 19.62c2.14 13.44-1.51 27.58-9.15 40l-2.47 3.69-50.23 73.31h48Z" style="fill:url(#Unbenannter_Verlauf_3-3)"/><path d="m502.18 0-62 90.43-9.84 14.36a35.53 35.53 0 0 0 .2 40.44l10.15 14.49c.15.22.29.48.44.71l.38.53 22.62 32.3a60.42 60.42 0 0 1-1.51-65.39l9.78-14.29c.28-.49.59-1 .91-1.44L550.18 0Z" style="fill:url(#Unbenannter_Verlauf_3-4)"/></g></g></svg>