<svg width="200" height="46.459" xmlns="http://www.w3.org/2000/svg"><defs><clipPath clipPathUnits="userSpaceOnUse" id="a"><path d="M0 560.248h2411.778V0H0Z"/></clipPath></defs><path d="M90.717 5.343h17.468V.577H90.717Zm-20.071-.001V8.87h6.832v4.765h-6.832v4.73h10.14v4.765H65.88V.577h14.905v4.765zM26.726 0v23.129h4.766V5.343ZM39.37 0v23.129h4.767V11.197l13.648 12.395V.577H53.02V12.46zM0 0v23.129h4.766V11.197l13.649 12.395V.577h-4.766V12.46zm185.095.577v22.552H200v-4.766h-10.14v-4.729h6.833V8.87h-6.832V5.342H200V.577zM145.94 0v23.129h4.766V5.343Zm12.645 0v23.129h4.766V11.197L177 23.592V.577h-4.766V12.46zm-39.371 0v23.129h4.766V11.197l13.649 12.395V.577h-4.766V12.46z" style="fill:#1d1d1b;fill-opacity:1;fill-rule:nonzero;stroke:none;stroke-width:.0829262"/><g clip-path="url(#a)" transform="matrix(.08293 0 0 -.08293 0 46.46)"><path d="M0 0c0-7.197-.598-14.351-1.794-21.305l-.133-.752a124.167 124.167 0 0 0-8.238-27.506l-.023-.089a8.96 8.96 0 0 0-.353-.819c-18.736-43.871-60.88-72.218-107.343-72.218-64.777 0-117.485 54.678-117.485 121.892v8.216h54.878V-.775c.288-13.376 7.131-28.347 7.242-28.569 10.697-21.791 32.067-35.301 55.741-35.301 22.301 0 43.119 12.425 54.303 32.4l.399.775c.243.465.486.908.708 1.374l1.373 2.878C-56.827-18.669-54.878-9.523-54.878 0c0 35.611-28.081 64.6-62.63 64.6h-62.983l-55.277 57.315h118.26C-52.707 121.915 0 67.214 0 0" style="fill:#1d1d1b;fill-opacity:1;fill-rule:nonzero;stroke:none" transform="translate(1328.277 331.39)"/><path d="M0 0c-4.432-1.476-8.893-2.216-13.378-2.216-7.661 0-14.419 1.478-20.271 4.432-5.857 2.954-10.371 7.196-13.544 12.722-3.175 5.524-4.758 12.007-4.758 19.452 0 7.327 1.695 13.757 5.086 19.286 3.392 5.524 7.906 9.765 13.544 12.719 5.633 2.957 11.679 4.432 18.136 4.432 10.941 0 19.968-2.954 27.085-8.862L2.707 49.981c-2.079 1.642-4.514 3.038-7.305 4.186-2.788 1.15-5.773 1.725-8.946 1.725-5.579 0-10.315-2.053-14.197-6.157-3.885-4.102-5.827-9.219-5.827-15.345 0-6.132 2.051-11.246 6.155-15.348 4.104-4.104 9.328-6.157 15.676-6.157 5.47 0 10.065 1.531 13.788 4.597l9.193-11.49C8.178 3.473 4.43 1.478 0 0" style="fill:#1d1d1b;fill-opacity:1;fill-rule:nonzero;stroke:none" transform="translate(279.564 4.514)"/><path d="M0 0c3.829-4.213 8.59-6.32 14.282-6.32 5.908 0 10.749 2.079 14.525 6.239 3.776 4.157 5.664 9.409 5.664 15.757 0 6.345-1.888 11.625-5.664 15.838-3.776 4.214-8.617 6.321-14.525 6.321-5.692 0-10.453-2.163-14.282-6.483-3.832-4.326-5.745-9.549-5.745-15.676C-5.745 9.44-3.832 4.211 0 0m-19.286 34.715c3.338 5.689 7.961 10.15 13.869 13.379 5.911 3.226 12.64 4.841 20.19 4.841 7.551 0 14.253-1.615 20.108-4.841 5.852-3.229 10.365-7.662 13.541-13.295 3.173-5.638 4.76-11.958 4.76-18.958 0-7.004-1.587-13.325-4.76-18.96-3.176-5.636-7.689-10.094-13.541-13.376-5.855-3.285-12.613-4.926-20.271-4.926-7.443 0-14.116 1.506-20.027 4.514-5.908 3.01-10.531 7.33-13.869 12.968-3.338 5.634-5.005 12.229-5.005 19.78 0 6.893 1.667 13.185 5.005 18.874" style="fill:#1d1d1b;fill-opacity:1;fill-rule:nonzero;stroke:none" transform="translate(354.493 23.719)"/><path d="M0 0h-11.816v16.251H0v27.247c0 9.738 2.463 17.343 7.386 22.816 4.926 5.47 11.984 8.208 21.174 8.208 2.736 0 5.69-.41 8.865-1.232 3.173-.821 5.911-1.997 8.208-3.529l-7.714-13.294c-1.863 1.969-4.326 2.954-7.387 2.954-8.101 0-12.146-5.473-12.146-16.414V16.251h21.665V0H18.386v-53.345H0Z" style="fill:#1d1d1b;fill-opacity:1;fill-rule:nonzero;stroke:none" transform="translate(459.377 57.45)"/><path d="M0 0h-11.816v16.251H0v27.247c0 9.738 2.463 17.343 7.386 22.816 4.926 5.47 11.984 8.208 21.174 8.208 2.736 0 5.69-.41 8.865-1.232 3.173-.821 5.911-1.997 8.208-3.529l-7.714-13.294c-1.863 1.969-4.326 2.954-7.387 2.954-8.101 0-12.146-5.473-12.146-16.414V16.251h21.665V0H18.386v-53.345H0Z" style="fill:#1d1d1b;fill-opacity:1;fill-rule:nonzero;stroke:none" transform="translate(541.773 57.45)"/><path d="M0 0c-3.666-4.048-5.498-9.302-5.498-15.757 0-1.206.053-2.135.162-2.791L31.105-5.58C29.683-2.191 27.601.6 24.869 2.791c-2.738 2.188-6.295 3.282-10.671 3.282C8.396 6.073 3.664 4.048 0 0m31.27-32.665 8.371-13.622a54.074 54.074 0 0 0-11.984-5.498c-4.267-1.367-8.371-2.054-12.309-2.054-7.99 0-14.913 1.588-20.765 4.761-5.855 3.173-10.34 7.551-13.46 13.131-3.119 5.583-4.676 11.984-4.676 19.205 0 6.783 1.748 13.022 5.251 18.711 3.501 5.69 8.262 10.203 14.279 13.544 6.018 3.336 12.585 5.005 19.699 5.005 9.409 0 17.235-2.763 23.472-8.29 6.238-5.526 10.396-13.322 12.475-23.39L-1.888-29.217c1.86-2.847 4.323-5.035 7.386-6.564 3.064-1.535 6.455-2.298 10.178-2.298 5.142 0 10.34 1.804 15.594 5.414" style="fill:#1d1d1b;fill-opacity:1;fill-rule:nonzero;stroke:none" transform="translate(641.492 56.136)"/><path d="M0 0c-3.666-4.048-5.498-9.302-5.498-15.757 0-1.206.053-2.135.162-2.791L31.105-5.58C29.682-2.191 27.601.6 24.869 2.791c-2.738 2.188-6.295 3.282-10.671 3.282C8.396 6.073 3.664 4.048 0 0m31.27-32.665 8.371-13.622a54.074 54.074 0 0 0-11.984-5.498c-4.267-1.367-8.371-2.054-12.309-2.054-7.99 0-14.913 1.588-20.765 4.761-5.855 3.173-10.34 7.551-13.46 13.131-3.119 5.583-4.676 11.984-4.676 19.205 0 6.783 1.748 13.022 5.251 18.711 3.501 5.69 8.262 10.203 14.279 13.544 6.018 3.336 12.585 5.005 19.699 5.005 9.409 0 17.235-2.763 23.472-8.29 6.238-5.526 10.396-13.322 12.475-23.39L-1.888-29.217c1.86-2.847 4.323-5.035 7.386-6.564 3.064-1.535 6.455-2.298 10.178-2.298 5.142 0 10.34 1.804 15.594 5.414" style="fill:#1d1d1b;fill-opacity:1;fill-rule:nonzero;stroke:none" transform="translate(755.24 56.136)"/><path d="M0 0c3.448 2.57 5.88 6.208 7.305 10.915v15.101c-1.313 4.267-3.857 7.715-7.633 10.34-3.776 2.626-8.124 3.939-13.05 3.939-5.801 0-10.725-2.051-14.773-6.155s-6.073-9.33-6.073-15.676c0-4.16.984-7.935 2.956-11.325 1.97-3.394 4.595-6.073 7.878-8.042 3.282-1.97 6.836-2.957 10.668-2.957C-7.689-3.86-3.448-2.575 0 0m25.688 52.279v-69.433H7.305v10.012c-2.519-2.954-5.911-5.661-10.178-8.124-4.267-2.463-9.248-3.695-14.935-3.695-6.676 0-12.64 1.397-17.892 4.186-5.254 2.791-9.414 6.921-12.475 12.393-3.066 5.471-4.595 12.091-4.595 19.862 0 7.551 1.582 14.197 4.758 19.943C-44.839 43.168-40.6 47.6-35.29 50.719c5.307 3.117 11.134 4.677 17.482 4.677 11.269 0 19.696-4.16 25.276-12.475l1.315 9.358z" style="fill:#1d1d1b;fill-opacity:1;fill-rule:nonzero;stroke:none" transform="translate(976.994 21.258)"/><path d="M0 0c4.323-3.888 6.539-8.893 6.648-15.019v-51.542h-18.383v44.975c-.221 3.613-1.287 6.455-3.2 8.536-1.916 2.076-4.789 3.173-8.618 3.282-5.692 0-10.371-2.435-14.035-7.305-3.669-4.87-5.498-11.078-5.498-18.629v-30.859h-18.386V2.873h16.579L-43.58-9.44c2.517 4.814 6.155 8.562 10.915 11.244 4.761 2.682 10.259 4.023 16.498 4.023C-9.712 5.827-4.323 3.883 0 0" style="fill:#1d1d1b;fill-opacity:1;fill-rule:nonzero;stroke:none" transform="translate(1115.855 70.665)"/><path d="M0 0c3.72 2.626 6.346 6.292 7.88 10.999v14.773C6.567 30.039 3.967 33.54.084 36.275c-3.885 2.735-8.402 4.104-13.544 4.104-3.832 0-7.386-.959-10.668-2.873-3.283-1.915-5.908-4.541-7.878-7.877-1.971-3.341-2.956-7.086-2.956-11.243 0-4.16.985-7.936 2.956-11.328 1.97-3.392 4.595-6.073 7.878-8.043 3.282-1.969 6.836-2.954 10.668-2.954C-8.206-3.939-3.72-2.626 0 0m26.263 110.303v-128.03H7.88v9.356C.219-15.813-8.862-19.533-19.368-19.533c-6.457 0-12.284 1.534-17.482 4.598-5.198 3.06-9.272 7.439-12.228 13.131-2.954 5.687-4.43 12.31-4.43 19.861 0 7.549 1.557 14.116 4.677 19.696 3.119 5.58 7.439 9.821 12.968 12.722 5.524 2.898 11.788 4.348 18.793 4.348 5.033 0 9.793-.959 14.281-2.872 4.486-1.916 8.096-4.514 10.834-7.796v66.148z" style="fill:#1d1d1b;fill-opacity:1;fill-rule:nonzero;stroke:none" transform="translate(1221.808 21.83)"/><path d="M0 0c3.448 2.57 5.88 6.208 7.305 10.915v15.101c-1.313 4.267-3.857 7.715-7.633 10.34-3.776 2.626-8.124 3.939-13.05 3.939-5.801 0-10.725-2.051-14.773-6.155s-6.073-9.33-6.073-15.676c0-4.16.984-7.935 2.956-11.325 1.97-3.394 4.595-6.073 7.878-8.042 3.282-1.97 6.836-2.957 10.668-2.957C-7.689-3.86-3.448-2.575 0 0m25.688 52.279v-69.433H7.305v10.012c-2.519-2.954-5.911-5.661-10.178-8.124-4.267-2.463-9.248-3.695-14.935-3.695-6.676 0-12.64 1.397-17.892 4.186-5.254 2.791-9.414 6.921-12.475 12.393-3.066 5.471-4.595 12.091-4.595 19.862 0 7.551 1.582 14.197 4.758 19.943C-44.839 43.168-40.6 47.6-35.29 50.719c5.307 3.117 11.134 4.677 17.482 4.677 11.269 0 19.696-4.16 25.276-12.475l1.315 9.358z" style="fill:#1d1d1b;fill-opacity:1;fill-rule:nonzero;stroke:none" transform="translate(1425.423 21.258)"/><path d="M0 0c3.389 2.954 6.865 5.224 10.422 6.811 3.554 1.585 6.539 2.379 8.946 2.379l-.82-18.383c-5.035.435-9.521-.465-13.459-2.707-3.942-2.244-7.005-5.31-9.193-9.193-2.191-3.885-3.282-8.017-3.282-12.393V-63.36h-18.386V6.073h16.579l1.313-16.088C-6.02-6.295-3.394-2.957 0 0" style="fill:#1d1d1b;fill-opacity:1;fill-rule:nonzero;stroke:none" transform="translate(1528.587 67.464)"/><path d="M0 0v-30.53h18.055v-14.444H0v-54.989h-18.385v54.989h-11.982v14.444h11.982V0Z" style="fill:#1d1d1b;fill-opacity:1;fill-rule:nonzero;stroke:none" transform="translate(1618.21 104.067)"/><path d="m0 0-31.677-73.537-22.325 46.946-20.352-46.946L-106.362 0h18.055l16.085-36.934 11.656 26.591L-65.327 0h15.921l16.416-38.081L-18.055 0Z" style="fill:#1d1d1b;fill-opacity:1;fill-rule:nonzero;stroke:none" transform="translate(1776.767 73.537)"/><path d="M0 0c3.829-4.213 8.59-6.32 14.281-6.32 5.908 0 10.75 2.079 14.526 6.239 3.776 4.157 5.664 9.409 5.664 15.757 0 6.345-1.888 11.625-5.664 15.838-3.776 4.214-8.618 6.321-14.526 6.321-5.691 0-10.452-2.163-14.281-6.483-3.832-4.326-5.745-9.549-5.745-15.676C-5.745 9.44-3.832 4.211 0 0m-19.286 34.715c3.338 5.689 7.961 10.15 13.869 13.379 5.911 3.226 12.64 4.841 20.19 4.841 7.551 0 14.253-1.615 20.108-4.841 5.852-3.229 10.365-7.662 13.541-13.295 3.173-5.638 4.76-11.958 4.76-18.958 0-7.004-1.587-13.325-4.76-18.96-3.176-5.636-7.689-10.094-13.541-13.376-5.855-3.285-12.613-4.926-20.271-4.926-7.443 0-14.116 1.506-20.027 4.514-5.908 3.01-10.531 7.33-13.869 12.968-3.339 5.634-5.005 12.229-5.005 19.78 0 6.893 1.666 13.185 5.005 18.874" style="fill:#1d1d1b;fill-opacity:1;fill-rule:nonzero;stroke:none" transform="translate(1834.707 23.719)"/><path d="M0 0c3.389 2.954 6.865 5.224 10.422 6.811 3.554 1.585 6.539 2.379 8.946 2.379l-.82-18.383c-5.035.435-9.521-.465-13.459-2.707-3.941-2.244-7.005-5.31-9.193-9.193-2.191-3.885-3.282-8.017-3.282-12.393V-63.36h-18.386V6.073h16.579l1.313-16.088C-6.02-6.295-3.394-2.957 0 0" style="fill:#1d1d1b;fill-opacity:1;fill-rule:nonzero;stroke:none" transform="translate(1959.292 67.464)"/><path d="m0 0-8.043-6.236v-25.278h-18.385V96.515h18.385V12.803L26.754 39.56l11.162-9.849-25.278-19.696L40.87-31.514H19.533Z" style="fill:#1d1d1b;fill-opacity:1;fill-rule:nonzero;stroke:none" transform="translate(2050.227 35.618)"/><path d="M0 0c-4.76 1.913-8.674 4.623-11.737 8.127l7.717 10.34c5.799-5.692 11.707-8.536 17.727-8.536 3.282 0 5.991.628 8.124 1.888 2.134 1.256 3.2 3.144 3.2 5.663 0 2.626-1.094 4.595-3.282 5.908-2.19 1.313-4.623 2.382-7.305 3.201a434.25 434.25 0 0 1-5.17 1.56c-6.02 1.86-10.505 4.567-13.46 8.127-2.953 3.554-4.432 7.739-4.432 12.556 0 3.829.957 7.412 2.873 10.75 1.913 3.338 4.814 6.045 8.699 8.127 3.883 2.076 8.618 3.116 14.2 3.116 5.252 0 9.819-.603 13.704-1.804 3.883-1.206 7.524-3.119 10.915-5.745l-7.058-10.999c-1.969 1.86-4.348 3.338-7.139 4.432-2.791 1.094-5.336 1.641-7.633 1.641-2.847 0-5.198-.656-7.058-1.969-1.863-1.313-2.789-3.01-2.789-5.089-.112-2.519.819-4.404 2.789-5.661 1.969-1.259 5.142-2.6 9.521-4.022 1.86-.55 3.063-.932 3.61-1.148 5.471-1.753 9.74-4.185 12.803-7.305 3.064-3.119 4.598-7.198 4.598-12.228 0-6.788-2.438-12.45-7.305-16.989-4.87-4.544-11.846-6.814-20.93-6.814C9.821-2.873 4.76-1.913 0 0" style="fill:#1d1d1b;fill-opacity:1;fill-rule:nonzero;stroke:none" transform="translate(2140.748 5.498)"/></g></svg>