<svg viewBox="0 0 115.983 29.708" xmlns="http://www.w3.org/2000/svg"><path style="fill:#4faf4d;fill-opacity:1;stroke-width:.352778" d="M85.508 101.528c-.34-.198-1.417-2.054-2.394-4.125-1.752-3.715-2.892-5.371-3.696-5.371-.364 0-.579.912-1.464 6.232-.354 2.128-3.008 1.742-4.278-.622-.688-1.28-.31-3.228 2.244-11.547 1.27-4.138 2.26-7.756 2.2-8.04-.211-1.007-3.819 1.24-5.447 3.393-.806 1.067-1.68 1.94-1.94 1.94-.819 0-1.388-1.686-1.011-2.998 1.355-4.724 7.644-8.395 13.775-8.04 5.049.292 7.57 2.736 7.566 7.334-.003 2.885-1.148 5.376-3.882 8.44l-1.926 2.158 1.187 1.669c.653.917 1.517 2.323 1.92 3.124.61 1.212 1.333 1.896 2.007 1.896.07 0 .128-1.151.13-2.558 0-1.426.248-3.253.558-4.13 1.363-3.847 4.436-7.07 6.741-7.07 1.05 0 1.17-.109 1.27-1.147.105-1.09.179-1.145 1.504-1.1 1.038.034 1.6.287 2.205.99 1.014 1.178 1.01 1.574-.05 5.778-.474 1.879-.971 4.25-1.104 5.268-.231 1.77-.206 1.852.572 1.852.512 0 1.366-.592 2.297-1.591 1.319-1.417 1.498-1.816 1.63-3.637.115-1.597.397-2.392 1.285-3.63 1.389-1.932 2.957-2.93 4.14-2.633.748.187.86.417.86 1.754 0 .874-.533 3.013-1.234 4.95-.679 1.876-1.235 3.72-1.235 4.099 0 1.469 1.98.363 3.617-2.02.767-1.116 1.113-2.472 2.003-7.864 1.168-7.075 2.085-9.651 3.893-10.939 1.449-1.031 3.37-.95 4.105.173.806 1.23.446 3.12-1.302 6.85-1.267 2.705-3.606 10.84-3.91 13.6-.286 2.6 3.27.352 3.994-2.527.677-2.687 2.242-3.215 3.325-1.12.474.916.47 1.147-.04 2.222-.43.907-.477 1.371-.192 1.905.599 1.119 1.435 1.819 2.172 1.819.96 0 .89-1.876-.21-5.626-1.157-3.944-1.16-6.115-.008-7.266.476-.477 1.031-.866 1.234-.866.208 0 .37-.778.37-1.782 0-2.914 1.451-4.894 4.104-5.598 1.207-.32 1.83-.271 3.61.283l2.153.67.8-1.461c1-1.822 2.757-2.805 4.101-2.294 1.446.55 2.164 1.38 2.164 2.498 0 1.296-.484 2.243-1.944 3.803-1.053 1.126-1.281 1.81-2.586 7.761-.787 3.59-1.48 7.003-1.537 7.585-.307 3.063 4.055-.468 4.966-4.02 1.085-4.236 5.094-8.15 7.312-7.14.475.217.956.63 1.067.92.157.411.357.443.915.144.573-.307.852-.242 1.424.33 1.195 1.194 1.22 4.917.053 7.957-.173.45.004.574.821.574 1.212 0 1.797-.592 2.905-2.937.596-1.26.701-1.804.407-2.099-.218-.218-.397-.899-.397-1.513 0-2.858 5.446-4.971 6.712-2.605.32.596.155 1.058-.988 2.77-1.639 2.453-2.28 4.539-2.13 6.919.093 1.48.229 1.775.857 1.865 1.02.145 2.442-1.615 3.162-3.916.315-1.01.625-3.337.688-5.173.123-3.597.345-3.964 2.18-3.613 1.319.252 1.866 1.392 1.866 3.886v2.247l1.5-2.231c1.839-2.736 3.372-3.83 5.37-3.83 5.065 0 3.836 7.738-1.51 9.502-1.347.445-1.48.594-1.48 1.675 0 2.909 4.252 1.981 7.505-1.638 1.657-1.842 2.17-2.112 2.48-1.304.328.854-1.104 3.393-2.898 5.14-5.707 5.56-11.672 4.464-11.672-2.143v-1.842l-1.261 2.096c-1.611 2.677-2.098 3.216-4.012 4.442-1.178.755-1.999 1.005-3.298 1.005-1.498 0-1.892-.161-2.93-1.2-.66-.66-1.2-1.545-1.2-1.968 0-.686-.123-.74-1.146-.505-.63.144-1.536.235-2.013.202-.584-.041-1.331.393-2.293 1.332-3.149 3.074-6.766 2.811-8.189-.595l-.503-1.205-1.592 1.467c-1.7 1.568-4.046 2.804-5.342 2.817-1.28.013-2.205-1.196-2.205-2.882 0-.813.547-4.266 1.216-7.673.669-3.407 1.321-7.004 1.45-7.994l.234-1.8-1.141-.229c-3.111-.622-4.934.048-4.934 1.815 0 .579.325.84 1.411 1.132 1.233.332 1.412.509 1.412 1.398 0 1.187-1.536 3.188-2.447 3.188-.34 0-.907-.318-1.26-.708-1.048-1.158-.998-.563.176 2.113 2.02 4.604 2.233 7.688.668 9.679-2.325 2.956-7.33 2.74-9.014-.388-.347-.644-.693-1.171-.769-1.171-.076 0-.706.5-1.401 1.11-3.53 3.098-7.12 2.995-7.12-.205 0-.498-.095-.905-.21-.905-.116 0-.933.636-1.815 1.412-3.14 2.764-5.83 2.622-6.303-.331l-.22-1.377-1.214 1.118c-1.445 1.331-3.217 2.353-4.08 2.353-1.123 0-2.032-1.292-2.047-2.91l-.014-1.5-.557 1.059c-1.01 1.92-2.276 2.998-3.517 2.998-.632 0-1.257-.176-1.39-.392-.15-.242-.504.02-.925.684-.705 1.115-3.172 2.538-4.366 2.52-.375-.006-.96-.173-1.3-.37zm65.368-6.33c1.191-.637 1.525-1.785 1.437-4.938-.047-1.654.088-3.462.3-4.018.502-1.322.323-1.436-.828-.53-2.278 1.791-3.934 7.846-2.53 9.25.702.701.742.707 1.62.237zm-53.868-1.143c.425-.31.765-1.461 1.12-3.792.28-1.84.512-3.728.515-4.195.007-.84 0-.842-.737-.176-1.88 1.7-3.44 6.865-2.437 8.074.54.65.754.663 1.54.089zm80.38-4.757c.743-.867 1.04-1.84.797-2.608-.477-1.502-1.964-.24-2.447 2.078-.204.98-.14 1.147.44 1.147.373 0 .917-.278 1.21-.617zm-93.353-1.893c2.586-4.096 2.569-8.053-.04-9.291-2.036-.967-2.052-.943-2.907 4.374-.435 2.706-.881 5.157-.992 5.445-.152.396.13.56 1.15.665.744.077 1.47.167 1.612.2.143.032.673-.594 1.177-1.393zm27.585-7.632c-1.477-1.675-.854-6.394.849-6.433.13-.003.726.405 1.323.908 1.388 1.168 1.422 2.536.115 4.605-1.064 1.685-1.469 1.848-2.287.92z" transform="translate(-69.603 -72.19)"/></svg>