<svg viewBox="0 0 101.653 33.867" version="1.1" id="svg5" xmlns:xlink="http://www.w3.org/1999/xlink" xmlns="http://www.w3.org/2000/svg"><defs id="defs2"><path id="SVGID_1_" d="M0 44h522.8v208H0z"/><path id="SVGID_3_" d="M0 44h522.8v208H0z"/><path id="SVGID_5_" d="M0 44h522.8v208H0z"/></defs><g id="layer1" transform="translate(123.248 -50.653)"><g id="g28273" transform="translate(76.829 54.54) scale(.26458)"><g id="visable_x5F_with_x5F_claim_x5F_positiv_x5F_RGB_1_"><g id="g28209" transform="translate(-825.496 -100.294)"><defs id="defs28124"><path id="rect28222" d="M0 44h522.8v208H0z"/></defs><clipPath id="SVGID_2_"><use xlink:href="#SVGID_1_" id="use28126" x="0" y="0" width="100%" height="100%" overflow="visible"/></clipPath><g class="st1" clip-path="url(#SVGID_2_)" id="g28151"><defs id="defs28130"><path id="rect28227" d="M0 44h522.8v208H0z"/></defs><clipPath id="SVGID_4_"><use xlink:href="#SVGID_3_" id="use28132" x="0" y="0" width="100%" height="100%" overflow="visible"/></clipPath><path d="M155.9 85.6c-5.8 0-10.5 4.7-10.5 10.5s4.7 10.5 10.5 10.5 10.5-4.7 10.5-10.5c.1-5.8-4.6-10.5-10.5-10.5" clip-path="url(#SVGID_4_)" id="path28135" fill="#89ba17"/><path class="st3" d="M290.1 135.2c0-15.8-7-22.6-24.5-22.6-12.9 0-28.3 3-28.3 3v15.5s18.2-2.1 27.1-2.1c5.4 0 7.8 1.2 7.7 6.2v4.7l-14.4.6c-14.8 1.1-23.6 5.4-23.6 20.6 0 14.3 6.7 22.1 20.9 22.1 10.1 0 35.2-.5 35.2-.5v-47.5ZM272 168.1s-7.4.4-13.2.4c-4.9 0-6.6-3.2-6.6-8 0-4.9 2.8-7.1 7.5-7.5l12.3-.4z" clip-path="url(#SVGID_4_)" id="path28137"/><path class="st3" d="M453.5 143.1c0-20.4-8.6-30.6-28.4-30.6-19.7 0-29.8 12.3-29.8 36.3 0 24.3 8.6 34.4 29 34.4 12.5 0 28-3.8 28-3.8L452 166s-13.9 1.2-24.9 1.2c-9.7 0-13.5-3.6-13.6-11.7h39.6zm-40.2-1.3c.1-10.3 3.1-14.4 11.7-14.4 8.5 0 11.6 3.5 11.6 14.4z" clip-path="url(#SVGID_4_)" id="path28139"/><path class="st3" d="M206.1 139.9c-12.4-2.3-14.8-1.3-15-5.6-.1-3.7 1.6-5.4 9.4-5.4 7.8 0 23 1.6 23 1.6l.3-15.6s-15-2.3-24.7-2.3c-14.1 0-26 6.4-26 22.2 0 15 7.7 18.5 22.2 20.9 12.4 2 13.9 2.9 13.9 5.8 0 3.5-2.3 5.3-10.9 5.3-6.9 0-23.1-1.6-23.1-1.6l-.5 16.3s15.4 1.6 25.4 1.6c16.8 0 27.1-6.1 27.1-22 0-13.7-5.5-18.4-21.1-21.2" clip-path="url(#SVGID_4_)" id="path28141"/><path class="st3" clip-path="url(#SVGID_4_)" id="polygon28143" d="M165 182.7v-69.4L146.9 148v34.7z"/><path class="st3" d="M333 112.6c-5.9 0-14.6 3.6-14.6 3.6V90c0-1.7-1.3-3-3-3h-15v95.7s19.8.5 26.3.5c23.7 0 33.6-7.3 33.6-36.2-.1-25.9-9-34.4-27.3-34.4m-6.4 55.7c-2 0-8.2-.5-8.2-.5v-37.3s6.7-1.8 12.1-1.8c7 0 11.3 4.6 11.3 18.2.1 14.6-2.8 21.4-15.2 21.4" clip-path="url(#SVGID_4_)" id="path28145"/><path class="st3" d="M383.8 87h-15v95.7h18.1V90c-.1-1.7-1.5-3-3.1-3" clip-path="url(#SVGID_4_)" id="path28147"/><path class="st3" d="m135.8 113.3-31.6 59.1L91.1 148H69.3l31.7 59.2c.8 1.5 1.6 2.7 3.2 2.7 1.7 0 2.4-1.2 3.2-2.7l50.2-93.9z" clip-path="url(#SVGID_4_)" id="path28149"/></g><g class="st1" clip-path="url(#SVGID_2_)" id="g28207"><defs id="defs28154"><path id="rect28241" d="M0 44h522.8v208H0z"/></defs><clipPath id="SVGID_6_"><use xlink:href="#SVGID_5_" id="use28156" x="0" y="0" width="100%" height="100%" overflow="visible"/></clipPath><path class="st4" d="M279.5 199.9c-2.8 0-4.3 1.8-4.3 5.2 0 3.5 1.2 4.9 4.1 4.9 1.8 0 4-.5 4-.5v-1.9s-2 .2-3.6.2c-1.4 0-1.9-.5-1.9-1.7h5.7l.2-1.8c0-3-1.4-4.4-4.2-4.4m-1.6 4.3c0-1.5.4-2.1 1.7-2.1 1.2 0 1.7.5 1.7 2.1z" clip-path="url(#SVGID_6_)" id="path28159"/><path class="st4" d="M239.4 196.6c-4.1 0-5.4 2.4-5.4 6.9 0 4.4 1.3 6.7 5.4 6.7 4.1 0 5.4-2.3 5.4-6.7.1-4.5-1.2-6.9-5.4-6.9m0 11.2c-2.2 0-2.7-1.4-2.7-4.4 0-3 .5-4.5 2.7-4.5s2.7 1.5 2.7 4.5-.5 4.4-2.7 4.4" clip-path="url(#SVGID_6_)" id="path28161"/><path class="st4" d="M305.9 207.5s-.9.3-1.9.3c-1.3 0-1.3-.8-1.3-2.5v-5.1h-2.6v5c0 3.3.6 4.8 3.4 4.8 1 0 2.4-.8 2.4-.8v.5h2.6v-9.6h-2.6z" clip-path="url(#SVGID_6_)" id="path28163"/><path class="st4" d="M270.3 200c-1.1 0-2.4.8-2.4.8v-.5h-2.6v9.6h2.6v-7.2s.8-.3 1.8-.3c1.3 0 1.4.9 1.4 2.4v5.1h2.6v-5.2c0-3-.7-4.7-3.4-4.7" clip-path="url(#SVGID_6_)" id="path28165"/><path class="st4" d="M314.7 203.9c-1.8-.3-2.1-.4-2.1-.9s.2-.8 1.3-.8 3.5.3 3.5.3v-2.1s-2.3-.5-3.7-.5c-2 0-3.7.9-3.7 3.1 0 2.1 1.1 2.6 3.2 3 1.8.3 2 .5 2 .9 0 .5-.3.8-1.6.8-1 0-3.4-.3-3.4-.3l-.1 2.2s2.3.5 3.7.5c2.4 0 3.9-.9 3.9-3.1 0-2-.8-2.7-3-3.1" clip-path="url(#SVGID_6_)" id="path28167"/><path class="st4" d="M262.5 196.4c-.8 0-1.4.6-1.4 1.4 0 .8.6 1.4 1.4 1.4.8 0 1.4-.6 1.4-1.4 0-.8-.6-1.4-1.4-1.4" clip-path="url(#SVGID_6_)" id="path28169"/><path class="st4" d="M251.7 200c-1.1 0-2.4.8-2.4.8v-.5h-2.6v9.6h2.6v-7.2s.8-.3 1.8-.3c1.3 0 1.4.9 1.4 2.4v5.1h2.6v-5.2c0-3-.7-4.7-3.4-4.7" clip-path="url(#SVGID_6_)" id="path28171"/><path class="st4" clip-path="url(#SVGID_6_)" id="rect28173" d="M319.3 200.3h2.6v9.6h-2.6z"/><path class="st4" clip-path="url(#SVGID_6_)" id="rect28175" d="M261.2 200.3h2.6v9.6h-2.6z"/><path class="st4" d="M338.2 199.9c-2.8 0-4.3 1.8-4.3 5.2 0 3.5 1.2 4.9 4.1 4.9 1.8 0 4-.5 4-.5v-1.9s-2 .2-3.6.2c-1.4 0-1.9-.5-1.9-1.7h5.7l.2-1.8c0-3-1.4-4.4-4.2-4.4m-1.8 4.2c0-1.5.4-2.1 1.7-2.1 1.2 0 1.7.5 1.7 2.1z" clip-path="url(#SVGID_6_)" id="path28177"/><path class="st4" d="M320.7 196.4c-.8 0-1.4.6-1.4 1.4 0 .8.6 1.4 1.4 1.4.8 0 1.4-.6 1.4-1.4-.1-.8-.7-1.4-1.4-1.4" clip-path="url(#SVGID_6_)" id="path28179"/><path class="st4" d="M377.4 200c-1.5 0-3.2.9-3.2.9-.6-.6-1.3-.9-2.4-.9-.9 0-2.3.8-2.3.8v-.5H367v9.6h2.6v-7.2s.9-.3 1.7-.3c1.2 0 1.3.9 1.3 2.6v4.9h2.6v-5c0-.8-.1-2.2-.1-2.2s1-.4 1.8-.4c1.2 0 1.3.9 1.3 2.4v5.1h2.6v-5.2c0-3-.7-4.6-3.4-4.6" clip-path="url(#SVGID_6_)" id="path28181"/><path class="st4" d="M348.4 203.8c-1.8-.3-2.1-.4-2.1-.9s.2-.8 1.3-.8 3.5.3 3.5.3v-2.1s-2.3-.5-3.7-.5c-2 0-3.7.9-3.7 3.1 0 2.1 1.1 2.6 3.2 3 1.8.3 2 .5 2 .9 0 .5-.3.8-1.6.8-1 0-3.4-.3-3.4-.3l-.1 2.2s2.3.5 3.7.5c2.4 0 3.9-.9 3.9-3.1.1-2-.7-2.7-3-3.1" clip-path="url(#SVGID_6_)" id="path28183"/><path class="st4" d="M420.9 200c-2.8 0-4.3 1.8-4.3 5.2 0 3.5 1.2 4.9 4.1 4.9 1.8 0 4-.5 4-.5v-1.9s-2 .2-3.6.2c-1.4 0-1.9-.5-1.9-1.7h5.7l.2-1.8c0-3-1.4-4.4-4.2-4.4m-1.9 4.2c0-1.5.4-2.1 1.7-2.1 1.2 0 1.7.5 1.7 2.1z" clip-path="url(#SVGID_6_)" id="path28185"/><path class="st4" d="M357.2 203.8c-1.8-.3-2.1-.4-2.1-.9s.2-.8 1.3-.8 3.5.3 3.5.3v-2.1s-2.3-.5-3.7-.5c-2 0-3.7.9-3.7 3.1 0 2.1 1.1 2.6 3.2 3 1.8.3 2 .5 2 .9 0 .5-.3.8-1.6.8-1 0-3.4-.3-3.4-.3l-.1 2.2s2.3.5 3.7.5c2.4 0 3.9-.9 3.9-3.1.1-2-.7-2.7-3-3.1" clip-path="url(#SVGID_6_)" id="path28187"/><path class="st4" d="M328.9 200c-1.1 0-2.4.8-2.4.8v-.5h-2.6v9.6h2.6v-7.2s.8-.3 1.8-.3c1.3 0 1.4.9 1.4 2.4v5.1h2.6v-5.2c0-3-.7-4.7-3.4-4.7" clip-path="url(#SVGID_6_)" id="path28189"/><path class="st4" d="M440.6 203.9c-1.8-.3-2.1-.4-2.1-.9s.2-.8 1.3-.8 3.5.3 3.5.3v-2.1s-2.3-.5-3.7-.5c-2 0-3.7.9-3.7 3.1 0 2.1 1.1 2.6 3.2 3 1.8.3 2 .5 2 .9 0 .5-.3.8-1.6.8-1 0-3.4-.3-3.4-.3l-.1 2.2s2.3.5 3.7.5c2.4 0 3.9-.9 3.9-3.1 0-2.1-.8-2.7-3-3.1" clip-path="url(#SVGID_6_)" id="path28191"/><path class="st4" d="M406.6 200c-2.8 0-4.3 1.8-4.3 5.2 0 3.5 1.2 4.9 4.1 4.9 1.8 0 4-.5 4-.5v-1.9s-2 .2-3.6.2c-1.4 0-1.9-.5-1.9-1.7h5.7l.2-1.8c0-3-1.4-4.4-4.2-4.4m-1.5 4.2c0-1.5.4-2.1 1.7-2.1 1.2 0 1.7.5 1.7 2.1z" clip-path="url(#SVGID_6_)" id="path28193"/><path class="st4" d="m450.9 200.1-1.8 5.8-2-5.8h-2.6l3.4 9.6-.1.3c-.1.4-.3.9-.5 1.1-.2.2-.6.3-1 .3h-.3c-.1 0-.2-.1-.3-.1l-.5 2.2c.2.1.4.1.6.1h.7c.5 0 1-.1 1.4-.2.4-.2.7-.4 1-.7.3-.3.6-.7.8-1.1.2-.5.5-1.2.7-1.8l3.1-9.7zm-1.8 7.6z" clip-path="url(#SVGID_6_)" id="path28195"/><path class="st4" d="M294.7 199.9c-.8 0-2.1.5-2.1.5v-3.7c0-.2-.2-.4-.4-.4h-2.1V210s2.8.1 3.8.1c3.4 0 4.8-1 4.8-5.2-.1-3.8-1.4-5-4-5m-.9 7.9c-.3 0-1.2-.1-1.2-.1v-5.3s1-.3 1.7-.3c1 0 1.6.7 1.6 2.6.1 2.2-.3 3.1-2.1 3.1" clip-path="url(#SVGID_6_)" id="path28197"/><path class="st4" d="M398.5 196.2c-.2 0-.4.2-.4.4v3.7s-1.2-.5-2.1-.5c-2.6 0-3.9 1.2-3.9 4.9 0 4.1 1.4 5.2 4.8 5.2.9 0 3.8-.1 3.8-.1v-13.7h-2.2zm-.5 11.6s-.9.1-1.2.1c-1.8 0-2.2-1-2.2-3 0-1.9.6-2.6 1.6-2.6.8 0 1.7.3 1.7.3v5.2z" clip-path="url(#SVGID_6_)" id="path28199"/><path class="st4" d="M259 196.4h-2.1v13.5h2.5v-13.1c0-.2-.2-.4-.4-.4" clip-path="url(#SVGID_6_)" id="path28201"/><path class="st4" d="M390.5 203.2c0-2.2-1-3.2-3.5-3.2-1.8 0-4 .4-4 .4v2.2s2.6-.3 3.8-.3c.8 0 1.1.2 1.1.9v.7l-2 .1c-2.1.2-3.3.8-3.3 2.9 0 2 1 3.1 3 3.1 1.4 0 5-.1 5-.1v-6.7zm-2.5 4.7s-1.1.1-1.9.1c-.7 0-.9-.5-.9-1.1 0-.7.4-1 1.1-1.1l1.7-.1z" clip-path="url(#SVGID_6_)" id="path28203"/><path class="st4" d="M434.4 203.2c0-2.2-1-3.2-3.5-3.2-1.8 0-4 .4-4 .4v2.2s2.6-.3 3.8-.3c.8 0 1.1.2 1.1.9v.7l-2 .1c-2.1.2-3.3.8-3.3 2.9 0 2 1 3.1 3 3.1 1.4 0 5-.1 5-.1v-6.7zm-2.6 4.7s-1.1.1-1.9.1c-.7 0-.9-.5-.9-1.1 0-.7.4-1 1.1-1.1l1.7-.1z" clip-path="url(#SVGID_6_)" id="path28205"/></g></g></g></g></g><style type="text/css" id="style28115">.st1{clip-path:url(#SVGID_2_)}.st3{clip-path:url(#SVGID_4_);fill:#00193c}.st4{clip-path:url(#SVGID_6_);fill:#89ba17}</style></svg>