<svg viewBox="0 0 400.002 119.495" xmlns="http://www.w3.org/2000/svg"><g clip-rule="evenodd" fill-rule="evenodd" stroke-linejoin="round" stroke-miterlimit="2"><path d="M198.334 101.801c-.325 2.26-7.383-2.036-15.66-4.204-3.515-.92-6.962-.759-9.29-.759-4.019 0-9.708 1.55-12.037 3.304-2.326 1.753-3.488 3.756-3.488 6.01 0 2.444 1.216 4.447 3.648 6.011 2.432 1.567 7.968 2.35 12.198 2.35 2.115 0 4.281-.252 6.504-.751a54.257 54.257 0 0 0 6.66-2.067 101.341 101.341 0 0 0 6.029-2.725c2.009-.939 3.754-1.847 5.232-2.723l5.204-2.942a177.258 177.258 0 0 0 6.634-3.608 71.742 71.742 0 0 1 6.957-3.513 45.731 45.731 0 0 1 7.604-2.73c2.695-.715 5.663-1.072 8.897-1.072 3.236 0 6.149.357 8.736 1.072 2.697.65 5.017 1.594 6.958 2.829 1.942 1.17 3.397 2.568 4.37 4.193a9.501 9.501 0 0 1 1.616 5.364 10.78 10.78 0 0 1-1.456 5.462c-.97 1.625-2.372 3.056-4.206 4.29-1.832 1.236-4.099 2.212-6.794 2.927-2.59.65-5.556.976-8.901.976-3.019 0-5.933-.293-8.736-.878a56.562 56.562 0 0 1-7.928-2.439c-2.481-.975-10.257-3.297-9.046-5.23.994-1.374 2.072-.306 4.68.655 2.124.783 11.824 4.289 19.46 3.313 3.902-.498 9.475-1.186 11.907-2.753 2.432-1.564 3.648-3.567 3.648-6.01 0-2.255-1.162-4.258-3.488-6.01-2.328-1.756-7.703-2.631-11.723-2.631-2.326 0-4.6.313-6.821.94a45.397 45.397 0 0 0-6.66 2.348 72.575 72.575 0 0 0-6.03 2.817c-2.009 1.002-3.821 2.27-5.512 3.022l-6.812 3.986-4.313 2.237a76.422 76.422 0 0 1-7.117 3.22 52.21 52.21 0 0 1-7.605 2.437c-2.698.65-5.662.976-8.899.976-3.233 0-6.202-.326-8.897-.976-2.59-.715-4.853-1.658-6.797-2.828-1.834-1.235-3.288-2.667-4.367-4.292a10.094 10.094 0 0 1-1.456-5.266c0-1.82.486-3.543 1.456-5.168 1.079-1.69 2.533-3.154 4.367-4.39 1.835-1.3 4.047-2.308 6.633-3.023 2.59-.716 5.502-1.074 8.737-1.074 3.129 0 6.097.358 8.9 1.074 2.805.65 6.249 1.672 8.73 2.777 2.588 1.04 9.051 3.323 8.274 5.472z" fill="#00b2ad"/><path d="M204.26 1.321c6.762 0 12.244 7.584 12.244 16.94 0 9.357-5.482 16.941-12.244 16.941-6.763 0-12.245-7.584-12.245-16.94 0-9.357 5.482-16.94 12.245-16.94zm.06 6.986c-3.843 0-6.958 5.412-6.958 10.727 0 5.316 3.115 10.727 6.957 10.727 3.841 0 6.956-5.41 6.956-10.727 0-5.315-3.115-10.727-6.956-10.727z" fill="#00b2ad" fill-rule="nonzero"/><path d="M211.603 54.96C234.02 12.516 253.736 4.253 251.445.943c-5.28-7.628-37.849 32.885-45.74 52.488-8.005 19.88-13.132 30.605-13.583 34.607-.108.953 1.407 1.668 1.953 1.094 5.036-6.018 12.321-24.315 17.528-34.174Z" fill="#00b2ad"/><path d="M195.759 54.96C173.342 12.516 153.626 4.253 155.918.943c5.28-7.628 37.848 32.885 45.74 52.488 8.005 19.88 13.132 30.605 13.583 34.607.108.953-1.407 1.668-1.955 1.094-5.036-6.018-12.32-24.315-17.527-34.174Z" fill="#00b2ad"/><path d="M2.734 49.213c-.14-.49-.49-.772-.982-.842C.7 48.16 0 47.25 0 46.127c0-1.612 1.262-2.384 2.734-2.384 1.893 0 3.295 1.262 3.926 2.946l8.624 22.436 1.753 6.101h.07l1.824-6.03 8.835-22.507c.7-1.753 2.102-2.946 4.066-2.946 1.402 0 2.595.842 2.595 2.315 0 1.121-.632 2.033-1.753 2.243-.421.07-.772.422-.982.842l-12.27 31.342c-1.403 3.505-3.085 7.853-6.312 10.166-1.472 1.052-3.084 1.472-4.697 1.472-1.823 0-3.646-.49-5.399-1.121-.841-.35-1.473-1.332-1.473-2.245 0-1.26 1.122-2.243 2.315-2.243 1.403 0 2.874.982 4.417.982.771 0 1.542-.14 2.174-.63 0 0 2.173-1.753 3.786-5.75.14-.28.28-.631.42-.982zm39.479 13.041c0 7.854 6.452 14.164 14.164 14.164 7.854 0 14.235-6.31 14.235-14.164 0-7.713-6.381-14.023-14.235-14.023-7.712 0-14.164 6.31-14.164 14.023zm-4.416 0c0-10.167 8.344-18.511 18.58-18.511 10.307 0 18.651 8.344 18.651 18.51 0 10.309-8.344 18.652-18.65 18.652-10.237 0-18.581-8.343-18.581-18.651zm48.946-1.191c0 7.01 5.048 12.06 12.55 12.06 7.432 0 12.55-4.838 12.55-12.131 0-6.801-4.906-12.901-12.41-12.901-7.502 0-12.69 6.03-12.69 12.972zm31.06-15.076c0 .842-.49 1.683-1.331 2.033 0 0-.49.21-.49.912v26.504c0 12.761-8.414 16.687-16.759 16.687-7.852 0-13.251-3.926-13.251-3.926-.842-.56-1.122-1.12-1.122-1.823 0-1.261.911-2.243 2.244-2.243.35 0 .84.07 1.19.28 0 0 5.331 3.436 10.869 3.436 8.275 0 12.341-5.048 12.341-12.411v-3.857s-3.365 5.82-12.481 5.82c-9.816 0-17.038-6.66-17.038-16.266 0-9.396 7.152-17.39 17.11-17.39 8.343 0 12.41 6.731 12.41 6.731v-1.822c0-2.665 1.331-4.91 3.926-4.91 1.261 0 2.383.914 2.383 2.245zm11.086 16.408c0 7.08 4.768 13.322 12.27 13.322 7.503 0 12.27-6.1 12.27-13.253 0-6.871-4.627-14.233-12.27-14.233-7.572 0-12.27 7.222-12.27 14.164zm24.54 12.9v-1.963c-2.453 4.698-7.642 6.873-12.339 6.873-9.677 0-16.688-8.275-16.688-17.81 0-9.956 6.8-18.652 16.688-18.652 4.768 0 9.535 1.824 12.34 6.942v-2.033c0-2.665 1.332-4.91 3.927-4.91 1.26 0 2.383.914 2.383 2.245 0 .842-.492 1.683-1.332 2.033 0 0-.491.21-.491.912v26.084c0 .7.491.91.491.91.84.352 1.332 1.193 1.332 2.034 0 1.333-1.122 2.245-2.383 2.245-2.595 0-3.927-2.245-3.927-4.91zM276.64 60.08c-.843-6.24-6.101-11.85-12.691-11.85-6.453 0-11.85 5.61-12.553 11.85zm-25.244 4.488c.912 6.17 5.961 11.85 12.553 11.85 4.906 0 8.412-1.473 10.726-3.786.492-.49 1.122-.702 1.752-.702 1.124 0 2.245.912 2.245 2.103 0 .632-.21 1.193-.631 1.613-3.155 3.366-7.714 5.259-14.092 5.259-10.098 0-17.11-8.694-17.11-18.651 0-9.536 7.012-18.511 17.11-18.511 10.166 0 17.246 8.905 17.246 18.51 0 1.334-1.19 2.315-2.383 2.315zm42.898-2.173c0 7.082 4.768 13.322 12.27 13.322 7.503 0 12.271-6.1 12.271-13.253 0-6.871-4.628-14.233-12.27-14.233-7.573 0-12.27 7.222-12.27 14.164zm24.541 12.9v-1.962c-2.455 4.697-7.644 6.872-12.34 6.872-9.676 0-16.688-8.275-16.688-17.81 0-9.956 6.801-18.652 16.688-18.652 4.768 0 9.535 1.824 12.34 6.942v-2.033c0-2.665 1.332-4.91 3.926-4.91 1.262 0 2.385.914 2.385 2.245 0 .842-.492 1.683-1.332 2.033 0 0-.492.21-.492.912v26.085c0 .7.492.91.492.91.84.352 1.332 1.192 1.332 2.033 0 1.333-1.123 2.245-2.385 2.245-2.594 0-3.926-2.245-3.926-4.91zm27.26 5.61c-3.435 0-7.5-1.403-10.377-3.294-.701-.492-.98-1.193-.98-1.894 0-1.613 1.892-2.875 3.856-1.544 2.033 1.473 4.838 2.245 7.781 2.245 4.348 0 8.344-2.104 8.344-4.979 0-3.575-4.416-5.118-8.412-6.73-4.628-1.823-11.71-4.839-11.71-11.149 0-5.61 5.82-9.817 12.34-9.817 3.786 0 7.362 1.333 9.886 3.366.63.56.912 1.262.912 1.893 0 1.612-2.034 2.875-3.716 1.612-1.963-1.54-4.558-2.383-7.082-2.383-4.208 0-7.853 2.454-7.853 5.399 0 3.365 4.978 5.26 8.345 6.591 5.188 2.103 11.849 5.328 11.849 11.218 0 6.941-7.714 9.466-13.183 9.466zm22.215-31.692c-.142-.49-.491-.772-.983-.842-1.052-.21-1.753-1.121-1.753-2.244 0-1.612 1.262-2.384 2.735-2.384 1.893 0 3.294 1.262 3.925 2.946l8.625 22.437 1.754 6.1h.069l1.823-6.03 8.835-22.507c.701-1.753 2.103-2.946 4.067-2.946 1.402 0 2.595.842 2.595 2.315 0 1.121-.63 2.033-1.753 2.243-.422.07-.772.422-.982.842l-12.27 31.343c-1.404 3.506-3.085 7.852-6.312 10.165-1.473 1.053-3.086 1.473-4.697 1.473-1.823 0-3.646-.491-5.399-1.122-.842-.35-1.473-1.332-1.473-2.245 0-1.26 1.121-2.243 2.315-2.243 1.403 0 2.874.983 4.416.983.772 0 1.543-.14 2.175-.631 0 0 2.173-1.753 3.787-5.75.138-.28.28-.63.418-.98z" fill-rule="nonzero"/></g></svg>